<svg xmlns="http://www.w3.org/2000/svg" xmlns:xlink="http://www.w3.org/1999/xlink" width="100" zoomAndPan="magnify" viewBox="0 0 60 67.92" height="80" preserveAspectRatio="xMidYMid meet" version="1.0"><defs><clipPath id="d09b6d71db"><path d="M 0.0351562 0 L 59.964844 0 L 59.964844 59.929688 L 0.0351562 59.929688 Z M 0.0351562 0 " clip-rule="nonzero"/></clipPath><clipPath id="779f6a9239"><path d="M 14 15 L 59.964844 15 L 59.964844 52.589844 L 14 52.589844 Z M 14 15 " clip-rule="nonzero"/></clipPath><clipPath id="227294706a"><path d="M 1.847656 24 L 13 24 L 13 45 L 1.847656 45 Z M 1.847656 24 " clip-rule="nonzero"/></clipPath><clipPath id="7894820add"><path d="M 21 4.644531 L 54 4.644531 L 54 17 L 21 17 Z M 21 4.644531 " clip-rule="nonzero"/></clipPath></defs><g clip-path="url(#d09b6d71db)"><path fill="#ffffff" d="M 0.0351562 0 L 74.945312 0 L 74.945312 59.929688 L 0.0351562 59.929688 Z M 0.0351562 0 " fill-opacity="1" fill-rule="nonzero"/><path fill="#ffffff" d="M 0.0351562 0 L 74.945312 0 L 74.945312 59.929688 L 0.0351562 59.929688 Z M 0.0351562 0 " fill-opacity="1" fill-rule="nonzero"/></g><g clip-path="url(#779f6a9239)"><path fill="#95dd26" d="M 37.488281 15.324219 C 29.398438 15.324219 22.53125 20.53125 20.035156 27.769531 L 14.351562 27.769531 L 14.351562 41.023438 L 20.511719 41.023438 C 23.324219 47.617188 29.875 52.226562 37.488281 52.226562 C 45.101562 52.226562 51.65625 47.601562 54.46875 41.023438 L 60.628906 41.023438 L 60.628906 27.769531 L 54.945312 27.769531 C 52.449219 20.53125 45.582031 15.324219 37.488281 15.324219 Z M 37.488281 47.992188 C 29.636719 47.992188 23.28125 41.636719 23.28125 33.78125 C 23.28125 25.929688 29.636719 19.574219 37.488281 19.574219 C 45.34375 19.574219 51.699219 25.929688 51.699219 33.78125 C 51.699219 41.636719 45.34375 47.992188 37.488281 47.992188 Z M 37.488281 47.992188 " fill-opacity="1" fill-rule="nonzero"/></g><g clip-path="url(#227294706a)"><path fill="#95dd26" d="M 11.222656 24.644531 L 3.476562 24.644531 C 2.625 24.644531 1.921875 25.332031 1.921875 26.199219 L 1.921875 42.605469 C 1.921875 43.460938 2.609375 44.164062 3.476562 44.164062 L 11.238281 44.164062 C 12.089844 44.164062 12.792969 43.476562 12.792969 42.605469 L 12.792969 26.199219 C 12.78125 25.332031 12.089844 24.644531 11.222656 24.644531 Z M 11.222656 24.644531 " fill-opacity="1" fill-rule="nonzero"/></g><g clip-path="url(#7894820add)"><path fill="#95dd26" d="M 22.769531 13.722656 L 26.898438 16.773438 C 27.78125 16.222656 28.726562 15.742188 29.695312 15.324219 C 32.164062 14.277344 34.78125 13.753906 37.488281 13.753906 C 40.199219 13.753906 42.816406 14.277344 45.28125 15.324219 C 46.253906 15.742188 47.199219 16.222656 48.078125 16.773438 L 52.207031 13.707031 C 52.867188 13.214844 53.253906 12.4375 53.253906 11.613281 L 53.253906 7.246094 C 53.253906 5.8125 52.089844 4.644531 50.652344 4.644531 L 24.328125 4.644531 C 22.890625 4.644531 21.722656 5.8125 21.722656 7.246094 L 21.722656 11.613281 C 21.722656 12.453125 22.113281 13.230469 22.769531 13.722656 Z M 22.769531 13.722656 " fill-opacity="1" fill-rule="nonzero"/></g><path fill="#95dd26" d="M 37.488281 21.128906 C 30.503906 21.128906 24.851562 26.78125 24.851562 33.765625 C 24.851562 40.753906 30.503906 46.40625 37.488281 46.40625 C 44.476562 46.40625 50.128906 40.753906 50.128906 33.765625 C 50.128906 26.796875 44.476562 21.128906 37.488281 21.128906 Z M 40.363281 33.78125 C 40.363281 34.304688 40.210938 34.800781 39.972656 35.234375 L 36.039062 31.300781 C 36.457031 31.046875 36.964844 30.910156 37.488281 30.910156 C 39.074219 30.894531 40.363281 32.183594 40.363281 33.78125 Z M 29.578125 31.835938 C 29.5625 32.105469 29.339844 32.316406 29.070312 32.316406 C 28.769531 32.316406 28.53125 32.0625 28.558594 31.761719 C 28.828125 28.15625 31.640625 25.257812 35.203125 24.867188 L 35.203125 23.730469 C 35.203125 23.328125 35.636719 23.085938 35.980469 23.28125 L 38.972656 25.015625 C 39.316406 25.210938 39.316406 25.703125 38.972656 25.914062 L 35.980469 27.648438 C 35.636719 27.84375 35.203125 27.605469 35.203125 27.199219 L 35.203125 25.914062 C 32.179688 26.304688 29.800781 28.769531 29.578125 31.835938 Z M 34.617188 33.78125 C 34.617188 33.257812 34.769531 32.765625 35.007812 32.332031 L 38.941406 36.265625 C 38.523438 36.519531 38.011719 36.652344 37.488281 36.652344 C 35.90625 36.652344 34.617188 35.367188 34.617188 33.78125 Z M 46.390625 35.621094 C 46.210938 39.226562 43.472656 42.203125 39.914062 42.683594 L 39.941406 43.820312 C 39.957031 44.222656 39.523438 44.476562 39.179688 44.28125 L 36.144531 42.636719 C 35.800781 42.441406 35.785156 41.949219 36.113281 41.738281 L 39.058594 39.929688 C 39.40625 39.71875 39.839844 39.960938 39.851562 40.363281 L 39.882812 41.648438 C 42.890625 41.1875 45.191406 38.660156 45.34375 35.578125 C 45.359375 35.308594 45.582031 35.097656 45.851562 35.082031 C 46.152344 35.070312 46.390625 35.324219 46.390625 35.621094 Z M 46.390625 35.621094 " fill-opacity="1" fill-rule="nonzero"/></svg>