<svg xmlns="http://www.w3.org/2000/svg" xmlns:xlink="http://www.w3.org/1999/xlink" width="100" zoomAndPan="magnify" viewBox="0 0 75 60" height="80" preserveAspectRatio="xMidYMid meet" version="1.0"><defs><clipPath id="a14b287d1f"><path d="M 15 17 L 60 17 L 60 52.714844 L 15 52.714844 Z M 15 17 " clip-rule="nonzero"/></clipPath><clipPath id="77ea067eba"><path d="M 61 26 L 71.988281 26 L 71.988281 46 L 61 46 Z M 61 26 " clip-rule="nonzero"/></clipPath><clipPath id="b9e9c0bfe3"><path d="M 22 6.964844 L 53 6.964844 L 53 19 L 22 19 Z M 22 6.964844 " clip-rule="nonzero"/></clipPath></defs><rect x="-7.5" width="90" fill="#ffffff" y="-6" height="72" fill-opacity="1"/><rect x="-7.5" width="90" fill="#ffffff" y="-6" height="72" fill-opacity="1"/><g clip-path="url(#a14b287d1f)"><path fill="#95dd26" d="M 37.496094 17.304688 C 29.660156 17.304688 23.015625 22.34375 20.59375 29.351562 L 15.09375 29.351562 L 15.09375 42.183594 L 21.058594 42.183594 C 23.78125 48.570312 30.125 53.03125 37.496094 53.03125 C 44.867188 53.03125 51.210938 48.554688 53.933594 42.183594 L 59.898438 42.183594 L 59.898438 29.351562 L 54.394531 29.351562 C 51.976562 22.34375 45.328125 17.304688 37.496094 17.304688 Z M 37.496094 48.933594 C 29.890625 48.933594 23.738281 42.777344 23.738281 35.175781 C 23.738281 27.570312 29.890625 21.417969 37.496094 21.417969 C 45.097656 21.417969 51.253906 27.570312 51.253906 35.175781 C 51.253906 42.777344 45.097656 48.933594 37.496094 48.933594 Z M 37.496094 48.933594 " fill-opacity="1" fill-rule="nonzero"/></g><g clip-path="url(#77ea067eba)"><path fill="#95dd26" d="M 70.425781 26.328125 L 62.910156 26.328125 C 62.085938 26.328125 61.40625 26.992188 61.40625 27.832031 L 61.40625 43.71875 C 61.40625 44.542969 62.070312 45.226562 62.910156 45.226562 L 70.425781 45.226562 C 71.253906 45.226562 71.933594 44.558594 71.933594 43.71875 L 71.933594 27.832031 C 71.933594 26.992188 71.253906 26.328125 70.425781 26.328125 Z M 70.425781 26.328125 " fill-opacity="1" fill-rule="nonzero"/></g><path fill="#95dd26" d="M 12.066406 26.328125 L 4.5625 26.328125 C 3.738281 26.328125 3.058594 26.992188 3.058594 27.832031 L 3.058594 43.71875 C 3.058594 44.542969 3.722656 45.226562 4.5625 45.226562 L 12.078125 45.226562 C 12.90625 45.226562 13.585938 44.558594 13.585938 43.71875 L 13.585938 27.832031 C 13.570312 26.992188 12.90625 26.328125 12.066406 26.328125 Z M 12.066406 26.328125 " fill-opacity="1" fill-rule="nonzero"/><g clip-path="url(#b9e9c0bfe3)"><path fill="#95dd26" d="M 23.246094 15.753906 L 27.242188 18.707031 C 28.097656 18.171875 29.007812 17.710938 29.949219 17.304688 C 32.339844 16.289062 34.875 15.785156 37.496094 15.785156 C 40.117188 15.785156 42.652344 16.289062 45.039062 17.304688 C 45.980469 17.710938 46.894531 18.171875 47.75 18.707031 L 51.746094 15.738281 C 52.382812 15.261719 52.757812 14.507812 52.757812 13.710938 L 52.757812 9.484375 C 52.757812 8.09375 51.628906 6.964844 50.238281 6.964844 L 24.75 6.964844 C 23.359375 6.964844 22.230469 8.09375 22.230469 9.484375 L 22.230469 13.710938 C 22.230469 14.523438 22.609375 15.277344 23.246094 15.753906 Z M 23.246094 15.753906 " fill-opacity="1" fill-rule="nonzero"/></g><path fill="#95dd26" d="M 37.496094 22.921875 C 30.734375 22.921875 25.257812 28.398438 25.257812 35.160156 C 25.257812 41.921875 30.734375 47.398438 37.496094 47.398438 C 44.257812 47.398438 49.734375 41.921875 49.734375 35.160156 C 49.734375 28.410156 44.257812 22.921875 37.496094 22.921875 Z M 40.277344 35.175781 C 40.277344 35.679688 40.132812 36.160156 39.898438 36.578125 L 36.089844 32.769531 C 36.496094 32.523438 36.988281 32.394531 37.496094 32.394531 C 39.03125 32.378906 40.277344 33.625 40.277344 35.175781 Z M 29.835938 33.292969 C 29.820312 33.554688 29.601562 33.753906 29.34375 33.753906 C 29.050781 33.753906 28.820312 33.507812 28.851562 33.21875 C 29.109375 29.730469 31.832031 26.921875 35.28125 26.542969 L 35.28125 25.441406 C 35.28125 25.050781 35.699219 24.820312 36.03125 25.007812 L 38.929688 26.6875 C 39.261719 26.875 39.261719 27.355469 38.929688 27.558594 L 36.03125 29.238281 C 35.699219 29.425781 35.28125 29.195312 35.28125 28.804688 L 35.28125 27.558594 C 32.355469 27.933594 30.050781 30.324219 29.835938 33.292969 Z M 34.714844 35.175781 C 34.714844 34.667969 34.859375 34.191406 35.089844 33.769531 L 38.898438 37.578125 C 38.496094 37.824219 38.003906 37.957031 37.496094 37.957031 C 35.960938 37.957031 34.714844 36.710938 34.714844 35.175781 Z M 46.113281 36.957031 C 45.9375 40.445312 43.289062 43.328125 39.839844 43.792969 L 39.871094 44.890625 C 39.886719 45.28125 39.464844 45.527344 39.132812 45.339844 L 36.191406 43.746094 C 35.859375 43.558594 35.84375 43.082031 36.164062 42.878906 L 39.015625 41.125 C 39.347656 40.925781 39.769531 41.15625 39.785156 41.546875 L 39.8125 42.792969 C 42.722656 42.34375 44.953125 39.894531 45.097656 36.914062 C 45.113281 36.652344 45.328125 36.449219 45.589844 36.433594 C 45.878906 36.421875 46.113281 36.667969 46.113281 36.957031 Z M 46.113281 36.957031 " fill-opacity="1" fill-rule="nonzero"/></svg>