<svg xmlns="http://www.w3.org/2000/svg" xmlns:xlink="http://www.w3.org/1999/xlink" width="150" zoomAndPan="magnify" viewBox="0 0 112.5 74.999997" height="100" preserveAspectRatio="xMidYMid meet" version="1.0"><defs><clipPath id="5abd9a6848"><path d="M 0 0.164062 L 112.003906 0.164062 L 112.003906 74.832031 L 0 74.832031 Z M 0 0.164062 " clip-rule="nonzero"/></clipPath><clipPath id="ad3917fe0a"><path d="M 9 2.730469 L 100 2.730469 L 100 46 L 9 46 Z M 9 2.730469 " clip-rule="nonzero"/></clipPath><clipPath id="25fc3eedf4"><path d="M 36 59 L 43 59 L 43 73.664062 L 36 73.664062 Z M 36 59 " clip-rule="nonzero"/></clipPath><clipPath id="a670e5d56a"><path d="M 52 59 L 59 59 L 59 73.664062 L 52 73.664062 Z M 52 59 " clip-rule="nonzero"/></clipPath><clipPath id="fde90ede43"><path d="M 68 59 L 75 59 L 75 73.664062 L 68 73.664062 Z M 68 59 " clip-rule="nonzero"/></clipPath></defs><g clip-path="url(#5abd9a6848)"><path fill="#ffffff" d="M 0 0.164062 L 112.003906 0.164062 L 112.003906 74.835938 L 0 74.835938 Z M 0 0.164062 " fill-opacity="1" fill-rule="nonzero"/><path fill="#ffffff" d="M 0 0.164062 L 112.003906 0.164062 L 112.003906 74.835938 L 0 74.835938 Z M 0 0.164062 " fill-opacity="1" fill-rule="nonzero"/></g><g clip-path="url(#ad3917fe0a)"><path fill="#000000" d="M 93.902344 2.535156 L 14.445312 2.535156 C 14.089844 2.539062 13.738281 2.574219 13.390625 2.644531 C 13.042969 2.71875 12.703125 2.820312 12.375 2.957031 C 12.046875 3.09375 11.734375 3.261719 11.441406 3.460938 C 11.144531 3.660156 10.871094 3.882812 10.621094 4.136719 C 10.367188 4.386719 10.144531 4.660156 9.945312 4.957031 C 9.746094 5.25 9.578125 5.5625 9.441406 5.890625 C 9.304688 6.21875 9.199219 6.558594 9.128906 6.90625 C 9.058594 7.253906 9.023438 7.605469 9.019531 7.960938 L 9.019531 39.949219 C 9.027344 40.300781 9.066406 40.648438 9.144531 40.992188 C 9.21875 41.335938 9.324219 41.671875 9.464844 41.996094 C 9.601562 42.320312 9.773438 42.625 9.972656 42.917969 C 10.167969 43.207031 10.394531 43.476562 10.644531 43.722656 C 10.898438 43.96875 11.167969 44.191406 11.464844 44.386719 C 11.757812 44.578125 12.066406 44.742188 12.390625 44.878906 C 12.71875 45.011719 13.054688 45.113281 13.398438 45.183594 C 13.746094 45.253906 14.09375 45.289062 14.445312 45.289062 L 93.902344 45.289062 C 94.253906 45.289062 94.601562 45.253906 94.945312 45.183594 C 95.289062 45.113281 95.625 45.011719 95.949219 44.875 C 96.273438 44.742188 96.582031 44.578125 96.875 44.382812 C 97.167969 44.1875 97.4375 43.964844 97.6875 43.71875 C 97.9375 43.46875 98.160156 43.199219 98.355469 42.90625 C 98.550781 42.617188 98.71875 42.308594 98.855469 41.984375 C 98.992188 41.660156 99.09375 41.328125 99.164062 40.984375 C 99.238281 40.640625 99.273438 40.292969 99.277344 39.941406 L 99.277344 7.957031 C 99.277344 7.601562 99.242188 7.253906 99.171875 6.90625 C 99.105469 6.558594 99.003906 6.222656 98.867188 5.894531 C 98.734375 5.566406 98.566406 5.253906 98.371094 4.960938 C 98.175781 4.664062 97.953125 4.394531 97.703125 4.140625 C 97.457031 3.890625 97.183594 3.664062 96.890625 3.46875 C 96.597656 3.269531 96.289062 3.101562 95.960938 2.964844 C 95.636719 2.824219 95.300781 2.722656 94.953125 2.648438 C 94.605469 2.578125 94.257812 2.539062 93.902344 2.535156 Z M 30.347656 13.578125 C 30.34375 13.328125 30.394531 13.085938 30.492188 12.855469 C 30.589844 12.625 30.726562 12.421875 30.90625 12.25 C 31.085938 12.074219 31.292969 11.941406 31.527344 11.851562 C 31.761719 11.761719 32.003906 11.71875 32.253906 11.730469 L 33.921875 11.730469 C 34.167969 11.734375 34.40625 11.785156 34.632812 11.878906 C 34.859375 11.976562 35.0625 12.109375 35.238281 12.28125 C 35.414062 12.453125 35.554688 12.648438 35.65625 12.875 C 35.757812 13.097656 35.816406 13.332031 35.832031 13.578125 L 35.832031 15.246094 C 35.824219 15.496094 35.773438 15.738281 35.675781 15.96875 C 35.574219 16.199219 35.4375 16.40625 35.257812 16.582031 C 35.082031 16.761719 34.878906 16.898438 34.644531 16.996094 C 34.414062 17.097656 34.175781 17.148438 33.921875 17.152344 L 32.253906 17.152344 C 31.996094 17.164062 31.75 17.121094 31.511719 17.027344 C 31.277344 16.933594 31.066406 16.796875 30.886719 16.613281 C 30.703125 16.433594 30.566406 16.222656 30.472656 15.988281 C 30.378906 15.75 30.335938 15.503906 30.347656 15.246094 Z M 22.542969 13.578125 C 22.554688 13.332031 22.613281 13.097656 22.714844 12.871094 C 22.816406 12.648438 22.957031 12.449219 23.132812 12.277344 C 23.308594 12.109375 23.511719 11.976562 23.738281 11.878906 C 23.964844 11.785156 24.203125 11.734375 24.449219 11.730469 L 26.117188 11.730469 C 26.367188 11.71875 26.609375 11.761719 26.84375 11.851562 C 27.078125 11.941406 27.285156 12.074219 27.464844 12.25 C 27.644531 12.421875 27.78125 12.625 27.878906 12.855469 C 27.976562 13.085938 28.023438 13.328125 28.023438 13.578125 L 28.023438 15.246094 C 28.03125 15.5 27.988281 15.75 27.894531 15.984375 C 27.800781 16.222656 27.664062 16.433594 27.484375 16.613281 C 27.304688 16.796875 27.097656 16.933594 26.859375 17.027344 C 26.621094 17.121094 26.375 17.164062 26.117188 17.152344 L 24.449219 17.152344 C 24.199219 17.148438 23.957031 17.097656 23.726562 16.996094 C 23.496094 16.898438 23.289062 16.761719 23.113281 16.582031 C 22.933594 16.40625 22.796875 16.199219 22.699219 15.96875 C 22.597656 15.738281 22.546875 15.496094 22.542969 15.246094 Z M 83.859375 34.859375 L 24.449219 34.859375 C 24.191406 34.871094 23.9375 34.832031 23.695312 34.738281 C 23.453125 34.648438 23.238281 34.515625 23.050781 34.335938 C 22.863281 34.15625 22.71875 33.945312 22.613281 33.707031 C 22.511719 33.46875 22.460938 33.222656 22.460938 32.960938 C 22.460938 32.703125 22.511719 32.453125 22.613281 32.214844 C 22.71875 31.976562 22.863281 31.765625 23.050781 31.589844 C 23.238281 31.410156 23.453125 31.273438 23.695312 31.183594 C 23.9375 31.09375 24.191406 31.054688 24.449219 31.066406 L 83.859375 31.066406 C 84.105469 31.078125 84.339844 31.132812 84.558594 31.234375 C 84.78125 31.335938 84.976562 31.472656 85.144531 31.652344 C 85.316406 31.828125 85.445312 32.027344 85.535156 32.253906 C 85.625 32.480469 85.671875 32.71875 85.671875 32.960938 C 85.671875 33.207031 85.625 33.441406 85.535156 33.667969 C 85.445312 33.894531 85.316406 34.09375 85.144531 34.273438 C 84.976562 34.449219 84.78125 34.585938 84.558594 34.6875 C 84.339844 34.789062 84.105469 34.847656 83.859375 34.859375 Z M 83.859375 26.910156 L 24.449219 26.910156 C 24.195312 26.910156 23.953125 26.859375 23.71875 26.765625 C 23.484375 26.667969 23.28125 26.53125 23.101562 26.351562 C 22.921875 26.171875 22.785156 25.964844 22.6875 25.730469 C 22.589844 25.5 22.542969 25.253906 22.542969 25.003906 C 22.542969 24.75 22.589844 24.507812 22.6875 24.273438 C 22.785156 24.039062 22.921875 23.832031 23.101562 23.652344 C 23.28125 23.476562 23.484375 23.335938 23.71875 23.242188 C 23.953125 23.144531 24.195312 23.09375 24.449219 23.09375 L 83.859375 23.09375 C 84.101562 23.109375 84.332031 23.171875 84.554688 23.273438 C 84.773438 23.378906 84.964844 23.519531 85.128906 23.695312 C 85.296875 23.875 85.421875 24.074219 85.511719 24.300781 C 85.601562 24.527344 85.644531 24.757812 85.644531 25.003906 C 85.644531 25.246094 85.601562 25.480469 85.511719 25.703125 C 85.421875 25.929688 85.296875 26.132812 85.128906 26.308594 C 84.964844 26.484375 84.773438 26.625 84.554688 26.730469 C 84.332031 26.832031 84.101562 26.894531 83.859375 26.910156 Z M 83.859375 26.910156 " fill-opacity="1" fill-rule="nonzero"/></g><path fill="#000000" d="M 38.316406 63.257812 C 37.820312 63.25 37.386719 63.074219 37.023438 62.730469 C 36.597656 62.304688 36.21875 61.839844 35.882812 61.339844 C 35.546875 60.839844 35.265625 60.308594 35.035156 59.753906 C 34.804688 59.199219 34.632812 58.625 34.511719 58.03125 C 34.394531 57.441406 34.335938 56.84375 34.335938 56.242188 C 34.335938 55.640625 34.394531 55.042969 34.511719 54.453125 C 34.632812 53.863281 34.804688 53.289062 35.035156 52.730469 C 35.265625 52.175781 35.546875 51.644531 35.882812 51.144531 C 36.21875 50.644531 36.597656 50.179688 37.023438 49.753906 C 37.195312 49.582031 37.394531 49.449219 37.617188 49.355469 C 37.84375 49.261719 38.078125 49.214844 38.320312 49.214844 C 38.566406 49.214844 38.800781 49.261719 39.023438 49.355469 C 39.25 49.449219 39.449219 49.582031 39.621094 49.753906 C 39.8125 49.925781 39.960938 50.125 40.066406 50.359375 C 40.171875 50.59375 40.222656 50.839844 40.222656 51.097656 C 40.222656 51.351562 40.171875 51.597656 40.066406 51.832031 C 39.960938 52.066406 39.8125 52.265625 39.621094 52.4375 C 39.382812 52.695312 39.175781 52.972656 38.988281 53.269531 C 38.804688 53.566406 38.652344 53.878906 38.523438 54.207031 C 38.398438 54.53125 38.304688 54.867188 38.238281 55.210938 C 38.175781 55.554688 38.140625 55.902344 38.140625 56.25 C 38.140625 56.601562 38.175781 56.949219 38.238281 57.292969 C 38.304688 57.636719 38.398438 57.96875 38.523438 58.296875 C 38.652344 58.621094 38.804688 58.933594 38.988281 59.230469 C 39.175781 59.527344 39.382812 59.804688 39.621094 60.066406 C 39.8125 60.234375 39.960938 60.433594 40.066406 60.667969 C 40.171875 60.902344 40.226562 61.148438 40.226562 61.402344 C 40.226562 61.660156 40.171875 61.90625 40.066406 62.140625 C 39.960938 62.375 39.8125 62.574219 39.621094 62.742188 C 39.265625 63.113281 38.832031 63.285156 38.316406 63.257812 Z M 38.316406 63.257812 " fill-opacity="1" fill-rule="nonzero"/><g clip-path="url(#25fc3eedf4)"><path fill="#000000" d="M 38.316406 73.550781 C 37.820312 73.539062 37.390625 73.363281 37.023438 73.023438 C 36.828125 72.855469 36.675781 72.652344 36.570312 72.417969 C 36.460938 72.179688 36.40625 71.933594 36.40625 71.675781 C 36.40625 71.417969 36.460938 71.167969 36.570312 70.933594 C 36.675781 70.699219 36.828125 70.496094 37.023438 70.324219 C 37.277344 70.078125 37.503906 69.808594 37.703125 69.515625 C 37.902344 69.222656 38.070312 68.910156 38.210938 68.585938 C 38.347656 68.257812 38.449219 67.921875 38.519531 67.574219 C 38.589844 67.226562 38.625 66.875 38.625 66.523438 C 38.625 66.167969 38.589844 65.816406 38.519531 65.46875 C 38.449219 65.121094 38.347656 64.785156 38.210938 64.457031 C 38.070312 64.132812 37.902344 63.820312 37.703125 63.53125 C 37.503906 63.238281 37.277344 62.964844 37.023438 62.71875 C 36.832031 62.550781 36.679688 62.347656 36.574219 62.113281 C 36.46875 61.878906 36.417969 61.636719 36.417969 61.378906 C 36.417969 61.121094 36.46875 60.878906 36.574219 60.644531 C 36.679688 60.410156 36.832031 60.207031 37.023438 60.039062 C 37.195312 59.867188 37.394531 59.730469 37.617188 59.636719 C 37.84375 59.542969 38.078125 59.496094 38.320312 59.496094 C 38.566406 59.496094 38.800781 59.542969 39.023438 59.636719 C 39.25 59.730469 39.449219 59.867188 39.621094 60.039062 C 40.042969 60.464844 40.425781 60.929688 40.757812 61.429688 C 41.09375 61.929688 41.375 62.460938 41.605469 63.015625 C 41.835938 63.570312 42.007812 64.144531 42.125 64.734375 C 42.242188 65.324219 42.300781 65.921875 42.300781 66.523438 C 42.300781 67.125 42.242188 67.722656 42.125 68.3125 C 42.007812 68.902344 41.835938 69.476562 41.605469 70.03125 C 41.375 70.589844 41.09375 71.117188 40.757812 71.617188 C 40.425781 72.117188 40.042969 72.582031 39.621094 73.007812 C 39.269531 73.390625 38.835938 73.570312 38.316406 73.550781 Z M 38.316406 73.550781 " fill-opacity="1" fill-rule="nonzero"/></g><path fill="#000000" d="M 54.171875 63.257812 C 53.65625 63.285156 53.226562 63.109375 52.878906 62.730469 C 52.453125 62.304688 52.070312 61.839844 51.738281 61.339844 C 51.402344 60.839844 51.121094 60.308594 50.890625 59.753906 C 50.660156 59.199219 50.484375 58.625 50.367188 58.03125 C 50.25 57.441406 50.191406 56.84375 50.191406 56.242188 C 50.191406 55.640625 50.25 55.042969 50.367188 54.453125 C 50.484375 53.863281 50.660156 53.289062 50.890625 52.730469 C 51.121094 52.175781 51.402344 51.644531 51.738281 51.144531 C 52.070312 50.644531 52.453125 50.179688 52.878906 49.753906 C 53.050781 49.582031 53.246094 49.445312 53.472656 49.351562 C 53.699219 49.257812 53.933594 49.210938 54.175781 49.210938 C 54.421875 49.210938 54.65625 49.257812 54.878906 49.351562 C 55.105469 49.445312 55.300781 49.582031 55.472656 49.753906 C 55.667969 49.925781 55.816406 50.125 55.921875 50.359375 C 56.027344 50.59375 56.078125 50.839844 56.078125 51.097656 C 56.078125 51.351562 56.027344 51.597656 55.921875 51.832031 C 55.816406 52.066406 55.667969 52.265625 55.472656 52.4375 C 55.21875 52.683594 54.992188 52.957031 54.792969 53.25 C 54.589844 53.542969 54.421875 53.855469 54.285156 54.179688 C 54.144531 54.507812 54.039062 54.847656 53.96875 55.195312 C 53.898438 55.542969 53.863281 55.894531 53.863281 56.25 C 53.863281 56.605469 53.898438 56.957031 53.96875 57.308594 C 54.039062 57.65625 54.144531 57.992188 54.285156 58.320312 C 54.421875 58.648438 54.589844 58.957031 54.792969 59.253906 C 54.992188 59.546875 55.21875 59.816406 55.472656 60.066406 C 55.667969 60.234375 55.816406 60.4375 55.921875 60.667969 C 56.027344 60.902344 56.078125 61.148438 56.078125 61.402344 C 56.078125 61.660156 56.027344 61.90625 55.921875 62.140625 C 55.816406 62.371094 55.667969 62.574219 55.472656 62.742188 C 55.105469 63.082031 54.671875 63.253906 54.171875 63.257812 Z M 54.171875 63.257812 " fill-opacity="1" fill-rule="nonzero"/><g clip-path="url(#a670e5d56a)"><path fill="#000000" d="M 54.171875 73.550781 C 53.660156 73.574219 53.230469 73.398438 52.878906 73.023438 C 52.683594 72.855469 52.535156 72.652344 52.429688 72.421875 C 52.320312 72.1875 52.269531 71.941406 52.269531 71.683594 C 52.269531 71.425781 52.320312 71.179688 52.429688 70.945312 C 52.535156 70.710938 52.683594 70.511719 52.878906 70.34375 C 53.113281 70.085938 53.324219 69.808594 53.507812 69.511719 C 53.691406 69.214844 53.84375 68.902344 53.96875 68.578125 C 54.097656 68.253906 54.191406 67.917969 54.253906 67.574219 C 54.320312 67.234375 54.351562 66.886719 54.351562 66.539062 C 54.351562 66.191406 54.320312 65.84375 54.253906 65.5 C 54.191406 65.160156 54.097656 64.824219 53.96875 64.5 C 53.84375 64.175781 53.691406 63.863281 53.507812 63.566406 C 53.324219 63.269531 53.113281 62.992188 52.878906 62.734375 C 52.683594 62.566406 52.535156 62.367188 52.425781 62.132812 C 52.320312 61.898438 52.265625 61.652344 52.265625 61.394531 C 52.265625 61.140625 52.320312 60.894531 52.425781 60.660156 C 52.535156 60.425781 52.683594 60.226562 52.878906 60.054688 C 53.050781 59.882812 53.246094 59.75 53.472656 59.652344 C 53.699219 59.558594 53.933594 59.511719 54.175781 59.511719 C 54.421875 59.511719 54.65625 59.558594 54.878906 59.652344 C 55.105469 59.75 55.304688 59.882812 55.472656 60.054688 C 55.898438 60.484375 56.277344 60.945312 56.613281 61.445312 C 56.945312 61.949219 57.230469 62.476562 57.460938 63.03125 C 57.6875 63.589844 57.863281 64.160156 57.980469 64.753906 C 58.097656 65.34375 58.15625 65.9375 58.15625 66.539062 C 58.15625 67.144531 58.097656 67.738281 57.980469 68.328125 C 57.863281 68.917969 57.6875 69.492188 57.460938 70.050781 C 57.230469 70.605469 56.945312 71.132812 56.613281 71.632812 C 56.277344 72.136719 55.898438 72.597656 55.472656 73.023438 C 55.105469 73.367188 54.671875 73.542969 54.171875 73.550781 Z M 54.171875 73.550781 " fill-opacity="1" fill-rule="nonzero"/></g><path fill="#000000" d="M 70.035156 63.257812 C 69.480469 63.25 68.988281 63.078125 68.558594 62.730469 C 68.140625 62.300781 67.765625 61.835938 67.4375 61.332031 C 67.109375 60.828125 66.832031 60.300781 66.605469 59.746094 C 66.378906 59.1875 66.210938 58.617188 66.09375 58.027344 C 65.980469 57.4375 65.921875 56.84375 65.921875 56.242188 C 65.921875 55.640625 65.980469 55.046875 66.09375 54.457031 C 66.210938 53.871094 66.378906 53.296875 66.605469 52.742188 C 66.832031 52.183594 67.109375 51.65625 67.4375 51.152344 C 67.765625 50.652344 68.140625 50.183594 68.558594 49.753906 C 68.746094 49.582031 68.960938 49.445312 69.199219 49.351562 C 69.441406 49.257812 69.6875 49.214844 69.945312 49.214844 C 70.203125 49.214844 70.449219 49.257812 70.691406 49.351562 C 70.929688 49.445312 71.144531 49.582031 71.332031 49.753906 C 71.488281 49.945312 71.605469 50.152344 71.6875 50.382812 C 71.769531 50.613281 71.808594 50.851562 71.808594 51.097656 C 71.808594 51.339844 71.769531 51.578125 71.6875 51.808594 C 71.605469 52.039062 71.488281 52.246094 71.332031 52.4375 C 71.078125 52.6875 70.851562 52.957031 70.652344 53.25 C 70.453125 53.542969 70.28125 53.855469 70.144531 54.183594 C 70.007812 54.507812 69.902344 54.847656 69.832031 55.195312 C 69.761719 55.542969 69.726562 55.894531 69.726562 56.25 C 69.726562 56.605469 69.761719 56.957031 69.832031 57.304688 C 69.902344 57.65625 70.007812 57.992188 70.144531 58.320312 C 70.28125 58.648438 70.453125 58.957031 70.652344 59.25 C 70.851562 59.546875 71.078125 59.816406 71.332031 60.066406 C 71.488281 60.253906 71.605469 60.464844 71.6875 60.695312 C 71.769531 60.921875 71.808594 61.160156 71.808594 61.402344 C 71.808594 61.648438 71.769531 61.886719 71.6875 62.113281 C 71.605469 62.34375 71.488281 62.554688 71.332031 62.742188 C 70.953125 63.046875 70.519531 63.21875 70.035156 63.257812 Z M 70.035156 63.257812 " fill-opacity="1" fill-rule="nonzero"/><g clip-path="url(#fde90ede43)"><path fill="#000000" d="M 70.035156 73.550781 C 69.484375 73.542969 68.996094 73.367188 68.566406 73.023438 C 68.410156 72.835938 68.289062 72.625 68.207031 72.394531 C 68.125 72.164062 68.082031 71.929688 68.082031 71.683594 C 68.082031 71.4375 68.125 71.199219 68.207031 70.972656 C 68.289062 70.742188 68.410156 70.53125 68.566406 70.34375 C 68.820312 70.09375 69.046875 69.824219 69.246094 69.53125 C 69.445312 69.238281 69.617188 68.929688 69.753906 68.601562 C 69.890625 68.277344 69.996094 67.9375 70.066406 67.589844 C 70.136719 67.246094 70.171875 66.894531 70.171875 66.539062 C 70.171875 66.183594 70.136719 65.832031 70.066406 65.484375 C 69.996094 65.136719 69.890625 64.800781 69.753906 64.472656 C 69.617188 64.148438 69.445312 63.839844 69.246094 63.546875 C 69.046875 63.253906 68.820312 62.984375 68.566406 62.734375 C 68.410156 62.546875 68.289062 62.339844 68.203125 62.109375 C 68.121094 61.878906 68.078125 61.640625 68.078125 61.394531 C 68.078125 61.152344 68.121094 60.914062 68.203125 60.683594 C 68.289062 60.453125 68.410156 60.246094 68.566406 60.054688 C 68.753906 59.882812 68.96875 59.746094 69.207031 59.652344 C 69.445312 59.558594 69.691406 59.511719 69.949219 59.511719 C 70.207031 59.511719 70.453125 59.558594 70.691406 59.652344 C 70.933594 59.746094 71.144531 59.882812 71.332031 60.054688 C 71.761719 60.480469 72.140625 60.945312 72.476562 61.445312 C 72.8125 61.945312 73.09375 62.472656 73.328125 63.03125 C 73.558594 63.585938 73.734375 64.160156 73.851562 64.75 C 73.96875 65.339844 74.027344 65.9375 74.027344 66.539062 C 74.027344 67.144531 73.96875 67.738281 73.851562 68.332031 C 73.734375 68.921875 73.558594 69.496094 73.328125 70.050781 C 73.09375 70.609375 72.8125 71.136719 72.476562 71.636719 C 72.140625 72.136719 71.761719 72.601562 71.332031 73.023438 C 70.953125 73.332031 70.519531 73.507812 70.035156 73.550781 Z M 70.035156 73.550781 " fill-opacity="1" fill-rule="nonzero"/></g></svg>