<svg xmlns="http://www.w3.org/2000/svg" xmlns:xlink="http://www.w3.org/1999/xlink" width="150" zoomAndPan="magnify" viewBox="0 0 112.5 74.999997" height="100" preserveAspectRatio="xMidYMid meet" version="1.0"><defs><clipPath id="23ffa5608e"><path d="M 0 0.164062 L 112.003906 0.164062 L 112.003906 74.832031 L 0 74.832031 Z M 0 0.164062 " clip-rule="nonzero"/></clipPath><clipPath id="60c6edbc7c"><path d="M 9 2.730469 L 100 2.730469 L 100 46 L 9 46 Z M 9 2.730469 " clip-rule="nonzero"/></clipPath><clipPath id="744cfcdf51"><path d="M 36 59 L 43 59 L 43 73.664062 L 36 73.664062 Z M 36 59 " clip-rule="nonzero"/></clipPath><clipPath id="704fcbbd1c"><path d="M 52 59 L 59 59 L 59 73.664062 L 52 73.664062 Z M 52 59 " clip-rule="nonzero"/></clipPath><clipPath id="3e4c4f85d9"><path d="M 68 59 L 75 59 L 75 73.664062 L 68 73.664062 Z M 68 59 " clip-rule="nonzero"/></clipPath></defs><g clip-path="url(#23ffa5608e)"><path fill="#ffffff" d="M 0 0.164062 L 112.003906 0.164062 L 112.003906 74.835938 L 0 74.835938 Z M 0 0.164062 " fill-opacity="1" fill-rule="nonzero"/><path fill="#ffffff" d="M 0 0.164062 L 112.003906 0.164062 L 112.003906 74.835938 L 0 74.835938 Z M 0 0.164062 " fill-opacity="1" fill-rule="nonzero"/></g><g clip-path="url(#60c6edbc7c)"><path fill="#94dd26" d="M 94 2.535156 L 14.453125 2.535156 C 14.097656 2.539062 13.746094 2.574219 13.394531 2.644531 C 13.046875 2.71875 12.707031 2.820312 12.378906 2.957031 C 12.050781 3.097656 11.738281 3.265625 11.441406 3.460938 C 11.148438 3.660156 10.875 3.886719 10.621094 4.136719 C 10.371094 4.390625 10.144531 4.664062 9.945312 4.957031 C 9.75 5.253906 9.582031 5.566406 9.445312 5.894531 C 9.304688 6.222656 9.203125 6.5625 9.132812 6.910156 C 9.058594 7.257812 9.023438 7.613281 9.019531 7.96875 L 9.019531 39.996094 C 9.027344 40.351562 9.070312 40.699219 9.144531 41.042969 C 9.21875 41.386719 9.324219 41.722656 9.464844 42.046875 C 9.605469 42.371094 9.773438 42.679688 9.972656 42.96875 C 10.171875 43.261719 10.398438 43.53125 10.648438 43.777344 C 10.898438 44.023438 11.171875 44.246094 11.46875 44.441406 C 11.761719 44.636719 12.070312 44.800781 12.398438 44.933594 C 12.722656 45.066406 13.058594 45.171875 13.40625 45.238281 C 13.75 45.308594 14.101562 45.34375 14.453125 45.34375 L 94 45.34375 C 94.351562 45.34375 94.699219 45.308594 95.046875 45.238281 C 95.390625 45.167969 95.726562 45.066406 96.050781 44.933594 C 96.375 44.796875 96.683594 44.632812 96.976562 44.4375 C 97.269531 44.242188 97.539062 44.019531 97.789062 43.769531 C 98.039062 43.523438 98.261719 43.253906 98.457031 42.960938 C 98.65625 42.667969 98.820312 42.359375 98.957031 42.035156 C 99.09375 41.710938 99.199219 41.378906 99.269531 41.035156 C 99.339844 40.6875 99.378906 40.339844 99.382812 39.988281 L 99.382812 7.964844 C 99.382812 7.609375 99.347656 7.257812 99.277344 6.910156 C 99.207031 6.5625 99.105469 6.226562 98.972656 5.898438 C 98.835938 5.570312 98.671875 5.257812 98.476562 4.964844 C 98.28125 4.667969 98.054688 4.394531 97.808594 4.144531 C 97.558594 3.890625 97.285156 3.667969 96.992188 3.46875 C 96.699219 3.269531 96.390625 3.101562 96.0625 2.964844 C 95.734375 2.824219 95.398438 2.722656 95.050781 2.648438 C 94.707031 2.578125 94.355469 2.539062 94 2.535156 Z M 30.371094 13.59375 C 30.371094 13.339844 30.417969 13.101562 30.515625 12.867188 C 30.613281 12.636719 30.753906 12.433594 30.933594 12.261719 C 31.113281 12.085938 31.320312 11.953125 31.554688 11.863281 C 31.789062 11.773438 32.03125 11.730469 32.28125 11.742188 L 33.953125 11.742188 C 34.199219 11.746094 34.433594 11.796875 34.664062 11.894531 C 34.890625 11.988281 35.09375 12.121094 35.269531 12.292969 C 35.445312 12.464844 35.585938 12.664062 35.6875 12.886719 C 35.789062 13.109375 35.847656 13.347656 35.863281 13.59375 L 35.863281 15.261719 C 35.855469 15.515625 35.804688 15.757812 35.707031 15.988281 C 35.605469 16.21875 35.46875 16.421875 35.289062 16.601562 C 35.113281 16.78125 34.90625 16.917969 34.675781 17.015625 C 34.445312 17.113281 34.203125 17.167969 33.953125 17.171875 L 32.28125 17.171875 C 32.023438 17.179688 31.777344 17.140625 31.539062 17.046875 C 31.300781 16.949219 31.09375 16.8125 30.910156 16.632812 C 30.730469 16.453125 30.59375 16.242188 30.5 16.003906 C 30.40625 15.765625 30.363281 15.519531 30.371094 15.261719 Z M 22.558594 13.59375 C 22.570312 13.34375 22.628906 13.109375 22.730469 12.886719 C 22.832031 12.660156 22.972656 12.464844 23.148438 12.292969 C 23.328125 12.121094 23.53125 11.988281 23.757812 11.890625 C 23.984375 11.796875 24.222656 11.746094 24.46875 11.742188 L 26.140625 11.742188 C 26.390625 11.730469 26.632812 11.773438 26.867188 11.863281 C 27.097656 11.953125 27.304688 12.085938 27.484375 12.261719 C 27.664062 12.433594 27.804688 12.636719 27.902344 12.871094 C 27.996094 13.101562 28.046875 13.339844 28.042969 13.59375 L 28.042969 15.261719 C 28.054688 15.519531 28.011719 15.765625 27.917969 16.003906 C 27.824219 16.242188 27.6875 16.453125 27.507812 16.632812 C 27.328125 16.8125 27.117188 16.949219 26.878906 17.042969 C 26.640625 17.140625 26.394531 17.179688 26.140625 17.171875 L 24.46875 17.171875 C 24.214844 17.167969 23.976562 17.113281 23.742188 17.015625 C 23.511719 16.917969 23.308594 16.78125 23.128906 16.601562 C 22.953125 16.421875 22.8125 16.21875 22.714844 15.988281 C 22.617188 15.757812 22.5625 15.515625 22.558594 15.261719 Z M 83.949219 34.898438 L 24.46875 34.898438 C 24.207031 34.914062 23.957031 34.871094 23.714844 34.78125 C 23.46875 34.691406 23.253906 34.554688 23.066406 34.375 C 22.878906 34.199219 22.734375 33.988281 22.632812 33.75 C 22.527344 33.511719 22.476562 33.261719 22.476562 33 C 22.476562 32.742188 22.527344 32.492188 22.632812 32.253906 C 22.734375 32.015625 22.878906 31.804688 23.066406 31.625 C 23.253906 31.445312 23.46875 31.3125 23.714844 31.21875 C 23.957031 31.128906 24.207031 31.089844 24.46875 31.101562 L 83.949219 31.101562 C 84.191406 31.113281 84.425781 31.171875 84.648438 31.273438 C 84.871094 31.371094 85.066406 31.511719 85.234375 31.6875 C 85.402344 31.867188 85.53125 32.066406 85.625 32.292969 C 85.714844 32.519531 85.757812 32.757812 85.757812 33 C 85.757812 33.246094 85.714844 33.480469 85.625 33.707031 C 85.53125 33.933594 85.402344 34.136719 85.234375 34.3125 C 85.066406 34.492188 84.871094 34.628906 84.648438 34.730469 C 84.425781 34.832031 84.191406 34.890625 83.949219 34.898438 Z M 83.949219 26.941406 L 24.46875 26.941406 C 24.214844 26.941406 23.972656 26.890625 23.738281 26.796875 C 23.503906 26.699219 23.296875 26.5625 23.117188 26.382812 C 22.9375 26.203125 22.800781 25.996094 22.703125 25.761719 C 22.605469 25.527344 22.558594 25.285156 22.558594 25.03125 C 22.558594 24.777344 22.605469 24.535156 22.703125 24.300781 C 22.800781 24.066406 22.9375 23.859375 23.117188 23.679688 C 23.296875 23.503906 23.503906 23.363281 23.738281 23.265625 C 23.972656 23.171875 24.214844 23.121094 24.46875 23.121094 L 83.949219 23.121094 C 84.191406 23.136719 84.421875 23.199219 84.640625 23.300781 C 84.859375 23.40625 85.050781 23.546875 85.21875 23.722656 C 85.382812 23.902344 85.511719 24.101562 85.601562 24.328125 C 85.691406 24.554688 85.734375 24.789062 85.734375 25.03125 C 85.734375 25.273438 85.691406 25.507812 85.601562 25.734375 C 85.511719 25.960938 85.382812 26.160156 85.21875 26.339844 C 85.050781 26.515625 84.859375 26.65625 84.640625 26.761719 C 84.421875 26.863281 84.191406 26.925781 83.949219 26.941406 Z M 83.949219 26.941406 " fill-opacity="1" fill-rule="nonzero"/></g><path fill="#94dd26" d="M 38.351562 63.335938 C 37.851562 63.328125 37.421875 63.152344 37.054688 62.808594 C 36.628906 62.382812 36.25 61.917969 35.914062 61.417969 C 35.578125 60.914062 35.296875 60.386719 35.066406 59.828125 C 34.835938 59.273438 34.660156 58.695312 34.542969 58.105469 C 34.425781 57.515625 34.367188 56.917969 34.367188 56.3125 C 34.367188 55.710938 34.425781 55.113281 34.542969 54.519531 C 34.660156 53.929688 34.835938 53.355469 35.066406 52.796875 C 35.296875 52.238281 35.578125 51.710938 35.914062 51.207031 C 36.25 50.707031 36.628906 50.242188 37.054688 49.816406 C 37.226562 49.644531 37.425781 49.507812 37.652344 49.414062 C 37.878906 49.320312 38.113281 49.273438 38.355469 49.273438 C 38.601562 49.273438 38.835938 49.320312 39.058594 49.414062 C 39.285156 49.507812 39.484375 49.644531 39.65625 49.816406 C 39.847656 49.984375 39.996094 50.1875 40.101562 50.421875 C 40.207031 50.65625 40.261719 50.902344 40.261719 51.160156 C 40.261719 51.417969 40.207031 51.660156 40.101562 51.894531 C 39.996094 52.128906 39.847656 52.332031 39.65625 52.503906 C 39.417969 52.761719 39.210938 53.039062 39.023438 53.335938 C 38.839844 53.636719 38.6875 53.949219 38.558594 54.273438 C 38.433594 54.601562 38.335938 54.9375 38.273438 55.28125 C 38.207031 55.625 38.175781 55.972656 38.175781 56.320312 C 38.175781 56.671875 38.207031 57.019531 38.273438 57.363281 C 38.335938 57.707031 38.433594 58.042969 38.558594 58.367188 C 38.6875 58.695312 38.839844 59.007812 39.023438 59.304688 C 39.210938 59.601562 39.417969 59.882812 39.65625 60.140625 C 39.847656 60.308594 39.996094 60.511719 40.105469 60.746094 C 40.210938 60.980469 40.261719 61.222656 40.261719 61.480469 C 40.261719 61.738281 40.210938 61.984375 40.105469 62.21875 C 39.996094 62.453125 39.847656 62.652344 39.65625 62.824219 C 39.300781 63.195312 38.867188 63.367188 38.351562 63.335938 Z M 38.351562 63.335938 " fill-opacity="1" fill-rule="nonzero"/><g clip-path="url(#744cfcdf51)"><path fill="#94dd26" d="M 38.351562 73.644531 C 37.855469 73.632812 37.421875 73.457031 37.054688 73.117188 C 36.859375 72.949219 36.707031 72.746094 36.601562 72.507812 C 36.492188 72.273438 36.4375 72.023438 36.4375 71.765625 C 36.4375 71.507812 36.492188 71.257812 36.601562 71.023438 C 36.707031 70.785156 36.859375 70.585938 37.054688 70.414062 C 37.308594 70.167969 37.539062 69.894531 37.738281 69.601562 C 37.9375 69.308594 38.105469 69 38.242188 68.671875 C 38.382812 68.34375 38.484375 68.007812 38.554688 67.660156 C 38.625 67.3125 38.660156 66.960938 38.660156 66.605469 C 38.660156 66.25 38.625 65.898438 38.554688 65.550781 C 38.484375 65.203125 38.382812 64.867188 38.242188 64.539062 C 38.105469 64.210938 37.9375 63.902344 37.738281 63.609375 C 37.539062 63.316406 37.308594 63.046875 37.054688 62.796875 C 36.863281 62.628906 36.714844 62.425781 36.609375 62.191406 C 36.503906 61.957031 36.449219 61.714844 36.449219 61.457031 C 36.449219 61.199219 36.503906 60.953125 36.609375 60.71875 C 36.714844 60.484375 36.863281 60.285156 37.054688 60.113281 C 37.226562 59.941406 37.425781 59.804688 37.652344 59.710938 C 37.875 59.617188 38.113281 59.570312 38.355469 59.570312 C 38.601562 59.570312 38.835938 59.617188 39.058594 59.710938 C 39.285156 59.804688 39.484375 59.941406 39.65625 60.113281 C 40.082031 60.542969 40.460938 61.007812 40.796875 61.507812 C 41.128906 62.007812 41.414062 62.539062 41.644531 63.09375 C 41.875 63.652344 42.046875 64.226562 42.164062 64.816406 C 42.28125 65.410156 42.339844 66.003906 42.339844 66.609375 C 42.339844 67.210938 42.28125 67.808594 42.164062 68.398438 C 42.046875 68.988281 41.875 69.5625 41.644531 70.121094 C 41.414062 70.679688 41.128906 71.207031 40.796875 71.707031 C 40.460938 72.210938 40.082031 72.675781 39.65625 73.101562 C 39.304688 73.484375 38.871094 73.664062 38.351562 73.644531 Z M 38.351562 73.644531 " fill-opacity="1" fill-rule="nonzero"/></g><path fill="#94dd26" d="M 54.222656 63.335938 C 53.710938 63.367188 53.277344 63.191406 52.929688 62.808594 C 52.503906 62.382812 52.121094 61.917969 51.789062 61.417969 C 51.453125 60.914062 51.167969 60.386719 50.9375 59.828125 C 50.707031 59.273438 50.535156 58.695312 50.417969 58.105469 C 50.296875 57.515625 50.238281 56.917969 50.238281 56.3125 C 50.238281 55.710938 50.296875 55.113281 50.417969 54.519531 C 50.535156 53.929688 50.707031 53.355469 50.9375 52.796875 C 51.167969 52.238281 51.453125 51.710938 51.789062 51.207031 C 52.121094 50.707031 52.503906 50.242188 52.929688 49.816406 C 53.101562 49.640625 53.300781 49.507812 53.523438 49.414062 C 53.75 49.320312 53.984375 49.273438 54.230469 49.273438 C 54.472656 49.273438 54.707031 49.320312 54.933594 49.414062 C 55.15625 49.507812 55.355469 49.640625 55.527344 49.816406 C 55.71875 49.984375 55.871094 50.1875 55.976562 50.421875 C 56.082031 50.65625 56.132812 50.902344 56.132812 51.160156 C 56.132812 51.417969 56.082031 51.660156 55.976562 51.894531 C 55.871094 52.128906 55.71875 52.332031 55.527344 52.503906 C 55.273438 52.75 55.046875 53.023438 54.84375 53.316406 C 54.644531 53.609375 54.472656 53.921875 54.335938 54.25 C 54.199219 54.578125 54.09375 54.914062 54.023438 55.265625 C 53.953125 55.613281 53.917969 55.964844 53.917969 56.320312 C 53.917969 56.675781 53.953125 57.03125 54.023438 57.378906 C 54.09375 57.726562 54.199219 58.066406 54.335938 58.394531 C 54.472656 58.722656 54.644531 59.03125 54.84375 59.328125 C 55.046875 59.621094 55.273438 59.890625 55.527344 60.140625 C 55.71875 60.308594 55.871094 60.511719 55.976562 60.746094 C 56.082031 60.980469 56.132812 61.226562 56.132812 61.480469 C 56.132812 61.738281 56.082031 61.984375 55.976562 62.21875 C 55.871094 62.449219 55.71875 62.652344 55.527344 62.824219 C 55.160156 63.160156 54.726562 63.332031 54.222656 63.335938 Z M 54.222656 63.335938 " fill-opacity="1" fill-rule="nonzero"/><g clip-path="url(#704fcbbd1c)"><path fill="#94dd26" d="M 54.222656 73.644531 C 53.710938 73.667969 53.28125 73.492188 52.929688 73.117188 C 52.734375 72.949219 52.585938 72.746094 52.480469 72.511719 C 52.371094 72.277344 52.320312 72.03125 52.320312 71.773438 C 52.320312 71.515625 52.371094 71.269531 52.480469 71.035156 C 52.585938 70.800781 52.734375 70.601562 52.929688 70.429688 C 53.164062 70.171875 53.375 69.894531 53.558594 69.597656 C 53.742188 69.300781 53.898438 68.992188 54.023438 68.664062 C 54.148438 68.339844 54.246094 68.003906 54.308594 67.660156 C 54.371094 67.316406 54.40625 66.972656 54.40625 66.621094 C 54.40625 66.273438 54.371094 65.925781 54.308594 65.582031 C 54.246094 65.242188 54.148438 64.90625 54.023438 64.582031 C 53.898438 64.253906 53.742188 63.945312 53.558594 63.648438 C 53.375 63.351562 53.164062 63.074219 52.929688 62.8125 C 52.734375 62.644531 52.585938 62.445312 52.476562 62.210938 C 52.371094 61.976562 52.316406 61.730469 52.316406 61.472656 C 52.316406 61.214844 52.371094 60.96875 52.476562 60.734375 C 52.585938 60.5 52.734375 60.300781 52.929688 60.132812 C 53.101562 59.957031 53.300781 59.824219 53.523438 59.730469 C 53.75 59.632812 53.984375 59.585938 54.230469 59.585938 C 54.472656 59.585938 54.707031 59.632812 54.933594 59.730469 C 55.160156 59.824219 55.355469 59.957031 55.527344 60.132812 C 55.953125 60.558594 56.332031 61.023438 56.667969 61.523438 C 57.003906 62.027344 57.285156 62.554688 57.515625 63.113281 C 57.746094 63.667969 57.917969 64.242188 58.039062 64.832031 C 58.15625 65.425781 58.214844 66.023438 58.214844 66.625 C 58.214844 67.226562 58.15625 67.824219 58.039062 68.414062 C 57.917969 69.007812 57.746094 69.582031 57.515625 70.136719 C 57.285156 70.695312 57.003906 71.222656 56.667969 71.726562 C 56.332031 72.226562 55.953125 72.691406 55.527344 73.117188 C 55.160156 73.460938 54.726562 73.636719 54.222656 73.644531 Z M 54.222656 73.644531 " fill-opacity="1" fill-rule="nonzero"/></g><path fill="#94dd26" d="M 70.105469 63.335938 C 69.550781 63.332031 69.058594 63.15625 68.625 62.808594 C 68.207031 62.378906 67.832031 61.914062 67.503906 61.410156 C 67.175781 60.90625 66.898438 60.375 66.671875 59.820312 C 66.445312 59.261719 66.277344 58.6875 66.160156 58.097656 C 66.046875 57.507812 65.988281 56.914062 65.988281 56.3125 C 65.988281 55.710938 66.046875 55.117188 66.160156 54.527344 C 66.277344 53.9375 66.445312 53.363281 66.671875 52.808594 C 66.898438 52.25 67.175781 51.71875 67.503906 51.21875 C 67.832031 50.714844 68.207031 50.246094 68.625 49.816406 C 68.816406 49.640625 69.03125 49.507812 69.269531 49.414062 C 69.511719 49.320312 69.757812 49.273438 70.015625 49.273438 C 70.273438 49.273438 70.523438 49.320312 70.761719 49.414062 C 71 49.507812 71.214844 49.640625 71.40625 49.816406 C 71.558594 50.007812 71.675781 50.214844 71.757812 50.445312 C 71.839844 50.675781 71.882812 50.914062 71.882812 51.160156 C 71.882812 51.402344 71.839844 51.640625 71.757812 51.871094 C 71.675781 52.101562 71.558594 52.3125 71.40625 52.503906 C 71.152344 52.75 70.921875 53.023438 70.722656 53.316406 C 70.523438 53.609375 70.355469 53.921875 70.214844 54.25 C 70.078125 54.578125 69.972656 54.914062 69.902344 55.265625 C 69.832031 55.613281 69.796875 55.964844 69.796875 56.320312 C 69.796875 56.675781 69.832031 57.03125 69.902344 57.378906 C 69.972656 57.726562 70.078125 58.066406 70.214844 58.394531 C 70.355469 58.722656 70.523438 59.03125 70.722656 59.324219 C 70.921875 59.621094 71.152344 59.890625 71.40625 60.140625 C 71.558594 60.328125 71.675781 60.539062 71.757812 60.769531 C 71.839844 61 71.882812 61.238281 71.882812 61.480469 C 71.882812 61.726562 71.839844 61.960938 71.757812 62.191406 C 71.675781 62.421875 71.558594 62.632812 71.40625 62.824219 C 71.023438 63.128906 70.589844 63.300781 70.105469 63.335938 Z M 70.105469 63.335938 " fill-opacity="1" fill-rule="nonzero"/><g clip-path="url(#3e4c4f85d9)"><path fill="#94dd26" d="M 70.105469 73.644531 C 69.554688 73.632812 69.066406 73.460938 68.636719 73.117188 C 68.480469 72.929688 68.359375 72.71875 68.277344 72.488281 C 68.195312 72.257812 68.152344 72.019531 68.152344 71.773438 C 68.152344 71.527344 68.195312 71.292969 68.277344 71.058594 C 68.359375 70.828125 68.480469 70.621094 68.636719 70.429688 C 68.890625 70.183594 69.117188 69.914062 69.316406 69.621094 C 69.515625 69.328125 69.6875 69.015625 69.824219 68.691406 C 69.960938 68.363281 70.066406 68.023438 70.136719 67.675781 C 70.207031 67.328125 70.242188 66.976562 70.242188 66.621094 C 70.242188 66.269531 70.207031 65.917969 70.136719 65.566406 C 70.066406 65.21875 69.960938 64.882812 69.824219 64.554688 C 69.6875 64.230469 69.515625 63.917969 69.316406 63.625 C 69.117188 63.332031 68.890625 63.0625 68.636719 62.8125 C 68.476562 62.625 68.355469 62.417969 68.273438 62.1875 C 68.1875 61.957031 68.148438 61.71875 68.148438 61.472656 C 68.148438 61.226562 68.1875 60.988281 68.273438 60.757812 C 68.355469 60.527344 68.476562 60.320312 68.636719 60.132812 C 68.824219 59.957031 69.035156 59.820312 69.277344 59.726562 C 69.515625 59.632812 69.761719 59.585938 70.019531 59.585938 C 70.277344 59.585938 70.523438 59.632812 70.765625 59.726562 C 71.003906 59.820312 71.21875 59.957031 71.40625 60.132812 C 71.832031 60.558594 72.214844 61.019531 72.550781 61.523438 C 72.886719 62.023438 73.167969 62.550781 73.402344 63.109375 C 73.632812 63.667969 73.808594 64.242188 73.925781 64.832031 C 74.042969 65.425781 74.101562 66.019531 74.101562 66.625 C 74.101562 67.226562 74.042969 67.824219 73.925781 68.417969 C 73.808594 69.007812 73.632812 69.582031 73.402344 70.140625 C 73.167969 70.699219 72.886719 71.226562 72.550781 71.726562 C 72.214844 72.226562 71.832031 72.691406 71.40625 73.117188 C 71.027344 73.425781 70.59375 73.601562 70.105469 73.644531 Z M 70.105469 73.644531 " fill-opacity="1" fill-rule="nonzero"/></g></svg>