<svg xmlns="http://www.w3.org/2000/svg" xmlns:xlink="http://www.w3.org/1999/xlink" width="80" zoomAndPan="magnify" viewBox="0 0 60 67.92" height="80" preserveAspectRatio="xMidYMid meet" version="1.0"><defs><clipPath id="ccd8184021"><path d="M 0.0351562 0 L 59.964844 0 L 59.964844 59.929688 L 0.0351562 59.929688 Z M 0.0351562 0 " clip-rule="nonzero"/></clipPath><clipPath id="624ef79e55"><path d="M 2.097656 5.992188 L 57.535156 5.992188 L 57.535156 47.945312 L 2.097656 47.945312 Z M 2.097656 5.992188 " clip-rule="nonzero"/></clipPath></defs><g clip-path="url(#ccd8184021)"><path fill="#ffffff" d="M 0.0351562 0 L 59.964844 0 L 59.964844 59.929688 L 0.0351562 59.929688 Z M 0.0351562 0 " fill-opacity="1" fill-rule="nonzero"/><path fill="#ffffff" d="M 0.0351562 0 L 59.964844 0 L 59.964844 59.929688 L 0.0351562 59.929688 Z M 0.0351562 0 " fill-opacity="1" fill-rule="nonzero"/></g><g clip-path="url(#624ef79e55)"><path fill="#ffdd00" d="M 49.527344 19.941406 C 49.035156 19.941406 48.558594 19.992188 48.089844 20.074219 C 48.113281 19.800781 48.132812 19.523438 48.132812 19.242188 C 48.132812 14.238281 44.070312 10.175781 39.066406 10.175781 C 36.699219 10.175781 34.550781 11.09375 32.933594 12.578125 C 30.992188 8.679688 26.976562 5.992188 22.328125 5.992188 C 15.777344 5.992188 10.46875 11.300781 10.46875 17.847656 C 10.46875 18.589844 10.546875 19.316406 10.679688 20.019531 C 5.847656 20.609375 2.101562 24.714844 2.101562 29.707031 C 2.101562 35.097656 6.472656 39.46875 11.867188 39.46875 C 12.371094 39.46875 12.867188 39.417969 13.351562 39.34375 C 13.976562 44.136719 18.0625 47.839844 23.023438 47.839844 C 27.496094 47.839844 31.253906 44.832031 32.414062 40.734375 C 34.070312 42.523438 36.429688 43.652344 39.066406 43.652344 C 43.414062 43.652344 47.039062 40.59375 47.921875 36.507812 C 48.441406 36.613281 48.976562 36.679688 49.527344 36.679688 C 54.148438 36.679688 57.894531 32.933594 57.894531 28.308594 C 57.894531 23.6875 54.148438 19.941406 49.527344 19.941406 Z M 49.527344 19.941406 " fill-opacity="1" fill-rule="nonzero"/></g><path fill="#000000" d="M 25.769531 29.183594 C 25.664062 30.644531 25.121094 31.792969 24.144531 32.632812 C 23.167969 33.46875 21.878906 33.890625 20.28125 33.890625 C 18.535156 33.890625 17.160156 33.304688 16.15625 32.132812 C 15.15625 30.960938 14.65625 29.351562 14.65625 27.308594 L 14.65625 26.476562 C 14.65625 25.171875 14.886719 24.019531 15.347656 23.027344 C 15.808594 22.035156 16.46875 21.269531 17.328125 20.738281 C 18.1875 20.207031 19.183594 19.941406 20.320312 19.941406 C 21.894531 19.941406 23.160156 20.359375 24.121094 21.199219 C 25.082031 22.039062 25.636719 23.214844 25.789062 24.734375 L 22.976562 24.734375 C 22.910156 23.855469 22.664062 23.222656 22.242188 22.828125 C 21.820312 22.429688 21.179688 22.234375 20.316406 22.234375 C 19.382812 22.234375 18.683594 22.570312 18.214844 23.238281 C 17.75 23.90625 17.511719 24.941406 17.5 26.347656 L 17.5 27.371094 C 17.5 28.839844 17.722656 29.910156 18.171875 30.589844 C 18.617188 31.265625 19.320312 31.605469 20.28125 31.605469 C 21.148438 31.605469 21.796875 31.40625 22.226562 31.011719 C 22.652344 30.617188 22.898438 30.007812 22.960938 29.179688 L 25.769531 29.179688 Z M 25.769531 29.183594 " fill-opacity="1" fill-rule="nonzero"/><path fill="#000000" d="M 39.238281 27.222656 C 39.238281 28.558594 39.003906 29.730469 38.527344 30.738281 C 38.054688 31.746094 37.375 32.523438 36.492188 33.070312 C 35.609375 33.617188 34.597656 33.890625 33.453125 33.890625 C 32.324219 33.890625 31.316406 33.621094 30.429688 33.078125 C 29.542969 32.535156 28.855469 31.765625 28.367188 30.761719 C 27.882812 29.757812 27.636719 28.601562 27.628906 27.296875 L 27.628906 26.625 C 27.628906 25.289062 27.871094 24.113281 28.355469 23.097656 C 28.835938 22.082031 29.519531 21.300781 30.402344 20.757812 C 31.289062 20.214844 32.296875 19.941406 33.433594 19.941406 C 34.570312 19.941406 35.582031 20.214844 36.464844 20.757812 C 37.347656 21.300781 38.03125 22.082031 38.515625 23.097656 C 38.996094 24.113281 39.238281 25.285156 39.238281 26.617188 Z M 36.394531 26.605469 C 36.394531 25.183594 36.136719 24.101562 35.625 23.363281 C 35.113281 22.625 34.382812 22.253906 33.433594 22.253906 C 32.492188 22.253906 31.765625 22.617188 31.253906 23.347656 C 30.742188 24.078125 30.480469 25.148438 30.476562 26.5625 L 30.476562 27.222656 C 30.476562 28.609375 30.730469 29.6875 31.242188 30.449219 C 31.753906 31.214844 32.492188 31.597656 33.453125 31.597656 C 34.394531 31.597656 35.121094 31.226562 35.625 30.492188 C 36.132812 29.753906 36.386719 28.679688 36.394531 27.269531 Z M 36.394531 26.605469 " fill-opacity="1" fill-rule="nonzero"/><path fill="#000000" d="M 46.738281 33.882812 L 41.269531 33.882812 L 41.269531 32.679688 L 43.824219 30.441406 C 44.148438 30.15625 44.382812 29.890625 44.527344 29.648438 C 44.671875 29.402344 44.742188 29.210938 44.742188 29.078125 C 44.742188 28.585938 44.464844 28.34375 43.910156 28.34375 C 43.621094 28.34375 43.390625 28.433594 43.214844 28.613281 C 43.042969 28.796875 42.957031 29.023438 42.957031 29.300781 L 41.15625 29.300781 C 41.15625 28.628906 41.40625 28.0625 41.90625 27.601562 C 42.402344 27.144531 43.046875 26.914062 43.832031 26.914062 C 44.695312 26.914062 45.359375 27.101562 45.832031 27.476562 C 46.300781 27.851562 46.535156 28.382812 46.535156 29.074219 C 46.535156 29.480469 46.429688 29.851562 46.222656 30.191406 C 46.011719 30.527344 45.589844 30.949219 44.960938 31.453125 L 43.667969 32.496094 L 46.738281 32.496094 Z M 46.738281 33.882812 " fill-opacity="1" fill-rule="nonzero"/></svg>