<svg xmlns="http://www.w3.org/2000/svg" xmlns:xlink="http://www.w3.org/1999/xlink" width="150" zoomAndPan="magnify" viewBox="0 0 112.5 74.999997" height="100" preserveAspectRatio="xMidYMid meet" version="1.0"><defs><clipPath id="6283a355ad"><path d="M 0 0.164062 L 112.003906 0.164062 L 112.003906 74.832031 L 0 74.832031 Z M 0 0.164062 " clip-rule="nonzero"/></clipPath><clipPath id="0ca9a330a1"><path d="M 4.082031 0.164062 L 107.871094 0.164062 L 107.871094 69.605469 L 4.082031 69.605469 Z M 4.082031 0.164062 " clip-rule="nonzero"/></clipPath></defs><g clip-path="url(#6283a355ad)"><path fill="#ffffff" d="M 0 0.164062 L 112.003906 0.164062 L 112.003906 74.835938 L 0 74.835938 Z M 0 0.164062 " fill-opacity="1" fill-rule="nonzero"/><path fill="#ffffff" d="M 0 0.164062 L 112.003906 0.164062 L 112.003906 74.835938 L 0 74.835938 Z M 0 0.164062 " fill-opacity="1" fill-rule="nonzero"/></g><g clip-path="url(#0ca9a330a1)"><path fill="#94dd26" d="M 56 0.164062 C 43.496094 0.164062 32.664062 7.25 27.257812 17.609375 C 14.246094 19.011719 4.121094 30.023438 4.121094 43.398438 C 4.121094 57.726562 15.730469 69.339844 30.058594 69.339844 L 86.261719 69.339844 C 98.199219 69.339844 107.878906 59.660156 107.878906 47.722656 C 107.878906 36.308594 99.007812 27.058594 87.800781 26.257812 C 84.855469 11.382812 71.742188 0.164062 56 0.164062 Z M 38.140625 26.082031 C 41.714844 26.082031 44.585938 27.027344 46.761719 28.910156 C 47.761719 29.773438 48.535156 30.808594 49.132812 31.972656 C 49.332031 32.398438 49.488281 32.859375 49.488281 33.359375 C 49.488281 35.191406 48.003906 36.675781 46.171875 36.675781 C 44.714844 36.675781 43.476562 35.742188 43.03125 34.441406 C 43.03125 34.4375 42.941406 34.234375 42.902344 34.136719 C 42.6875 33.605469 42.394531 33.164062 42.023438 32.828125 C 41.175781 32.042969 39.878906 31.652344 38.140625 31.652344 C 36.371094 31.652344 35.078125 32.316406 34.257812 33.636719 C 33.433594 34.960938 33.003906 37.066406 32.964844 39.960938 L 32.964844 42.046875 C 32.960938 45.1875 33.347656 47.429688 34.136719 48.777344 C 34.929688 50.125 36.289062 50.804688 38.214844 50.804688 C 39.851562 50.804688 41.101562 50.421875 41.964844 49.65625 C 42.394531 49.269531 42.722656 48.769531 42.953125 48.160156 C 43.429688 46.894531 44.652344 46 46.085938 46 C 47.933594 46 49.429688 47.488281 49.429688 49.335938 C 49.429688 49.867188 49.304688 50.375 49.082031 50.820312 C 49.070312 50.847656 48.863281 51.246094 48.746094 51.429688 C 47.734375 53 46.320312 54.214844 44.488281 55.078125 C 42.65625 55.9375 40.5625 56.367188 38.214844 56.367188 C 34.347656 56.367188 31.296875 55.105469 29.070312 52.585938 C 26.84375 50.0625 25.734375 46.503906 25.734375 41.90625 L 25.734375 40.445312 C 25.734375 37.558594 26.242188 35.03125 27.246094 32.871094 C 28.25 30.707031 29.699219 29.035156 31.585938 27.855469 C 33.472656 26.671875 35.660156 26.082031 38.140625 26.082031 Z M 65.8125 26.105469 C 68.304688 26.105469 70.53125 26.695312 72.492188 27.878906 C 74.445312 29.066406 75.960938 30.753906 77.050781 32.945312 C 78.136719 35.136719 78.683594 37.652344 78.695312 40.484375 L 78.695312 41.84375 C 78.695312 44.714844 78.164062 47.261719 77.101562 49.46875 C 76.03125 51.683594 74.519531 53.386719 72.558594 54.578125 C 70.597656 55.777344 68.359375 56.367188 65.851562 56.367188 C 63.339844 56.367188 61.117188 55.792969 59.175781 54.636719 C 57.234375 53.484375 55.71875 51.835938 54.640625 49.691406 C 53.550781 47.546875 52.972656 45.089844 52.925781 42.308594 L 52.925781 40.644531 C 52.925781 37.761719 53.453125 35.222656 54.511719 33.011719 C 55.574219 30.808594 57.09375 29.101562 59.066406 27.90625 C 61.039062 26.703125 63.285156 26.105469 65.8125 26.105469 Z M 65.8125 31.660156 C 62.25 31.660156 60.375 34.332031 60.171875 39.675781 L 60.152344 41.84375 C 60.152344 44.730469 60.628906 46.945312 61.589844 48.5 C 62.550781 50.050781 63.964844 50.828125 65.851562 50.828125 C 67.644531 50.828125 69.027344 50.066406 70 48.542969 C 70.96875 47.019531 71.464844 44.820312 71.476562 41.964844 L 71.476562 40.613281 C 71.476562 37.6875 70.992188 35.460938 70.015625 33.941406 C 69.03125 32.425781 67.628906 31.660156 65.8125 31.660156 Z M 87.832031 39.074219 C 89.972656 39.074219 91.632812 39.542969 92.78125 40.476562 C 93.9375 41.410156 94.511719 42.753906 94.511719 44.503906 C 94.511719 45.585938 94.21875 46.574219 93.625 47.46875 C 93.035156 48.367188 91.730469 49.578125 89.707031 51.101562 L 88.617188 52.046875 L 92.746094 52.046875 C 93.941406 52.046875 94.910156 53.015625 94.910156 54.207031 C 94.910156 55.402344 93.941406 56.367188 92.746094 56.367188 L 84.167969 56.367188 C 82.941406 56.367188 81.9375 55.371094 81.9375 54.140625 C 81.9375 53.511719 82.203125 52.941406 82.625 52.535156 L 82.648438 52.519531 L 87.765625 47.722656 C 88.457031 47.089844 89.824219 45.871094 89.824219 44.640625 C 89.824219 43.550781 89.238281 42.882812 88.050781 42.882812 C 87.5 42.882812 87.0625 43.09375 86.742188 43.527344 C 86.566406 43.761719 86.441406 44.035156 86.363281 44.328125 C 86.355469 44.355469 86.339844 44.414062 86.339844 44.414062 C 86.097656 45.386719 85.222656 46.101562 84.175781 46.101562 C 82.949219 46.101562 81.957031 45.105469 81.949219 43.878906 C 81.957031 43.703125 81.949219 43.519531 82 43.347656 C 82.253906 42.394531 82.730469 41.554688 83.425781 40.816406 C 84.519531 39.660156 86.089844 39.082031 87.832031 39.074219 Z M 87.832031 39.074219 " fill-opacity="1" fill-rule="nonzero"/></g></svg>