<svg xmlns="http://www.w3.org/2000/svg" xmlns:xlink="http://www.w3.org/1999/xlink" width="200" zoomAndPan="magnify" viewBox="0 0 150 69.119995" height="82" preserveAspectRatio="xMidYMid meet" version="1.0"><defs><clipPath id="4602e1028c"><path d="M 0.941406 0 L 149.054688 0 L 149.054688 60.726562 L 0.941406 60.726562 Z M 0.941406 0 " clip-rule="nonzero"/></clipPath><clipPath id="28981a93bf"><path d="M 7.015625 2.5625 L 143.28125 2.5625 L 143.28125 58.105469 L 7.015625 58.105469 Z M 7.015625 2.5625 " clip-rule="nonzero"/></clipPath></defs><g clip-path="url(#4602e1028c)"><path fill="#ffffff" d="M 0.941406 0 L 149.058594 0 L 149.058594 60.726562 L 0.941406 60.726562 Z M 0.941406 0 " fill-opacity="1" fill-rule="nonzero"/><path fill="#ffffff" d="M 0.941406 0 L 149.058594 0 L 149.058594 60.726562 L 0.941406 60.726562 Z M 0.941406 0 " fill-opacity="1" fill-rule="nonzero"/></g><g clip-path="url(#28981a93bf)"><path fill="#ffdd00" d="M 115.28125 58.128906 L 35.050781 58.128906 C 19.621094 58.128906 7.113281 45.691406 7.113281 30.351562 C 7.113281 15.011719 19.621094 2.574219 35.050781 2.574219 L 115.285156 2.574219 C 130.710938 2.574219 143.222656 15.011719 143.222656 30.351562 C 143.21875 45.691406 130.710938 58.128906 115.28125 58.128906 Z M 115.28125 58.128906 " fill-opacity="1" fill-rule="nonzero"/></g><path fill="#ffffff" d="M 139.546875 30.351562 C 139.546875 31.160156 139.507812 31.964844 139.425781 32.769531 C 139.347656 33.570312 139.230469 34.367188 139.070312 35.160156 C 138.914062 35.953125 138.714844 36.734375 138.480469 37.507812 C 138.242188 38.277344 137.96875 39.039062 137.660156 39.785156 C 137.347656 40.53125 137.003906 41.257812 136.621094 41.96875 C 136.238281 42.683594 135.820312 43.375 135.367188 44.046875 C 134.917969 44.714844 134.433594 45.363281 133.917969 45.988281 C 133.40625 46.613281 132.859375 47.210938 132.285156 47.78125 C 131.710938 48.351562 131.109375 48.890625 130.484375 49.40625 C 129.855469 49.917969 129.203125 50.398438 128.53125 50.84375 C 127.855469 51.292969 127.160156 51.707031 126.441406 52.089844 C 125.726562 52.46875 124.992188 52.8125 124.242188 53.121094 C 123.492188 53.433594 122.730469 53.703125 121.953125 53.9375 C 121.175781 54.171875 120.390625 54.367188 119.59375 54.527344 C 118.796875 54.683594 117.996094 54.800781 117.1875 54.878906 C 116.378906 54.960938 115.570312 55 114.757812 55 C 113.945312 55 113.136719 54.960938 112.328125 54.878906 C 111.519531 54.800781 110.71875 54.683594 109.921875 54.527344 C 109.125 54.367188 108.339844 54.171875 107.5625 53.9375 C 106.785156 53.703125 106.019531 53.433594 105.269531 53.121094 C 104.519531 52.8125 103.789062 52.46875 103.070312 52.089844 C 102.355469 51.707031 101.660156 51.292969 100.984375 50.84375 C 100.308594 50.398438 99.660156 49.917969 99.03125 49.40625 C 98.402344 48.890625 97.804688 48.351562 97.230469 47.78125 C 96.65625 47.210938 96.109375 46.613281 95.59375 45.988281 C 95.078125 45.363281 94.597656 44.714844 94.144531 44.046875 C 93.695312 43.375 93.277344 42.683594 92.894531 41.96875 C 92.511719 41.257812 92.164062 40.53125 91.855469 39.785156 C 91.542969 39.039062 91.269531 38.277344 91.035156 37.507812 C 90.800781 36.734375 90.601562 35.953125 90.445312 35.160156 C 90.285156 34.367188 90.167969 33.570312 90.085938 32.769531 C 90.007812 31.964844 89.96875 31.160156 89.96875 30.351562 C 89.96875 29.542969 90.007812 28.738281 90.085938 27.9375 C 90.167969 27.132812 90.285156 26.335938 90.445312 25.542969 C 90.601562 24.75 90.800781 23.96875 91.035156 23.195312 C 91.269531 22.425781 91.542969 21.664062 91.855469 20.917969 C 92.164062 20.175781 92.511719 19.445312 92.894531 18.734375 C 93.277344 18.019531 93.695312 17.328125 94.144531 16.660156 C 94.597656 15.988281 95.078125 15.339844 95.59375 14.714844 C 96.109375 14.089844 96.65625 13.496094 97.230469 12.921875 C 97.804688 12.351562 98.402344 11.8125 99.03125 11.300781 C 99.660156 10.785156 100.308594 10.308594 100.984375 9.859375 C 101.660156 9.410156 102.355469 8.996094 103.070312 8.613281 C 103.789062 8.234375 104.519531 7.890625 105.269531 7.582031 C 106.019531 7.273438 106.785156 7 107.5625 6.765625 C 108.339844 6.53125 109.125 6.335938 109.921875 6.179688 C 110.71875 6.019531 111.519531 5.902344 112.328125 5.824219 C 113.136719 5.742188 113.945312 5.703125 114.757812 5.703125 C 115.570312 5.703125 116.378906 5.742188 117.1875 5.824219 C 117.996094 5.902344 118.796875 6.019531 119.59375 6.179688 C 120.390625 6.335938 121.175781 6.53125 121.953125 6.765625 C 122.730469 7 123.492188 7.273438 124.242188 7.582031 C 124.992188 7.890625 125.726562 8.234375 126.441406 8.613281 C 127.160156 8.996094 127.855469 9.410156 128.53125 9.859375 C 129.203125 10.308594 129.855469 10.785156 130.484375 11.300781 C 131.109375 11.8125 131.710938 12.351562 132.285156 12.921875 C 132.859375 13.496094 133.40625 14.089844 133.921875 14.714844 C 134.433594 15.339844 134.917969 15.988281 135.367188 16.660156 C 135.820312 17.328125 136.238281 18.019531 136.621094 18.734375 C 137.003906 19.445312 137.347656 20.175781 137.660156 20.917969 C 137.96875 21.664062 138.242188 22.425781 138.480469 23.195312 C 138.714844 23.96875 138.914062 24.75 139.070312 25.542969 C 139.230469 26.335938 139.347656 27.132812 139.425781 27.9375 C 139.507812 28.738281 139.546875 29.542969 139.546875 30.351562 Z M 139.546875 30.351562 " fill-opacity="1" fill-rule="nonzero"/><path fill="#ffffff" d="M 38.675781 23.191406 L 43.574219 23.191406 C 47.699219 23.191406 50.234375 25.734375 50.234375 30.035156 C 50.234375 34.699219 47.734375 37.507812 43.417969 37.507812 L 38.675781 37.507812 Z M 41.230469 35.5 L 43.375 35.5 C 46.175781 35.5 47.605469 33.484375 47.605469 30.085938 C 47.605469 27.140625 46.144531 25.238281 43.398438 25.238281 L 41.234375 25.238281 L 41.234375 35.5 Z M 41.230469 35.5 " fill-opacity="1" fill-rule="nonzero"/><path fill="#ffffff" d="M 54.855469 33.785156 L 53.707031 37.511719 L 51.199219 37.511719 C 51.667969 36.121094 55.171875 24.769531 55.699219 23.195312 L 58.96875 23.195312 L 63.691406 37.511719 L 61.007812 37.511719 L 59.796875 33.785156 Z M 59.269531 31.667969 C 58.261719 28.496094 57.589844 26.417969 57.277344 25.148438 L 57.25 25.148438 C 56.882812 26.777344 56.199219 29 55.363281 31.667969 Z M 59.269531 31.667969 " fill-opacity="1" fill-rule="nonzero"/><path fill="#ffffff" d="M 66.710938 37.511719 L 66.710938 32.027344 C 66.710938 31.871094 66.675781 31.71875 66.589844 31.59375 L 61.992188 23.191406 L 64.863281 23.191406 C 65.9375 25.378906 67.480469 28.375 68.101562 29.640625 C 69.101562 27.59375 70.328125 25.242188 71.347656 23.191406 L 74.007812 23.191406 L 69.359375 31.566406 C 69.28125 31.683594 69.253906 31.789062 69.253906 31.976562 L 69.253906 37.511719 Z M 66.710938 37.511719 " fill-opacity="1" fill-rule="nonzero"/><path fill="#ffdd00" d="M 122.535156 30.773438 C 122.535156 31.28125 122.484375 31.78125 122.382812 32.277344 C 122.285156 32.777344 122.136719 33.257812 121.941406 33.726562 C 121.746094 34.195312 121.507812 34.640625 121.222656 35.0625 C 120.941406 35.484375 120.617188 35.875 120.257812 36.234375 C 119.898438 36.59375 119.503906 36.914062 119.082031 37.195312 C 118.65625 37.476562 118.207031 37.714844 117.738281 37.910156 C 117.265625 38.101562 116.78125 38.25 116.28125 38.347656 C 115.78125 38.449219 115.273438 38.496094 114.765625 38.496094 C 114.253906 38.496094 113.75 38.449219 113.25 38.347656 C 112.75 38.25 112.261719 38.101562 111.792969 37.910156 C 111.320312 37.714844 110.871094 37.476562 110.449219 37.195312 C 110.023438 36.914062 109.632812 36.59375 109.269531 36.234375 C 108.910156 35.875 108.585938 35.484375 108.304688 35.0625 C 108.019531 34.640625 107.78125 34.195312 107.585938 33.726562 C 107.390625 33.257812 107.242188 32.777344 107.144531 32.277344 C 107.042969 31.78125 106.996094 31.28125 106.996094 30.773438 C 106.996094 30.265625 107.042969 29.761719 107.144531 29.265625 C 107.242188 28.769531 107.390625 28.285156 107.585938 27.816406 C 107.78125 27.347656 108.019531 26.902344 108.304688 26.480469 C 108.585938 26.058594 108.910156 25.667969 109.269531 25.308594 C 109.632812 24.953125 110.023438 24.632812 110.449219 24.347656 C 110.871094 24.066406 111.320312 23.828125 111.792969 23.636719 C 112.261719 23.441406 112.75 23.292969 113.25 23.195312 C 113.75 23.097656 114.253906 23.046875 114.765625 23.046875 C 115.273438 23.046875 115.78125 23.097656 116.28125 23.195312 C 116.78125 23.292969 117.265625 23.441406 117.738281 23.636719 C 118.207031 23.828125 118.65625 24.066406 119.082031 24.347656 C 119.503906 24.632812 119.898438 24.953125 120.257812 25.308594 C 120.617188 25.667969 120.941406 26.058594 121.222656 26.480469 C 121.507812 26.902344 121.746094 27.347656 121.941406 27.816406 C 122.136719 28.285156 122.285156 28.769531 122.382812 29.265625 C 122.484375 29.761719 122.535156 30.265625 122.535156 30.773438 Z M 122.535156 30.773438 " fill-opacity="1" fill-rule="nonzero"/><path fill="#ffdd00" d="M 114.273438 13.875 L 115.253906 13.875 L 115.253906 19.8125 L 114.273438 19.8125 Z M 114.273438 13.875 " fill-opacity="1" fill-rule="nonzero"/><path fill="#ffdd00" d="M 103.460938 18.152344 L 104.210938 17.527344 L 108.050781 22.078125 L 107.300781 22.703125 Z M 103.460938 18.152344 " fill-opacity="1" fill-rule="nonzero"/><path fill="#ffdd00" d="M 97.933594 28.324219 L 98.101562 27.367188 L 103.984375 28.390625 L 103.816406 29.351562 Z M 97.933594 28.324219 " fill-opacity="1" fill-rule="nonzero"/><path fill="#ffdd00" d="M 99.808594 38.820312 L 104.980469 35.84375 L 105.46875 36.683594 L 100.300781 39.664062 Z M 99.808594 38.820312 " fill-opacity="1" fill-rule="nonzero"/><path fill="#ffdd00" d="M 108.515625 46.496094 L 110.546875 40.910156 L 111.46875 41.242188 L 109.4375 46.828125 Z M 108.515625 46.496094 " fill-opacity="1" fill-rule="nonzero"/><path fill="#ffdd00" d="M 118.097656 41.226562 L 119.015625 40.890625 L 121.070312 46.46875 L 120.152344 46.800781 Z M 118.097656 41.226562 " fill-opacity="1" fill-rule="nonzero"/><path fill="#ffdd00" d="M 124.074219 36.648438 L 124.5625 35.800781 L 129.746094 38.757812 L 129.257812 39.601562 Z M 124.074219 36.648438 " fill-opacity="1" fill-rule="nonzero"/><path fill="#ffdd00" d="M 125.519531 28.359375 L 131.402344 27.308594 L 131.574219 28.265625 L 125.695312 29.316406 Z M 125.519531 28.359375 " fill-opacity="1" fill-rule="nonzero"/><path fill="#ffdd00" d="M 121.441406 22.039062 L 125.265625 17.476562 L 126.015625 18.097656 L 122.191406 22.664062 Z M 121.441406 22.039062 " fill-opacity="1" fill-rule="nonzero"/></svg>