<svg xmlns="http://www.w3.org/2000/svg" xmlns:xlink="http://www.w3.org/1999/xlink" width="200" zoomAndPan="magnify" viewBox="0 0 150 149.999998" height="200" preserveAspectRatio="xMidYMid meet" version="1.0"><defs><clipPath id="18e9c1b85a"><path d="M 4.421875 3.773438 L 144.671875 3.773438 L 144.671875 144 L 4.421875 144 Z M 4.421875 3.773438 " clip-rule="nonzero"/></clipPath></defs><rect x="-15" width="180" fill="#ffffff" y="-15" height="179.999997" fill-opacity="1"/><rect x="-15" width="180" fill="#ffffff" y="-15" height="179.999997" fill-opacity="1"/><g clip-path="url(#18e9c1b85a)"><path fill="#000000" d="M 140.074219 130.503906 C 140.074219 135.425781 136.070312 139.429688 131.152344 139.429688 L 17.738281 139.429688 C 12.816406 139.429688 8.8125 135.425781 8.8125 130.503906 L 8.8125 17.09375 C 8.8125 12.171875 12.816406 8.167969 17.738281 8.167969 L 131.152344 8.167969 C 136.070312 8.167969 140.074219 12.171875 140.074219 17.09375 Z M 131.152344 3.796875 L 17.738281 3.796875 C 10.40625 3.796875 4.445312 9.761719 4.445312 17.09375 L 4.445312 130.503906 C 4.445312 137.835938 10.40625 143.796875 17.738281 143.796875 L 131.152344 143.796875 C 138.480469 143.796875 144.445312 137.835938 144.445312 130.503906 L 144.445312 17.09375 C 144.445312 9.761719 138.480469 3.796875 131.152344 3.796875 " fill-opacity="1" fill-rule="nonzero"/></g><path fill="#000000" d="M 133.515625 130.503906 C 133.515625 131.808594 132.453125 132.867188 131.152344 132.867188 L 17.738281 132.867188 C 16.433594 132.867188 15.375 131.808594 15.375 130.503906 L 15.375 17.09375 C 15.375 15.789062 16.433594 14.726562 17.738281 14.726562 L 131.152344 14.726562 C 132.453125 14.726562 133.515625 15.789062 133.515625 17.09375 Z M 131.152344 12.105469 L 17.738281 12.105469 C 14.988281 12.105469 12.75 14.339844 12.75 17.09375 L 12.75 130.503906 C 12.75 133.253906 14.988281 135.492188 17.738281 135.492188 L 131.152344 135.492188 C 133.898438 135.492188 136.136719 133.253906 136.136719 130.503906 L 136.136719 17.09375 C 136.136719 14.339844 133.898438 12.105469 131.152344 12.105469 " fill-opacity="1" fill-rule="nonzero"/><path fill="#000000" d="M 111.867188 109.363281 L 103.476562 100.976562 C 103.667969 99.949219 103.769531 98.914062 103.769531 97.886719 C 103.769531 90.175781 92.671875 82.992188 85.324219 79.082031 C 86.066406 77.5625 86.5 75.867188 86.542969 74.074219 C 91.28125 74.164062 98.089844 75.167969 104.546875 79.277344 C 116.066406 86.605469 123.46875 83.574219 122.96875 73.097656 C 122.324219 59.609375 113.933594 48.882812 104.539062 45.554688 L 111.867188 38.230469 C 120.683594 47.503906 126.109375 60.023438 126.109375 73.796875 C 126.109375 87.574219 120.683594 100.09375 111.867188 109.363281 Z M 38.875 111.21875 L 47.265625 102.832031 C 48.296875 103.019531 49.328125 103.125 50.355469 103.125 C 58.066406 103.125 65.25 92.023438 69.160156 84.679688 C 70.683594 85.421875 72.375 85.855469 74.167969 85.894531 C 74.078125 90.632812 73.074219 97.445312 68.96875 103.898438 C 61.632812 115.421875 64.667969 122.824219 75.140625 122.324219 C 88.632812 121.679688 99.359375 113.285156 102.6875 103.894531 L 110.011719 111.21875 C 100.742188 120.035156 88.21875 125.464844 74.445312 125.464844 C 60.671875 125.464844 48.148438 120.035156 38.875 111.21875 Z M 22.777344 73.796875 C 22.777344 60.023438 28.207031 47.503906 37.023438 38.230469 L 45.410156 46.621094 C 45.222656 47.648438 45.121094 48.679688 45.121094 49.710938 C 45.121094 57.421875 56.21875 64.605469 63.5625 68.515625 C 62.820312 70.035156 62.386719 71.730469 62.347656 73.523438 C 57.605469 73.433594 50.800781 72.429688 44.34375 68.320312 C 32.824219 60.988281 25.417969 64.023438 25.917969 74.496094 C 26.5625 87.984375 34.953125 98.710938 44.347656 102.039062 L 37.023438 109.363281 C 28.207031 100.09375 22.777344 87.574219 22.777344 73.796875 Z M 79.742188 78.164062 C 79.527344 78.425781 79.292969 78.660156 79.042969 78.886719 C 78.707031 79.195312 78.335938 79.464844 77.9375 79.699219 C 76.914062 80.308594 75.722656 80.664062 74.445312 80.664062 C 71.835938 80.664062 69.566406 79.210938 68.40625 77.070312 C 68.089844 76.488281 67.855469 75.851562 67.714844 75.183594 C 67.625 74.734375 67.578125 74.273438 67.578125 73.796875 C 67.578125 70.003906 70.652344 66.929688 74.445312 66.929688 C 74.628906 66.929688 74.816406 66.945312 75 66.957031 C 75.851562 67.027344 76.65625 67.253906 77.394531 67.605469 C 78.105469 67.941406 78.75 68.394531 79.300781 68.941406 C 80.542969 70.183594 81.3125 71.902344 81.3125 73.796875 C 81.3125 73.984375 81.296875 74.171875 81.28125 74.351562 C 81.261719 74.632812 81.226562 74.914062 81.171875 75.183594 C 80.945312 76.300781 80.441406 77.316406 79.742188 78.164062 Z M 110.011719 36.375 L 101.625 44.765625 C 100.59375 44.574219 99.5625 44.472656 98.53125 44.472656 C 90.820312 44.472656 83.636719 55.574219 79.726562 62.914062 C 78.207031 62.175781 76.511719 61.742188 74.71875 61.699219 C 74.808594 56.960938 75.8125 50.152344 79.921875 43.695312 C 87.253906 32.175781 84.21875 24.773438 73.746094 25.273438 C 60.253906 25.917969 49.53125 34.308594 46.199219 43.699219 L 38.875 36.375 C 48.148438 27.558594 60.671875 22.132812 74.445312 22.132812 C 88.21875 22.132812 100.742188 27.558594 110.011719 36.375 Z M 74.445312 17.761719 C 43.546875 17.761719 18.40625 42.898438 18.40625 73.796875 C 18.40625 104.695312 43.546875 129.835938 74.445312 129.835938 C 105.34375 129.835938 130.480469 104.695312 130.480469 73.796875 C 130.480469 42.898438 105.34375 17.761719 74.445312 17.761719 " fill-opacity="1" fill-rule="nonzero"/><path fill="#000000" d="M 25.355469 29.65625 C 27.769531 29.65625 29.730469 27.699219 29.730469 25.285156 C 29.730469 22.871094 27.769531 20.914062 25.355469 20.914062 C 22.945312 20.914062 20.988281 22.871094 20.988281 25.285156 C 20.988281 27.699219 22.945312 29.65625 25.355469 29.65625 " fill-opacity="1" fill-rule="nonzero"/><path fill="#000000" d="M 25.355469 117.941406 C 22.945312 117.941406 20.988281 119.898438 20.988281 122.3125 C 20.988281 124.726562 22.945312 126.679688 25.355469 126.679688 C 27.769531 126.679688 29.730469 124.726562 29.730469 122.3125 C 29.730469 119.898438 27.769531 117.941406 25.355469 117.941406 " fill-opacity="1" fill-rule="nonzero"/><path fill="#000000" d="M 123.53125 29.65625 C 125.945312 29.65625 127.902344 27.699219 127.902344 25.285156 C 127.902344 22.871094 125.945312 20.914062 123.53125 20.914062 C 121.117188 20.914062 119.160156 22.871094 119.160156 25.285156 C 119.160156 27.699219 121.117188 29.65625 123.53125 29.65625 " fill-opacity="1" fill-rule="nonzero"/><path fill="#000000" d="M 123.53125 117.941406 C 121.117188 117.941406 119.160156 119.898438 119.160156 122.3125 C 119.160156 124.726562 121.117188 126.679688 123.53125 126.679688 C 125.945312 126.679688 127.902344 124.726562 127.902344 122.3125 C 127.902344 119.898438 125.945312 117.941406 123.53125 117.941406 " fill-opacity="1" fill-rule="nonzero"/></svg>