<svg xmlns="http://www.w3.org/2000/svg" xmlns:xlink="http://www.w3.org/1999/xlink" width="200" zoomAndPan="magnify" viewBox="0 0 150 149.999998" height="200" preserveAspectRatio="xMidYMid meet" version="1.0"><rect x="-15" width="180" fill="#ffffff" y="-15" height="179.999997" fill-opacity="1"/><rect x="-15" width="180" fill="#ffffff" y="-15" height="179.999997" fill-opacity="1"/><path fill="#000000" d="M 92.566406 75.3125 C 92.566406 75.882812 92.539062 76.453125 92.480469 77.019531 C 92.425781 77.589844 92.34375 78.152344 92.230469 78.714844 C 92.117188 79.273438 91.980469 79.828125 91.816406 80.375 C 91.648438 80.921875 91.457031 81.457031 91.238281 81.984375 C 91.019531 82.511719 90.777344 83.027344 90.507812 83.53125 C 90.238281 84.035156 89.945312 84.523438 89.625 85 C 89.308594 85.476562 88.96875 85.933594 88.605469 86.375 C 88.246094 86.816406 87.863281 87.238281 87.457031 87.644531 C 87.054688 88.046875 86.632812 88.429688 86.1875 88.792969 C 85.746094 89.15625 85.289062 89.496094 84.816406 89.8125 C 84.339844 90.128906 83.851562 90.421875 83.347656 90.691406 C 82.84375 90.960938 82.328125 91.203125 81.800781 91.421875 C 81.273438 91.640625 80.734375 91.832031 80.1875 92 C 79.640625 92.164062 79.089844 92.304688 78.527344 92.414062 C 77.96875 92.527344 77.402344 92.609375 76.835938 92.667969 C 76.265625 92.722656 75.695312 92.75 75.125 92.75 C 74.554688 92.75 73.984375 92.722656 73.417969 92.667969 C 72.847656 92.609375 72.285156 92.527344 71.722656 92.414062 C 71.164062 92.304688 70.609375 92.164062 70.0625 92 C 69.515625 91.832031 68.980469 91.640625 68.453125 91.421875 C 67.925781 91.203125 67.410156 90.960938 66.90625 90.691406 C 66.402344 90.421875 65.910156 90.128906 65.4375 89.8125 C 64.960938 89.496094 64.503906 89.15625 64.0625 88.792969 C 63.621094 88.429688 63.199219 88.046875 62.792969 87.644531 C 62.390625 87.238281 62.007812 86.816406 61.644531 86.375 C 61.28125 85.933594 60.941406 85.476562 60.625 85 C 60.308594 84.523438 60.015625 84.035156 59.746094 83.53125 C 59.476562 83.027344 59.230469 82.511719 59.011719 81.984375 C 58.796875 81.457031 58.601562 80.921875 58.4375 80.375 C 58.269531 79.828125 58.132812 79.273438 58.019531 78.714844 C 57.910156 78.152344 57.824219 77.589844 57.769531 77.019531 C 57.714844 76.453125 57.6875 75.882812 57.6875 75.3125 C 57.6875 74.738281 57.714844 74.167969 57.769531 73.601562 C 57.824219 73.03125 57.910156 72.46875 58.019531 71.910156 C 58.132812 71.347656 58.269531 70.796875 58.4375 70.25 C 58.601562 69.703125 58.796875 69.164062 59.011719 68.636719 C 59.230469 68.109375 59.476562 67.59375 59.746094 67.089844 C 60.015625 66.585938 60.308594 66.097656 60.625 65.621094 C 60.941406 65.148438 61.28125 64.6875 61.644531 64.246094 C 62.007812 63.804688 62.390625 63.382812 62.792969 62.980469 C 63.199219 62.574219 63.621094 62.191406 64.0625 61.828125 C 64.503906 61.46875 64.960938 61.128906 65.4375 60.808594 C 65.910156 60.492188 66.402344 60.199219 66.90625 59.929688 C 67.410156 59.660156 67.925781 59.417969 68.453125 59.199219 C 68.980469 58.980469 69.515625 58.789062 70.0625 58.621094 C 70.609375 58.457031 71.164062 58.316406 71.722656 58.207031 C 72.285156 58.09375 72.847656 58.011719 73.417969 57.957031 C 73.984375 57.898438 74.554688 57.871094 75.125 57.871094 C 75.695312 57.871094 76.265625 57.898438 76.835938 57.957031 C 77.402344 58.011719 77.96875 58.09375 78.527344 58.207031 C 79.089844 58.316406 79.640625 58.457031 80.1875 58.621094 C 80.734375 58.789062 81.273438 58.980469 81.800781 59.199219 C 82.328125 59.417969 82.84375 59.660156 83.347656 59.929688 C 83.851562 60.199219 84.339844 60.492188 84.816406 60.808594 C 85.289062 61.128906 85.746094 61.46875 86.1875 61.828125 C 86.632812 62.191406 87.054688 62.574219 87.457031 62.980469 C 87.863281 63.382812 88.246094 63.804688 88.605469 64.246094 C 88.96875 64.6875 89.308594 65.148438 89.625 65.621094 C 89.945312 66.097656 90.238281 66.585938 90.507812 67.089844 C 90.777344 67.59375 91.019531 68.109375 91.238281 68.636719 C 91.457031 69.164062 91.648438 69.703125 91.816406 70.25 C 91.980469 70.796875 92.117188 71.347656 92.230469 71.910156 C 92.34375 72.46875 92.425781 73.03125 92.480469 73.601562 C 92.539062 74.167969 92.566406 74.738281 92.566406 75.3125 Z M 92.566406 75.3125 " fill-opacity="1" fill-rule="nonzero"/><path fill="#000000" d="M 51.871094 75.3125 C 51.871094 71.945312 52.621094 68.765625 53.917969 65.875 C 40.207031 59.964844 35.324219 53.34375 31.632812 48.300781 C 28.574219 44.121094 25.929688 40.511719 19.863281 40.511719 C 16.535156 40.511719 11.894531 41.832031 8.703125 48.117188 C 2.734375 59.875 5.371094 82.984375 11.703125 91.640625 C 14.621094 95.632812 18.882812 97.925781 24.371094 98.453125 C 25.167969 98.527344 25.976562 98.570312 26.800781 98.570312 C 36.378906 98.570312 47.582031 93.574219 55.808594 88.234375 C 53.324219 84.53125 51.871094 80.089844 51.871094 75.3125 Z M 51.871094 75.3125 " fill-opacity="1" fill-rule="nonzero"/><path fill="#000000" d="M 75.125 52.058594 C 78.519531 52.058594 81.722656 52.832031 84.636719 54.144531 C 90.546875 40.429688 97.167969 35.546875 102.214844 31.855469 C 106.394531 28.792969 110.003906 26.152344 110.003906 20.085938 C 110.003906 16.753906 108.6875 12.113281 102.402344 8.921875 C 90.625 2.949219 67.535156 5.59375 58.878906 11.921875 C 54.890625 14.835938 52.597656 19.089844 52.070312 24.574219 C 51.097656 34.601562 56.460938 47.046875 62.238281 55.976562 C 65.933594 53.511719 70.359375 52.058594 75.125 52.058594 Z M 75.125 52.058594 " fill-opacity="1" fill-rule="nonzero"/><path fill="#000000" d="M 138.542969 59.0625 C 135.628906 55.070312 131.367188 52.777344 125.882812 52.253906 C 115.929688 51.3125 103.429688 56.667969 94.472656 62.453125 C 96.929688 66.136719 98.378906 70.554688 98.378906 75.3125 C 98.378906 78.699219 97.613281 81.902344 96.304688 84.808594 C 110.035156 90.722656 114.929688 97.355469 118.621094 102.402344 C 121.683594 106.582031 124.324219 110.191406 130.386719 110.191406 C 133.71875 110.191406 138.363281 108.871094 141.554688 102.582031 C 147.519531 90.820312 144.878906 67.71875 138.542969 59.0625 Z M 138.542969 59.0625 " fill-opacity="1" fill-rule="nonzero"/><path fill="#000000" d="M 75.125 98.5625 C 71.738281 98.5625 68.535156 97.796875 65.625 96.488281 C 59.714844 110.21875 53.082031 115.113281 48.035156 118.804688 C 43.855469 121.871094 40.246094 124.507812 40.246094 130.570312 C 40.246094 133.902344 41.566406 138.542969 47.851562 141.734375 C 52.441406 144.0625 58.75 145.082031 65.261719 145.082031 C 75.433594 145.082031 86.089844 142.59375 91.375 138.726562 C 95.367188 135.816406 97.65625 131.554688 98.179688 126.066406 C 99.144531 116.027344 93.785156 103.574219 87.996094 94.652344 C 84.3125 97.117188 79.886719 98.5625 75.125 98.5625 Z M 75.125 98.5625 " fill-opacity="1" fill-rule="nonzero"/></svg>