<svg xmlns="http://www.w3.org/2000/svg" xmlns:xlink="http://www.w3.org/1999/xlink" width="200" zoomAndPan="magnify" viewBox="0 0 150 149.999998" height="200" preserveAspectRatio="xMidYMid meet" version="1.0"><rect x="-15" width="180" fill="#ffffff" y="-15" height="179.999997" fill-opacity="1"/><rect x="-15" width="180" fill="#ffffff" y="-15" height="179.999997" fill-opacity="1"/><path fill="#94dd26" d="M 92.769531 75.476562 C 92.769531 76.050781 92.742188 76.621094 92.6875 77.191406 C 92.628906 77.761719 92.546875 78.328125 92.433594 78.886719 C 92.320312 79.449219 92.183594 80.003906 92.015625 80.550781 C 91.851562 81.101562 91.660156 81.636719 91.4375 82.167969 C 91.21875 82.695312 90.976562 83.214844 90.707031 83.71875 C 90.4375 84.222656 90.140625 84.714844 89.824219 85.1875 C 89.507812 85.664062 89.164062 86.125 88.800781 86.566406 C 88.4375 87.007812 88.054688 87.433594 87.648438 87.839844 C 87.246094 88.242188 86.820312 88.625 86.378906 88.988281 C 85.9375 89.351562 85.476562 89.695312 85 90.011719 C 84.527344 90.328125 84.035156 90.625 83.53125 90.894531 C 83.023438 91.164062 82.507812 91.40625 81.980469 91.625 C 81.449219 91.847656 80.914062 92.039062 80.363281 92.203125 C 79.816406 92.371094 79.261719 92.511719 78.699219 92.621094 C 78.140625 92.734375 77.574219 92.816406 77.003906 92.875 C 76.433594 92.929688 75.863281 92.957031 75.289062 92.957031 C 74.71875 92.957031 74.148438 92.929688 73.578125 92.875 C 73.007812 92.816406 72.441406 92.734375 71.878906 92.621094 C 71.320312 92.511719 70.765625 92.371094 70.214844 92.203125 C 69.667969 92.039062 69.128906 91.847656 68.601562 91.625 C 68.074219 91.40625 67.554688 91.164062 67.050781 90.894531 C 66.546875 90.625 66.054688 90.328125 65.578125 90.011719 C 65.105469 89.695312 64.644531 89.351562 64.203125 88.988281 C 63.757812 88.625 63.335938 88.242188 62.929688 87.839844 C 62.527344 87.433594 62.140625 87.007812 61.777344 86.566406 C 61.414062 86.125 61.074219 85.664062 60.757812 85.1875 C 60.4375 84.714844 60.144531 84.222656 59.875 83.71875 C 59.605469 83.214844 59.359375 82.695312 59.140625 82.167969 C 58.921875 81.636719 58.730469 81.101562 58.5625 80.550781 C 58.398438 80.003906 58.257812 79.449219 58.148438 78.886719 C 58.035156 78.328125 57.953125 77.761719 57.894531 77.191406 C 57.839844 76.621094 57.8125 76.050781 57.8125 75.476562 C 57.8125 74.90625 57.839844 74.335938 57.894531 73.765625 C 57.953125 73.195312 58.035156 72.628906 58.148438 72.066406 C 58.257812 71.507812 58.398438 70.953125 58.5625 70.402344 C 58.730469 69.855469 58.921875 69.316406 59.140625 68.789062 C 59.359375 68.261719 59.605469 67.742188 59.875 67.238281 C 60.144531 66.734375 60.4375 66.242188 60.757812 65.765625 C 61.074219 65.292969 61.414062 64.832031 61.777344 64.390625 C 62.140625 63.945312 62.527344 63.523438 62.929688 63.117188 C 63.335938 62.714844 63.757812 62.328125 64.203125 61.964844 C 64.644531 61.601562 65.105469 61.261719 65.578125 60.945312 C 66.054688 60.625 66.546875 60.332031 67.050781 60.0625 C 67.554688 59.792969 68.074219 59.546875 68.601562 59.328125 C 69.128906 59.109375 69.667969 58.917969 70.214844 58.75 C 70.765625 58.585938 71.320312 58.445312 71.878906 58.335938 C 72.441406 58.222656 73.007812 58.140625 73.578125 58.082031 C 74.148438 58.027344 74.71875 58 75.289062 58 C 75.863281 58 76.433594 58.027344 77.003906 58.082031 C 77.574219 58.140625 78.140625 58.222656 78.699219 58.335938 C 79.261719 58.445312 79.816406 58.585938 80.363281 58.75 C 80.914062 58.917969 81.449219 59.109375 81.980469 59.328125 C 82.507812 59.546875 83.023438 59.792969 83.53125 60.0625 C 84.035156 60.332031 84.527344 60.625 85 60.945312 C 85.476562 61.261719 85.9375 61.601562 86.378906 61.964844 C 86.820312 62.328125 87.246094 62.714844 87.648438 63.117188 C 88.054688 63.523438 88.4375 63.945312 88.800781 64.390625 C 89.164062 64.832031 89.507812 65.292969 89.824219 65.765625 C 90.140625 66.242188 90.4375 66.734375 90.707031 67.238281 C 90.976562 67.742188 91.21875 68.261719 91.4375 68.789062 C 91.660156 69.316406 91.851562 69.855469 92.015625 70.402344 C 92.183594 70.953125 92.320312 71.507812 92.433594 72.066406 C 92.546875 72.628906 92.628906 73.195312 92.6875 73.765625 C 92.742188 74.335938 92.769531 74.90625 92.769531 75.476562 Z M 92.769531 75.476562 " fill-opacity="1" fill-rule="nonzero"/><path fill="#94dd26" d="M 51.984375 75.476562 C 51.984375 72.105469 52.738281 68.917969 54.035156 66.023438 C 40.292969 60.097656 35.398438 53.460938 31.695312 48.410156 C 28.632812 44.21875 25.980469 40.601562 19.90625 40.601562 C 16.566406 40.601562 11.917969 41.921875 8.71875 48.222656 C 2.734375 60.007812 5.378906 83.167969 11.722656 91.84375 C 14.648438 95.847656 18.917969 98.144531 24.421875 98.671875 C 25.21875 98.75 26.027344 98.789062 26.855469 98.789062 C 36.457031 98.789062 47.683594 93.785156 55.929688 88.429688 C 53.441406 84.71875 51.984375 80.265625 51.984375 75.476562 Z M 51.984375 75.476562 " fill-opacity="1" fill-rule="nonzero"/><path fill="#94dd26" d="M 75.289062 52.171875 C 78.691406 52.171875 81.902344 52.949219 84.824219 54.265625 C 90.746094 40.519531 97.382812 35.625 102.441406 31.925781 C 106.632812 28.855469 110.25 26.210938 110.25 20.128906 C 110.25 16.789062 108.925781 12.140625 102.628906 8.941406 C 90.824219 2.949219 67.679688 5.601562 59.003906 11.945312 C 55.007812 14.867188 52.714844 19.128906 52.183594 24.625 C 51.210938 34.675781 56.582031 47.148438 62.375 56.097656 C 66.078125 53.628906 70.511719 52.171875 75.289062 52.171875 Z M 75.289062 52.171875 " fill-opacity="1" fill-rule="nonzero"/><path fill="#94dd26" d="M 138.851562 59.191406 C 135.933594 55.191406 131.660156 52.894531 126.160156 52.371094 C 116.1875 51.425781 103.660156 56.792969 94.679688 62.589844 C 97.144531 66.285156 98.597656 70.710938 98.597656 75.476562 C 98.597656 78.875 97.828125 82.085938 96.515625 85 C 110.277344 90.925781 115.183594 97.570312 118.882812 102.628906 C 121.953125 106.820312 124.597656 110.4375 130.675781 110.4375 C 134.015625 110.4375 138.671875 109.113281 141.867188 102.808594 C 147.847656 91.023438 145.203125 67.867188 138.851562 59.191406 Z M 138.851562 59.191406 " fill-opacity="1" fill-rule="nonzero"/><path fill="#94dd26" d="M 75.289062 98.785156 C 71.894531 98.785156 68.683594 98.015625 65.769531 96.703125 C 59.84375 110.464844 53.195312 115.371094 48.140625 119.070312 C 43.949219 122.140625 40.332031 124.789062 40.332031 130.863281 C 40.332031 134.203125 41.65625 138.851562 47.953125 142.050781 C 52.554688 144.386719 58.878906 145.40625 65.402344 145.40625 C 75.597656 145.40625 86.277344 142.914062 91.574219 139.039062 C 95.578125 136.121094 97.875 131.847656 98.398438 126.347656 C 99.367188 116.285156 93.992188 103.804688 88.191406 94.863281 C 84.496094 97.332031 80.0625 98.785156 75.289062 98.785156 Z M 75.289062 98.785156 " fill-opacity="1" fill-rule="nonzero"/></svg>