<svg xmlns="http://www.w3.org/2000/svg" xmlns:xlink="http://www.w3.org/1999/xlink" width="80" zoomAndPan="magnify" viewBox="0 0 60 67.92" height="80" preserveAspectRatio="xMidYMid meet" version="1.0"><defs><clipPath id="f4d752453b"><path d="M 0.0351562 0 L 59.964844 0 L 59.964844 59.929688 L 0.0351562 59.929688 Z M 0.0351562 0 " clip-rule="nonzero"/></clipPath><clipPath id="598b94e477"><path d="M 8.988281 1.980469 L 46 1.980469 L 46 58 L 8.988281 58 Z M 8.988281 1.980469 " clip-rule="nonzero"/></clipPath><clipPath id="79fc390ce7"><path d="M 29 19 L 53.933594 19 L 53.933594 44 L 29 44 Z M 29 19 " clip-rule="nonzero"/></clipPath></defs><g clip-path="url(#f4d752453b)"><path fill="#ffffff" d="M 0.0351562 0 L 59.964844 0 L 59.964844 59.929688 L 0.0351562 59.929688 Z M 0.0351562 0 " fill-opacity="1" fill-rule="nonzero"/><path fill="#ffffff" d="M 0.0351562 0 L 59.964844 0 L 59.964844 59.929688 L 0.0351562 59.929688 Z M 0.0351562 0 " fill-opacity="1" fill-rule="nonzero"/></g><g clip-path="url(#598b94e477)"><path fill="#427db8" d="M 27.816406 57.996094 C 35.402344 57.996094 41.9375 53.710938 44.917969 47.539062 C 45.066406 47.234375 45.035156 46.90625 44.835938 46.636719 C 44.636719 46.367188 44.328125 46.242188 44 46.292969 C 43.230469 46.414062 42.445312 46.476562 41.640625 46.476562 C 33.304688 46.476562 26.546875 39.714844 26.546875 31.378906 C 26.546875 25.164062 30.296875 19.832031 35.65625 17.515625 C 35.894531 17.414062 36.054688 17.238281 36.136719 16.996094 C 36.222656 16.753906 36.203125 16.515625 36.082031 16.289062 L 28.449219 2.347656 C 28.324219 2.117188 28.089844 1.980469 27.816406 1.980469 C 27.546875 1.980469 27.308594 2.117188 27.183594 2.347656 L 10.929688 32.058594 C 9.691406 34.460938 8.988281 37.15625 8.988281 40.019531 C 8.988281 49.945312 17.421875 57.996094 27.816406 57.996094 Z M 23.804688 14.253906 C 21.300781 19.183594 17.765625 26.472656 16.203125 30.550781 C 14.273438 34.769531 19.5 36.382812 20.730469 32.140625 L 25.542969 14.757812 C 25.65625 14.339844 25.332031 13.925781 24.898438 13.800781 C 24.464844 13.675781 24.003906 13.867188 23.804688 14.253906 Z M 23.804688 14.253906 " fill-opacity="1" fill-rule="evenodd"/></g><g clip-path="url(#79fc390ce7)"><path fill="#ffdd00" d="M 41.640625 19.207031 C 48.367188 19.207031 53.816406 24.65625 53.816406 31.378906 C 53.816406 38.097656 48.367188 43.550781 41.640625 43.550781 C 34.921875 43.550781 29.46875 38.097656 29.46875 31.378906 C 29.46875 24.65625 34.921875 19.207031 41.640625 19.207031 Z M 46.625 31.675781 L 47.53125 31.675781 C 48.167969 31.675781 48.75 31.9375 49.167969 32.355469 C 49.585938 32.773438 49.847656 33.355469 49.847656 33.992188 L 49.847656 36.421875 C 49.847656 37.058594 49.585938 37.640625 49.167969 38.058594 C 48.75 38.476562 48.167969 38.738281 47.53125 38.738281 L 46.625 38.738281 C 45.988281 38.738281 45.410156 38.476562 44.992188 38.058594 C 44.570312 37.640625 44.3125 37.058594 44.3125 36.421875 L 44.3125 33.992188 C 44.3125 33.355469 44.570312 32.773438 44.992188 32.355469 C 45.410156 31.9375 45.988281 31.675781 46.625 31.675781 Z M 43.988281 24.785156 C 44.339844 24.175781 45.113281 23.96875 45.71875 24.316406 C 46.328125 24.667969 46.53125 25.449219 46.179688 26.050781 L 39.296875 37.980469 C 38.945312 38.582031 38.171875 38.789062 37.566406 38.4375 C 36.960938 38.089844 36.753906 37.308594 37.105469 36.707031 Z M 35.757812 24.019531 L 36.660156 24.019531 C 37.300781 24.019531 37.875 24.28125 38.296875 24.699219 C 38.71875 25.117188 38.972656 25.699219 38.972656 26.335938 L 38.972656 28.765625 C 38.972656 29.402344 38.71875 29.980469 38.296875 30.402344 C 37.875 30.820312 37.300781 31.082031 36.660156 31.082031 L 35.757812 31.082031 C 35.117188 31.082031 34.539062 30.820312 34.121094 30.402344 C 33.703125 29.980469 33.441406 29.402344 33.441406 28.765625 L 33.441406 26.335938 C 33.441406 25.699219 33.703125 25.117188 34.121094 24.699219 C 34.539062 24.28125 35.117188 24.019531 35.757812 24.019531 Z M 36.660156 25.828125 L 35.757812 25.828125 C 35.621094 25.828125 35.488281 25.886719 35.402344 25.980469 C 35.308594 26.070312 35.25 26.199219 35.25 26.335938 L 35.25 28.765625 C 35.25 28.90625 35.308594 29.03125 35.402344 29.125 C 35.488281 29.214844 35.621094 29.269531 35.757812 29.269531 L 36.660156 29.269531 C 36.796875 29.269531 36.929688 29.214844 37.015625 29.125 C 37.113281 29.03125 37.167969 28.90625 37.167969 28.765625 L 37.167969 26.335938 C 37.167969 26.199219 37.113281 26.070312 37.015625 25.980469 C 36.929688 25.886719 36.796875 25.828125 36.660156 25.828125 Z M 47.53125 33.488281 L 46.625 33.488281 C 46.488281 33.488281 46.359375 33.542969 46.269531 33.632812 C 46.175781 33.726562 46.117188 33.851562 46.117188 33.992188 L 46.117188 36.421875 C 46.117188 36.5625 46.175781 36.6875 46.269531 36.78125 C 46.359375 36.871094 46.488281 36.929688 46.625 36.929688 L 47.53125 36.929688 C 47.671875 36.929688 47.796875 36.871094 47.886719 36.78125 C 47.980469 36.6875 48.035156 36.5625 48.035156 36.421875 L 48.035156 33.992188 C 48.035156 33.851562 47.980469 33.726562 47.886719 33.632812 C 47.796875 33.542969 47.671875 33.488281 47.53125 33.488281 Z M 47.53125 33.488281 " fill-opacity="1" fill-rule="evenodd"/></g></svg>