<svg xmlns="http://www.w3.org/2000/svg" xmlns:xlink="http://www.w3.org/1999/xlink" width="200" zoomAndPan="magnify" viewBox="0 0 150 149.999998" height="200" preserveAspectRatio="xMidYMid meet" version="1.0"><defs><clipPath id="bc86c8586d"><path d="M 25.363281 4.96875 L 124.363281 4.96875 L 124.363281 145.21875 L 25.363281 145.21875 Z M 25.363281 4.96875 " clip-rule="nonzero"/></clipPath></defs><rect x="-15" width="180" fill="#ffffff" y="-15" height="179.999997" fill-opacity="1"/><rect x="-15" width="180" fill="#ffffff" y="-15" height="179.999997" fill-opacity="1"/><g clip-path="url(#bc86c8586d)"><path fill="#000000" d="M 74.820312 4.925781 C 74.433594 4.933594 74.0625 5.011719 73.710938 5.167969 C 73.355469 5.320312 73.046875 5.535156 72.777344 5.8125 C 72.507812 6.089844 72.300781 6.410156 72.160156 6.769531 C 72.019531 7.128906 71.949219 7.503906 71.953125 7.890625 L 71.953125 25.421875 C 71.949219 25.8125 72.019531 26.1875 72.164062 26.550781 C 72.308594 26.914062 72.519531 27.234375 72.792969 27.515625 C 73.066406 27.792969 73.382812 28.007812 73.742188 28.15625 C 74.101562 28.308594 74.476562 28.382812 74.863281 28.382812 C 75.253906 28.382812 75.628906 28.308594 75.988281 28.15625 C 76.347656 28.007812 76.664062 27.792969 76.9375 27.515625 C 77.210938 27.234375 77.417969 26.914062 77.566406 26.550781 C 77.710938 26.1875 77.78125 25.8125 77.773438 25.421875 L 77.773438 7.890625 C 77.78125 7.496094 77.707031 7.113281 77.558594 6.75 C 77.414062 6.382812 77.199219 6.058594 76.921875 5.78125 C 76.640625 5.503906 76.320312 5.289062 75.957031 5.140625 C 75.589844 4.992188 75.210938 4.921875 74.820312 4.925781 Z M 95.855469 9.585938 C 95.269531 9.570312 94.730469 9.722656 94.238281 10.035156 C 93.742188 10.347656 93.378906 10.773438 93.136719 11.308594 L 85.753906 27.195312 C 85.585938 27.546875 85.492188 27.917969 85.472656 28.308594 C 85.453125 28.695312 85.507812 29.074219 85.640625 29.441406 C 85.769531 29.808594 85.964844 30.136719 86.226562 30.425781 C 86.488281 30.714844 86.796875 30.941406 87.148438 31.105469 C 87.5 31.273438 87.871094 31.363281 88.257812 31.378906 C 88.648438 31.394531 89.023438 31.335938 89.386719 31.199219 C 89.753906 31.0625 90.078125 30.863281 90.359375 30.597656 C 90.644531 30.332031 90.867188 30.023438 91.027344 29.667969 L 98.410156 13.777344 C 98.519531 13.558594 98.59375 13.328125 98.644531 13.089844 C 98.691406 12.847656 98.710938 12.605469 98.699219 12.363281 C 98.6875 12.117188 98.644531 11.878906 98.574219 11.644531 C 98.5 11.410156 98.402344 11.1875 98.273438 10.980469 C 98.148438 10.769531 97.996094 10.582031 97.820312 10.410156 C 97.644531 10.238281 97.453125 10.09375 97.242188 9.972656 C 97.03125 9.851562 96.808594 9.757812 96.574219 9.691406 C 96.335938 9.625 96.097656 9.589844 95.855469 9.585938 Z M 53.789062 9.589844 C 53.550781 9.601562 53.316406 9.644531 53.085938 9.714844 C 52.855469 9.785156 52.636719 9.882812 52.433594 10.007812 C 52.226562 10.132812 52.039062 10.28125 51.871094 10.449219 C 51.703125 10.621094 51.554688 10.8125 51.433594 11.019531 C 51.3125 11.226562 51.214844 11.445312 51.148438 11.675781 C 51.078125 11.90625 51.039062 12.144531 51.03125 12.382812 C 51.019531 12.625 51.039062 12.863281 51.085938 13.097656 C 51.136719 13.335938 51.210938 13.5625 51.316406 13.777344 L 58.699219 29.667969 C 58.859375 30.023438 59.082031 30.332031 59.367188 30.597656 C 59.652344 30.863281 59.976562 31.0625 60.339844 31.199219 C 60.707031 31.335938 61.082031 31.394531 61.46875 31.378906 C 61.859375 31.363281 62.230469 31.273438 62.582031 31.105469 C 62.933594 30.941406 63.238281 30.714844 63.5 30.425781 C 63.761719 30.136719 63.960938 29.808594 64.089844 29.441406 C 64.222656 29.074219 64.277344 28.695312 64.257812 28.308594 C 64.238281 27.917969 64.140625 27.546875 63.972656 27.195312 L 56.589844 11.308594 C 56.34375 10.757812 55.964844 10.328125 55.453125 10.015625 C 54.941406 9.699219 54.386719 9.558594 53.789062 9.589844 Z M 74.863281 37.109375 C 45.328125 37.109375 26.847656 79.09375 25.480469 104.3125 L 124.25 104.3125 C 122.882812 79.09375 104.402344 37.109375 74.863281 37.109375 Z M 69.042969 48.796875 L 80.683594 48.796875 C 82.292969 48.796875 83.59375 50.105469 83.59375 51.71875 C 83.59375 53.332031 82.292969 54.640625 80.683594 54.640625 L 69.042969 54.640625 C 67.433594 54.640625 66.132812 53.332031 66.132812 51.71875 C 66.132812 50.105469 67.433594 48.796875 69.042969 48.796875 Z M 74.863281 69.25 C 77.882812 72.28125 83.59375 79.234375 83.59375 83.859375 C 83.59375 88.691406 79.679688 92.625 74.863281 92.625 C 70.050781 92.625 66.132812 88.691406 66.132812 83.859375 C 66.132812 79.234375 71.847656 72.28125 74.863281 69.25 Z M 25.449219 110.15625 C 26.671875 145.21875 50.101562 145.21875 74.863281 145.21875 C 99.628906 145.21875 123.054688 145.21875 124.277344 110.15625 Z M 74.863281 118.921875 C 79.632812 118.921875 83.503906 122.804688 83.503906 127.59375 C 83.503906 132.382812 79.632812 136.261719 74.863281 136.261719 C 70.09375 136.261719 66.226562 132.382812 66.226562 127.59375 C 66.226562 122.804688 70.09375 118.921875 74.863281 118.921875 Z M 74.863281 118.921875 " fill-opacity="1" fill-rule="nonzero"/></g></svg>