<svg xmlns="http://www.w3.org/2000/svg" xmlns:xlink="http://www.w3.org/1999/xlink" width="200" zoomAndPan="magnify" viewBox="0 0 150 149.999998" height="200" preserveAspectRatio="xMidYMid meet" version="1.0"><defs><clipPath id="f18a0b9134"><path d="M 25.363281 4.96875 L 124.363281 4.96875 L 124.363281 145.21875 L 25.363281 145.21875 Z M 25.363281 4.96875 " clip-rule="nonzero"/></clipPath></defs><rect x="-15" width="180" fill="#ffffff" y="-15" height="179.999997" fill-opacity="1"/><rect x="-15" width="180" fill="#ffffff" y="-15" height="179.999997" fill-opacity="1"/><g clip-path="url(#f18a0b9134)"><path fill="#94dd26" d="M 74.953125 4.925781 C 74.566406 4.933594 74.195312 5.011719 73.84375 5.167969 C 73.488281 5.320312 73.175781 5.535156 72.90625 5.8125 C 72.636719 6.089844 72.429688 6.40625 72.289062 6.765625 C 72.144531 7.125 72.074219 7.5 72.082031 7.886719 L 72.082031 25.394531 C 72.074219 25.785156 72.144531 26.160156 72.292969 26.523438 C 72.4375 26.886719 72.648438 27.207031 72.921875 27.484375 C 73.195312 27.761719 73.511719 27.976562 73.871094 28.125 C 74.234375 28.277344 74.609375 28.351562 75 28.351562 C 75.390625 28.351562 75.765625 28.277344 76.125 28.125 C 76.484375 27.976562 76.804688 27.761719 77.078125 27.484375 C 77.351562 27.207031 77.5625 26.886719 77.707031 26.523438 C 77.851562 26.160156 77.921875 25.785156 77.917969 25.394531 L 77.917969 7.886719 C 77.921875 7.492188 77.851562 7.113281 77.703125 6.746094 C 77.554688 6.378906 77.339844 6.058594 77.0625 5.78125 C 76.78125 5.5 76.460938 5.289062 76.09375 5.140625 C 75.726562 4.992188 75.347656 4.921875 74.953125 4.925781 Z M 96.046875 9.578125 C 95.460938 9.566406 94.921875 9.714844 94.425781 10.027344 C 93.929688 10.339844 93.5625 10.765625 93.320312 11.300781 L 85.917969 27.164062 C 85.75 27.515625 85.65625 27.886719 85.636719 28.277344 C 85.617188 28.664062 85.671875 29.042969 85.804688 29.410156 C 85.933594 29.777344 86.132812 30.105469 86.394531 30.390625 C 86.65625 30.679688 86.964844 30.90625 87.316406 31.070312 C 87.667969 31.238281 88.039062 31.328125 88.429688 31.34375 C 88.820312 31.359375 89.195312 31.300781 89.5625 31.164062 C 89.925781 31.03125 90.253906 30.828125 90.539062 30.5625 C 90.824219 30.296875 91.046875 29.988281 91.207031 29.632812 L 98.609375 13.765625 C 98.71875 13.546875 98.796875 13.316406 98.84375 13.078125 C 98.890625 12.839844 98.910156 12.597656 98.898438 12.351562 C 98.886719 12.109375 98.84375 11.867188 98.773438 11.636719 C 98.699219 11.402344 98.601562 11.179688 98.472656 10.972656 C 98.34375 10.761719 98.195312 10.574219 98.019531 10.402344 C 97.84375 10.234375 97.648438 10.085938 97.4375 9.964844 C 97.226562 9.84375 97 9.75 96.765625 9.683594 C 96.53125 9.617188 96.289062 9.582031 96.046875 9.578125 Z M 53.867188 9.582031 C 53.625 9.597656 53.390625 9.636719 53.160156 9.707031 C 52.929688 9.777344 52.710938 9.875 52.507812 10 C 52.300781 10.125 52.113281 10.273438 51.945312 10.445312 C 51.773438 10.613281 51.628906 10.804688 51.503906 11.011719 C 51.382812 11.21875 51.285156 11.4375 51.21875 11.667969 C 51.148438 11.898438 51.109375 12.132812 51.101562 12.375 C 51.089844 12.613281 51.109375 12.851562 51.15625 13.089844 C 51.207031 13.324219 51.28125 13.550781 51.386719 13.765625 L 58.789062 29.632812 C 58.953125 29.988281 59.175781 30.296875 59.460938 30.5625 C 59.746094 30.828125 60.070312 31.03125 60.4375 31.164062 C 60.800781 31.300781 61.179688 31.359375 61.570312 31.34375 C 61.957031 31.328125 62.328125 31.238281 62.683594 31.070312 C 63.035156 30.90625 63.34375 30.679688 63.605469 30.390625 C 63.867188 30.105469 64.0625 29.777344 64.195312 29.410156 C 64.328125 29.042969 64.382812 28.664062 64.363281 28.277344 C 64.34375 27.886719 64.25 27.515625 64.078125 27.164062 L 56.675781 11.300781 C 56.429688 10.75 56.050781 10.320312 55.535156 10.007812 C 55.023438 9.695312 54.46875 9.554688 53.867188 9.582031 Z M 75 37.066406 C 45.382812 37.066406 26.851562 78.996094 25.480469 104.179688 L 124.519531 104.179688 C 123.148438 78.996094 104.617188 37.066406 75 37.066406 Z M 69.164062 48.738281 L 80.835938 48.738281 C 82.449219 48.738281 83.753906 50.042969 83.753906 51.65625 C 83.753906 53.265625 82.449219 54.574219 80.835938 54.574219 L 69.164062 54.574219 C 67.550781 54.574219 66.246094 53.265625 66.246094 51.65625 C 66.246094 50.042969 67.550781 48.738281 69.164062 48.738281 Z M 75 69.164062 C 78.023438 72.191406 83.753906 79.136719 83.753906 83.753906 C 83.753906 88.578125 79.824219 92.507812 75 92.507812 C 70.171875 92.507812 66.246094 88.578125 66.246094 83.753906 C 66.246094 79.136719 71.972656 72.191406 75 69.164062 Z M 25.449219 110.015625 C 26.675781 145.03125 50.167969 145.03125 75 145.03125 C 99.832031 145.03125 123.320312 145.03125 124.546875 110.015625 Z M 75 118.769531 C 79.78125 118.769531 83.660156 122.648438 83.660156 127.429688 C 83.660156 132.214844 79.78125 136.089844 75 136.089844 C 70.214844 136.089844 66.335938 132.214844 66.335938 127.429688 C 66.335938 122.648438 70.214844 118.769531 75 118.769531 Z M 75 118.769531 " fill-opacity="1" fill-rule="nonzero"/></g></svg>