<svg xmlns="http://www.w3.org/2000/svg" xmlns:xlink="http://www.w3.org/1999/xlink" width="80" zoomAndPan="magnify" viewBox="0 0 60 67.92" height="80" preserveAspectRatio="xMidYMid meet" version="1.0"><defs><clipPath id="19664515c9"><path d="M 0.0351562 0 L 59.964844 0 L 59.964844 59.929688 L 0.0351562 59.929688 Z M 0.0351562 0 " clip-rule="nonzero"/></clipPath><clipPath id="69681fe03e"><path d="M 8.730469 1.070312 L 45 1.070312 L 45 57.253906 L 8.730469 57.253906 Z M 8.730469 1.070312 " clip-rule="nonzero"/></clipPath><clipPath id="ac0e1f0539"><path d="M 29 18 L 53.675781 18 L 53.675781 43 L 29 43 Z M 29 18 " clip-rule="nonzero"/></clipPath></defs><g clip-path="url(#19664515c9)"><path fill="#ffffff" d="M 0.0351562 0 L 59.964844 0 L 59.964844 59.929688 L 0.0351562 59.929688 Z M 0.0351562 0 " fill-opacity="1" fill-rule="nonzero"/><path fill="#ffffff" d="M 0.0351562 0 L 59.964844 0 L 59.964844 59.929688 L 0.0351562 59.929688 Z M 0.0351562 0 " fill-opacity="1" fill-rule="nonzero"/></g><g clip-path="url(#69681fe03e)"><path fill="#427db8" d="M 27.667969 57.410156 C 35.292969 57.410156 41.871094 53.101562 44.867188 46.894531 C 45.015625 46.589844 44.984375 46.257812 44.785156 45.984375 C 44.585938 45.71875 44.273438 45.589844 43.941406 45.644531 C 43.167969 45.765625 42.378906 45.828125 41.570312 45.828125 C 33.183594 45.828125 26.386719 39.027344 26.386719 30.640625 C 26.386719 24.390625 30.160156 19.027344 35.550781 16.695312 C 35.789062 16.59375 35.953125 16.417969 36.035156 16.175781 C 36.121094 15.933594 36.097656 15.691406 35.976562 15.464844 L 28.304688 1.441406 C 28.175781 1.207031 27.941406 1.070312 27.667969 1.070312 C 27.394531 1.070312 27.15625 1.207031 27.03125 1.441406 L 10.679688 31.324219 C 9.433594 33.738281 8.730469 36.453125 8.730469 39.332031 C 8.730469 49.316406 17.207031 57.410156 27.667969 57.410156 Z M 23.632812 13.417969 C 21.113281 18.375 17.554688 25.707031 15.984375 29.808594 C 14.042969 34.050781 19.300781 35.675781 20.539062 31.410156 L 25.378906 13.921875 C 25.492188 13.503906 25.167969 13.085938 24.730469 12.960938 C 24.292969 12.835938 23.832031 13.027344 23.632812 13.417969 Z M 23.632812 13.417969 " fill-opacity="1" fill-rule="evenodd"/></g><g clip-path="url(#ac0e1f0539)"><path fill="#1565c0" d="M 41.570312 18.398438 C 48.335938 18.398438 53.816406 23.882812 53.816406 30.640625 C 53.816406 37.402344 48.335938 42.882812 41.570312 42.882812 C 34.808594 42.882812 29.328125 37.402344 29.328125 30.640625 C 29.328125 23.882812 34.808594 18.398438 41.570312 18.398438 Z M 46.582031 30.941406 L 47.492188 30.941406 C 48.136719 30.941406 48.71875 31.203125 49.140625 31.625 C 49.5625 32.046875 49.824219 32.628906 49.824219 33.269531 L 49.824219 35.710938 C 49.824219 36.355469 49.5625 36.9375 49.140625 37.359375 C 48.71875 37.78125 48.136719 38.042969 47.492188 38.042969 L 46.582031 38.042969 C 45.941406 38.042969 45.363281 37.78125 44.941406 37.359375 C 44.515625 36.9375 44.257812 36.355469 44.257812 35.710938 L 44.257812 33.269531 C 44.257812 32.628906 44.515625 32.046875 44.941406 31.625 C 45.363281 31.203125 45.941406 30.941406 46.582031 30.941406 Z M 43.933594 24.007812 C 44.285156 23.398438 45.0625 23.1875 45.671875 23.539062 C 46.285156 23.890625 46.488281 24.675781 46.136719 25.28125 L 39.214844 37.28125 C 38.859375 37.882812 38.082031 38.09375 37.472656 37.742188 C 36.863281 37.390625 36.65625 36.605469 37.007812 36 Z M 35.652344 23.238281 L 36.5625 23.238281 C 37.203125 23.238281 37.78125 23.503906 38.207031 23.921875 C 38.628906 24.34375 38.886719 24.929688 38.886719 25.570312 L 38.886719 28.011719 C 38.886719 28.652344 38.628906 29.238281 38.207031 29.65625 C 37.78125 30.078125 37.203125 30.339844 36.5625 30.339844 L 35.652344 30.339844 C 35.011719 30.339844 34.425781 30.078125 34.003906 29.65625 C 33.585938 29.238281 33.320312 28.652344 33.320312 28.011719 L 33.320312 25.570312 C 33.320312 24.929688 33.585938 24.34375 34.003906 23.921875 C 34.425781 23.503906 35.011719 23.238281 35.652344 23.238281 Z M 36.5625 25.058594 L 35.652344 25.058594 C 35.515625 25.058594 35.382812 25.117188 35.292969 25.210938 C 35.199219 25.300781 35.140625 25.433594 35.140625 25.570312 L 35.140625 28.011719 C 35.140625 28.152344 35.199219 28.277344 35.292969 28.375 C 35.382812 28.464844 35.515625 28.519531 35.652344 28.519531 L 36.5625 28.519531 C 36.699219 28.519531 36.832031 28.464844 36.917969 28.375 C 37.015625 28.277344 37.074219 28.152344 37.074219 28.011719 L 37.074219 25.570312 C 37.074219 25.433594 37.015625 25.300781 36.917969 25.210938 C 36.832031 25.117188 36.699219 25.058594 36.5625 25.058594 Z M 47.492188 32.761719 L 46.582031 32.761719 C 46.445312 32.761719 46.316406 32.820312 46.226562 32.910156 C 46.128906 33.003906 46.074219 33.128906 46.074219 33.269531 L 46.074219 35.710938 C 46.074219 35.855469 46.128906 35.980469 46.226562 36.074219 C 46.316406 36.164062 46.445312 36.222656 46.582031 36.222656 L 47.492188 36.222656 C 47.636719 36.222656 47.761719 36.164062 47.851562 36.074219 C 47.945312 35.980469 48.003906 35.855469 48.003906 35.710938 L 48.003906 33.269531 C 48.003906 33.128906 47.945312 33.003906 47.851562 32.910156 C 47.761719 32.820312 47.636719 32.761719 47.492188 32.761719 Z M 47.492188 32.761719 " fill-opacity="1" fill-rule="evenodd"/></g></svg>