<svg xmlns="http://www.w3.org/2000/svg" xmlns:xlink="http://www.w3.org/1999/xlink" width="200" zoomAndPan="magnify" viewBox="0 0 150 149.999998" height="200" preserveAspectRatio="xMidYMid meet" version="1.0"><defs><clipPath id="5f3d66fdd0"><path d="M 0 9.828125 L 150 9.828125 L 150 136.578125 L 0 136.578125 Z M 0 9.828125 " clip-rule="nonzero"/></clipPath></defs><rect x="-15" width="180" fill="#ffffff" y="-15" height="179.999997" fill-opacity="1"/><rect x="-15" width="180" fill="#ffffff" y="-15" height="179.999997" fill-opacity="1"/><g clip-path="url(#5f3d66fdd0)"><path fill="#000000" d="M 148.742188 89.0625 C 148.199219 89.457031 147.597656 89.636719 146.96875 89.636719 C 146.035156 89.636719 145.105469 89.214844 144.53125 88.402344 L 138.1875 79.621094 C 134.96875 111.585938 107.90625 136.636719 75.097656 136.636719 C 62.046875 136.636719 49.539062 132.695312 38.863281 125.269531 C 28.460938 117.992188 20.519531 107.917969 15.949219 96.128906 C 15.347656 94.597656 16.128906 92.851562 17.664062 92.25 C 19.226562 91.648438 20.941406 92.433594 21.542969 93.964844 C 25.691406 104.640625 32.847656 113.753906 42.292969 120.335938 C 51.945312 127.074219 63.28125 130.621094 75.070312 130.621094 C 105.199219 130.621094 129.976562 107.285156 132.261719 77.726562 L 122.398438 84.855469 C 121.046875 85.816406 119.183594 85.515625 118.191406 84.191406 C 117.226562 82.839844 117.527344 80.976562 118.851562 79.984375 L 134.097656 68.945312 C 134.730469 68.464844 135.542969 68.285156 136.324219 68.40625 C 137.105469 68.527344 137.828125 68.976562 138.277344 69.609375 L 149.3125 84.855469 C 150.367188 86.207031 150.066406 88.101562 148.742188 89.0625 Z M 30.894531 69.730469 C 32.1875 68.707031 32.429688 66.8125 31.40625 65.519531 C 30.382812 64.226562 28.488281 63.984375 27.195312 65.007812 L 17.753906 72.433594 C 18.144531 41.160156 43.734375 15.839844 75.097656 15.839844 C 86.675781 15.839844 97.832031 19.269531 107.363281 25.765625 C 116.6875 32.109375 123.875 40.949219 128.144531 51.324219 C 128.773438 52.859375 130.550781 53.582031 132.082031 52.949219 C 133.617188 52.316406 134.339844 50.542969 133.707031 49.011719 C 128.957031 37.554688 121.046875 27.78125 110.761719 20.773438 C 100.238281 13.617188 87.910156 9.828125 75.097656 9.828125 C 40.910156 9.828125 12.972656 37.042969 11.769531 70.929688 L 5.003906 62.332031 C 3.980469 61.039062 2.085938 60.796875 0.792969 61.820312 C -0.5 62.84375 -0.738281 64.738281 0.28125 66.03125 L 11.921875 80.824219 C 12.523438 81.578125 13.394531 81.96875 14.296875 81.96875 C 14.957031 81.96875 15.589844 81.757812 16.160156 81.335938 Z M 101.890625 84.613281 C 101.890625 78.570312 97.710938 68.074219 89.472656 53.398438 C 83.457031 42.695312 77.382812 33.523438 77.324219 33.433594 C 76.753906 32.589844 75.820312 32.078125 74.828125 32.078125 C 73.835938 32.078125 72.875 32.589844 72.332031 33.433594 C 72.273438 33.523438 66.167969 42.695312 60.183594 53.398438 C 51.945312 68.074219 47.765625 78.570312 47.765625 84.613281 C 47.765625 99.558594 59.914062 111.707031 74.859375 111.707031 C 89.742188 111.707031 101.890625 99.527344 101.890625 84.613281 Z M 95.878906 84.613281 C 95.878906 96.222656 86.4375 105.691406 74.796875 105.691406 C 63.191406 105.691406 53.71875 96.25 53.71875 84.613281 C 53.71875 75.5625 67.191406 52.527344 74.796875 40.621094 C 82.375 52.527344 95.878906 75.5625 95.878906 84.613281 Z M 80.269531 97.214844 C 85.835938 95.980469 90.585938 90.027344 90.617188 84.28125 C 90.617188 82.628906 89.292969 81.277344 87.636719 81.246094 L 87.609375 81.246094 C 85.953125 81.246094 84.601562 82.570312 84.601562 84.222656 C 84.570312 87.167969 81.773438 90.6875 78.949219 91.320312 C 77.324219 91.679688 76.300781 93.304688 76.664062 94.898438 C 76.964844 96.3125 78.226562 97.242188 79.578125 97.242188 C 79.851562 97.304688 80.0625 97.273438 80.269531 97.214844 Z M 80.269531 97.214844 " fill-opacity="1" fill-rule="nonzero"/></g></svg>