<svg xmlns="http://www.w3.org/2000/svg" xmlns:xlink="http://www.w3.org/1999/xlink" width="100" zoomAndPan="magnify" viewBox="0 0 75 127.500001" height="170" preserveAspectRatio="xMidYMid meet" version="1.0"><defs><clipPath id="67fb65e4e0"><path d="M 0.144531 0 L 74.851562 0 L 74.851562 127.003906 L 0.144531 127.003906 Z M 0.144531 0 " clip-rule="nonzero"/></clipPath><clipPath id="a3587fb1b5"><path d="M 0.230469 0.585938 L 70.769531 0.585938 L 70.769531 120.417969 L 0.230469 120.417969 Z M 0.230469 0.585938 " clip-rule="nonzero"/></clipPath><clipPath id="a8c2d7b756"><path d="M 0.230469 0.585938 L 70.769531 0.585938 L 70.769531 120.417969 L 0.230469 120.417969 Z M 0.230469 0.585938 " clip-rule="nonzero"/></clipPath><clipPath id="c9edfde66f"><rect x="0" width="71" y="0" height="121"/></clipPath><clipPath id="ba80c1e874"><path d="M 0.863281 9.492188 L 70.769531 9.492188 L 70.769531 18.167969 L 0.863281 18.167969 Z M 0.863281 9.492188 " clip-rule="nonzero"/></clipPath><clipPath id="838fd79e60"><path d="M 0.863281 0.492188 L 70.769531 0.492188 L 70.769531 9.167969 L 0.863281 9.167969 Z M 0.863281 0.492188 " clip-rule="nonzero"/></clipPath><clipPath id="bf33b6768e"><rect x="0" width="71" y="0" height="10"/></clipPath><clipPath id="5d7a2141e2"><path d="M 0.863281 27.082031 L 70.769531 27.082031 L 70.769531 35.105469 L 0.863281 35.105469 Z M 0.863281 27.082031 " clip-rule="nonzero"/></clipPath><clipPath id="04d5bdc8c9"><path d="M 0.863281 0.0820312 L 70.769531 0.0820312 L 70.769531 8.105469 L 0.863281 8.105469 Z M 0.863281 0.0820312 " clip-rule="nonzero"/></clipPath><clipPath id="7b487e235a"><rect x="0" width="71" y="0" height="9"/></clipPath><clipPath id="98a43981b4"><path d="M 0.230469 44.816406 L 70.136719 44.816406 L 70.136719 54.855469 L 0.230469 54.855469 Z M 0.230469 44.816406 " clip-rule="nonzero"/></clipPath><clipPath id="5cdac0aa08"><path d="M 0.230469 0.816406 L 70.136719 0.816406 L 70.136719 10.855469 L 0.230469 10.855469 Z M 0.230469 0.816406 " clip-rule="nonzero"/></clipPath><clipPath id="30025f2241"><rect x="0" width="71" y="0" height="11"/></clipPath><clipPath id="91c2232804"><path d="M 0.863281 63.492188 L 70.769531 63.492188 L 70.769531 73.53125 L 0.863281 73.53125 Z M 0.863281 63.492188 " clip-rule="nonzero"/></clipPath><clipPath id="c346472b6e"><path d="M 0.863281 0.492188 L 70.769531 0.492188 L 70.769531 10.53125 L 0.863281 10.53125 Z M 0.863281 0.492188 " clip-rule="nonzero"/></clipPath><clipPath id="f813087c08"><rect x="0" width="71" y="0" height="11"/></clipPath><clipPath id="e9d06a570f"><path d="M 0.230469 82.996094 L 70.136719 82.996094 L 70.136719 93.035156 L 0.230469 93.035156 Z M 0.230469 82.996094 " clip-rule="nonzero"/></clipPath><clipPath id="45897d8a4e"><path d="M 0.230469 0.996094 L 70.136719 0.996094 L 70.136719 11.035156 L 0.230469 11.035156 Z M 0.230469 0.996094 " clip-rule="nonzero"/></clipPath><clipPath id="92ed2ec564"><rect x="0" width="71" y="0" height="12"/></clipPath><clipPath id="774c1dc235"><path d="M 0.230469 102 L 70.136719 102 L 70.136719 112.042969 L 0.230469 112.042969 Z M 0.230469 102 " clip-rule="nonzero"/></clipPath><clipPath id="c49abf017c"><path d="M 0.230469 0 L 70.136719 0 L 70.136719 10.042969 L 0.230469 10.042969 Z M 0.230469 0 " clip-rule="nonzero"/></clipPath><clipPath id="708a008847"><rect x="0" width="71" y="0" height="11"/></clipPath><clipPath id="a8cd81a10a"><rect x="0" width="71" y="0" height="121"/></clipPath></defs><g clip-path="url(#67fb65e4e0)"><path fill="#ffffff" d="M 0.144531 0 L 74.851562 0 L 74.851562 127.003906 L 0.144531 127.003906 Z M 0.144531 0 " fill-opacity="1" fill-rule="nonzero"/><path fill="#ffffff" d="M 0.144531 0 L 74.851562 0 L 74.851562 127.003906 L 0.144531 127.003906 Z M 0.144531 0 " fill-opacity="1" fill-rule="nonzero"/></g><g transform="matrix(1, 0, 0, 1, 2, 3)"><g clip-path="url(#a8cd81a10a)"><g clip-path="url(#a3587fb1b5)"><g transform="matrix(1, 0, 0, 1, 0, -0.000000000000017319)"><g clip-path="url(#c9edfde66f)"><g clip-path="url(#a8c2d7b756)"><path fill="#d9d9d9" d="M 0.230469 0.585938 L 70.769531 0.585938 L 70.769531 120.445312 L 0.230469 120.445312 Z M 0.230469 0.585938 " fill-opacity="1" fill-rule="nonzero"/></g></g></g></g><g clip-path="url(#ba80c1e874)"><g transform="matrix(1, 0, 0, 1, 0, 9)"><g clip-path="url(#bf33b6768e)"><g clip-path="url(#838fd79e60)"><path fill="#3a86f1" d="M 0.863281 0.492188 L 70.765625 0.492188 L 70.765625 9.167969 L 0.863281 9.167969 Z M 0.863281 0.492188 " fill-opacity="1" fill-rule="nonzero"/></g></g></g></g><g clip-path="url(#5d7a2141e2)"><g transform="matrix(1, 0, 0, 1, 0, 27)"><g clip-path="url(#7b487e235a)"><g clip-path="url(#04d5bdc8c9)"><path fill="#5170ff" d="M 0.863281 0.0820312 L 70.78125 0.0820312 L 70.78125 8.105469 L 0.863281 8.105469 Z M 0.863281 0.0820312 " fill-opacity="1" fill-rule="nonzero"/></g></g></g></g><g clip-path="url(#98a43981b4)"><g transform="matrix(1, 0, 0, 1, 0, 44)"><g clip-path="url(#30025f2241)"><g clip-path="url(#5cdac0aa08)"><path fill="#ff3131" d="M 0.230469 0.816406 L 70.132812 0.816406 L 70.132812 10.855469 L 0.230469 10.855469 Z M 0.230469 0.816406 " fill-opacity="1" fill-rule="nonzero"/></g></g></g></g><g clip-path="url(#91c2232804)"><g transform="matrix(1, 0, 0, 1, 0, 63)"><g clip-path="url(#f813087c08)"><g clip-path="url(#c346472b6e)"><path fill="#ff3131" d="M 0.863281 0.492188 L 70.761719 0.492188 L 70.761719 10.53125 L 0.863281 10.53125 Z M 0.863281 0.492188 " fill-opacity="1" fill-rule="nonzero"/></g></g></g></g><g clip-path="url(#e9d06a570f)"><g transform="matrix(1, 0, 0, 1, 0, 82)"><g clip-path="url(#92ed2ec564)"><g clip-path="url(#45897d8a4e)"><path fill="#5170ff" d="M 0.230469 0.996094 L 70.132812 0.996094 L 70.132812 11.035156 L 0.230469 11.035156 Z M 0.230469 0.996094 " fill-opacity="1" fill-rule="nonzero"/></g></g></g></g><g clip-path="url(#774c1dc235)"><g transform="matrix(1, 0, 0, 1, 0, 102)"><g clip-path="url(#708a008847)"><g clip-path="url(#c49abf017c)"><path fill="#5170ff" d="M 0.230469 0 L 70.132812 0 L 70.132812 10.042969 L 0.230469 10.042969 Z M 0.230469 0 " fill-opacity="1" fill-rule="nonzero"/></g></g></g></g></g></g></svg>
