<svg xmlns="http://www.w3.org/2000/svg" xmlns:xlink="http://www.w3.org/1999/xlink" width="100" zoomAndPan="magnify" viewBox="0 0 75 127.500001" height="170" preserveAspectRatio="xMidYMid meet" version="1.0"><defs><clipPath id="b8f7eec531"><path d="M 0.144531 0 L 74.851562 0 L 74.851562 127.003906 L 0.144531 127.003906 Z M 0.144531 0 " clip-rule="nonzero"/></clipPath><clipPath id="5fc2482904"><path d="M 0.230469 0.585938 L 70.769531 0.585938 L 70.769531 120.417969 L 0.230469 120.417969 Z M 0.230469 0.585938 " clip-rule="nonzero"/></clipPath><clipPath id="81516ee324"><path d="M 0.230469 0.585938 L 70.769531 0.585938 L 70.769531 120.417969 L 0.230469 120.417969 Z M 0.230469 0.585938 " clip-rule="nonzero"/></clipPath><clipPath id="719d626e7a"><rect x="0" width="71" y="0" height="121"/></clipPath><clipPath id="ea40a5e8df"><path d="M 0.863281 9.492188 L 70.769531 9.492188 L 70.769531 18.167969 L 0.863281 18.167969 Z M 0.863281 9.492188 " clip-rule="nonzero"/></clipPath><clipPath id="29c8b0e80a"><path d="M 0.863281 0.492188 L 70.769531 0.492188 L 70.769531 9.167969 L 0.863281 9.167969 Z M 0.863281 0.492188 " clip-rule="nonzero"/></clipPath><clipPath id="36f2aa4611"><rect x="0" width="71" y="0" height="10"/></clipPath><clipPath id="fc9e6bfa01"><path d="M 0.863281 27.082031 L 70.769531 27.082031 L 70.769531 35.105469 L 0.863281 35.105469 Z M 0.863281 27.082031 " clip-rule="nonzero"/></clipPath><clipPath id="8a2ded6ba4"><path d="M 0.863281 0.0820312 L 70.769531 0.0820312 L 70.769531 8.105469 L 0.863281 8.105469 Z M 0.863281 0.0820312 " clip-rule="nonzero"/></clipPath><clipPath id="a3c8005579"><rect x="0" width="71" y="0" height="9"/></clipPath><clipPath id="1b419c6d75"><path d="M 0.230469 44.816406 L 70.136719 44.816406 L 70.136719 54.855469 L 0.230469 54.855469 Z M 0.230469 44.816406 " clip-rule="nonzero"/></clipPath><clipPath id="3850f67b96"><path d="M 0.230469 0.816406 L 70.136719 0.816406 L 70.136719 10.855469 L 0.230469 10.855469 Z M 0.230469 0.816406 " clip-rule="nonzero"/></clipPath><clipPath id="0b538ce6f7"><rect x="0" width="71" y="0" height="11"/></clipPath><clipPath id="31b2c7a522"><path d="M 0.863281 63.492188 L 70.769531 63.492188 L 70.769531 73.53125 L 0.863281 73.53125 Z M 0.863281 63.492188 " clip-rule="nonzero"/></clipPath><clipPath id="d61da9c96e"><path d="M 0.863281 0.492188 L 70.769531 0.492188 L 70.769531 10.53125 L 0.863281 10.53125 Z M 0.863281 0.492188 " clip-rule="nonzero"/></clipPath><clipPath id="c8ab166512"><rect x="0" width="71" y="0" height="11"/></clipPath><clipPath id="9c2fcf2fa7"><path d="M 0.230469 82.996094 L 70.136719 82.996094 L 70.136719 93.035156 L 0.230469 93.035156 Z M 0.230469 82.996094 " clip-rule="nonzero"/></clipPath><clipPath id="c6676301d2"><path d="M 0.230469 0.996094 L 70.136719 0.996094 L 70.136719 11.035156 L 0.230469 11.035156 Z M 0.230469 0.996094 " clip-rule="nonzero"/></clipPath><clipPath id="3a534fb3df"><rect x="0" width="71" y="0" height="12"/></clipPath><clipPath id="1096433a70"><path d="M 0.230469 102 L 70.136719 102 L 70.136719 112.042969 L 0.230469 112.042969 Z M 0.230469 102 " clip-rule="nonzero"/></clipPath><clipPath id="59a1c5fdcf"><path d="M 0.230469 0 L 70.136719 0 L 70.136719 10.042969 L 0.230469 10.042969 Z M 0.230469 0 " clip-rule="nonzero"/></clipPath><clipPath id="d27a5453c0"><rect x="0" width="71" y="0" height="11"/></clipPath><clipPath id="8d101001f1"><rect x="0" width="71" y="0" height="121"/></clipPath></defs><g clip-path="url(#b8f7eec531)"><path fill="#ffffff" d="M 0.144531 0 L 74.851562 0 L 74.851562 127.003906 L 0.144531 127.003906 Z M 0.144531 0 " fill-opacity="1" fill-rule="nonzero"/><path fill="#ffffff" d="M 0.144531 0 L 74.851562 0 L 74.851562 127.003906 L 0.144531 127.003906 Z M 0.144531 0 " fill-opacity="1" fill-rule="nonzero"/></g><g transform="matrix(1, 0, 0, 1, 2, 3)"><g clip-path="url(#8d101001f1)"><g clip-path="url(#5fc2482904)"><g transform="matrix(1, 0, 0, 1, 0, -0.000000000000017319)"><g clip-path="url(#719d626e7a)"><g clip-path="url(#81516ee324)"><path fill="#d9d9d9" d="M 0.230469 0.585938 L 70.769531 0.585938 L 70.769531 120.445312 L 0.230469 120.445312 Z M 0.230469 0.585938 " fill-opacity="1" fill-rule="nonzero"/></g></g></g></g><g clip-path="url(#ea40a5e8df)"><g transform="matrix(1, 0, 0, 1, 0, 9)"><g clip-path="url(#36f2aa4611)"><g clip-path="url(#29c8b0e80a)"><path fill="#545454" d="M 0.863281 0.492188 L 70.765625 0.492188 L 70.765625 9.167969 L 0.863281 9.167969 Z M 0.863281 0.492188 " fill-opacity="1" fill-rule="nonzero"/></g></g></g></g><g clip-path="url(#fc9e6bfa01)"><g transform="matrix(1, 0, 0, 1, 0, 27)"><g clip-path="url(#a3c8005579)"><g clip-path="url(#8a2ded6ba4)"><path fill="#545454" d="M 0.863281 0.0820312 L 70.78125 0.0820312 L 70.78125 8.105469 L 0.863281 8.105469 Z M 0.863281 0.0820312 " fill-opacity="1" fill-rule="nonzero"/></g></g></g></g><g clip-path="url(#1b419c6d75)"><g transform="matrix(1, 0, 0, 1, 0, 44)"><g clip-path="url(#0b538ce6f7)"><g clip-path="url(#3850f67b96)"><path fill="#545454" d="M 0.230469 0.816406 L 70.132812 0.816406 L 70.132812 10.855469 L 0.230469 10.855469 Z M 0.230469 0.816406 " fill-opacity="1" fill-rule="nonzero"/></g></g></g></g><g clip-path="url(#31b2c7a522)"><g transform="matrix(1, 0, 0, 1, 0, 63)"><g clip-path="url(#c8ab166512)"><g clip-path="url(#d61da9c96e)"><path fill="#545454" d="M 0.863281 0.492188 L 70.761719 0.492188 L 70.761719 10.53125 L 0.863281 10.53125 Z M 0.863281 0.492188 " fill-opacity="1" fill-rule="nonzero"/></g></g></g></g><g clip-path="url(#9c2fcf2fa7)"><g transform="matrix(1, 0, 0, 1, 0, 82)"><g clip-path="url(#3a534fb3df)"><g clip-path="url(#c6676301d2)"><path fill="#545454" d="M 0.230469 0.996094 L 70.132812 0.996094 L 70.132812 11.035156 L 0.230469 11.035156 Z M 0.230469 0.996094 " fill-opacity="1" fill-rule="nonzero"/></g></g></g></g><g clip-path="url(#1096433a70)"><g transform="matrix(1, 0, 0, 1, 0, 102)"><g clip-path="url(#d27a5453c0)"><g clip-path="url(#59a1c5fdcf)"><path fill="#545454" d="M 0.230469 0 L 70.132812 0 L 70.132812 10.042969 L 0.230469 10.042969 Z M 0.230469 0 " fill-opacity="1" fill-rule="nonzero"/></g></g></g></g></g></g></svg>
