<svg xmlns="http://www.w3.org/2000/svg" xmlns:xlink="http://www.w3.org/1999/xlink" width="200" zoomAndPan="magnify" viewBox="0 0 150 106.079994" height="131" preserveAspectRatio="xMidYMid meet" version="1.0"><defs><clipPath id="0565bec844"><path d="M 0.644531 0 L 149.355469 0 L 149.355469 97.40625 L 0.644531 97.40625 Z M 0.644531 0 " clip-rule="nonzero"/></clipPath><clipPath id="b3907d0978"><path d="M 0.644531 1 L 8 1 L 8 97.40625 L 0.644531 97.40625 Z M 0.644531 1 " clip-rule="nonzero"/></clipPath><clipPath id="1df1509df0"><path d="M 142 1 L 149.355469 1 L 149.355469 97.40625 L 142 97.40625 Z M 142 1 " clip-rule="nonzero"/></clipPath><clipPath id="5bf98b5741"><path d="M 3.34375 9.304688 L 143.914062 9.304688 L 143.914062 25.683594 L 3.34375 25.683594 Z M 3.34375 9.304688 " clip-rule="nonzero"/></clipPath><clipPath id="7a91076a60"><path d="M 0.34375 0.304688 L 140.914062 0.304688 L 140.914062 16.683594 L 0.34375 16.683594 Z M 0.34375 0.304688 " clip-rule="nonzero"/></clipPath><clipPath id="6c220cf948"><rect x="0" width="141" y="0" height="17"/></clipPath><clipPath id="4416b06508"><path d="M 2.847656 61.152344 L 143.417969 61.152344 L 143.417969 77.535156 L 2.847656 77.535156 Z M 2.847656 61.152344 " clip-rule="nonzero"/></clipPath><clipPath id="ba0c722ba9"><path d="M 0.847656 0.152344 L 141.417969 0.152344 L 141.417969 16.535156 L 0.847656 16.535156 Z M 0.847656 0.152344 " clip-rule="nonzero"/></clipPath><clipPath id="7847a587e6"><rect x="0" width="142" y="0" height="17"/></clipPath></defs><g clip-path="url(#0565bec844)"><path fill="#ffffff" d="M 0.644531 0 L 149.355469 0 L 149.355469 97.40625 L 0.644531 97.40625 Z M 0.644531 0 " fill-opacity="1" fill-rule="nonzero"/><path fill="#ffffff" d="M 0.644531 0 L 149.355469 0 L 149.355469 97.40625 L 0.644531 97.40625 Z M 0.644531 0 " fill-opacity="1" fill-rule="nonzero"/></g><path stroke-linecap="round" transform="matrix(0.743551, 0, 0, 0.743551, 1.346738, -0.123441)" fill="none" stroke-linejoin="miter" d="M 4.498235 4.500157 L 193.787243 4.500157 " stroke="#94dd26" stroke-width="9" stroke-opacity="1" stroke-miterlimit="4"/><path stroke-linecap="round" transform="matrix(0.743551, 0, 0, 0.743551, 1.346738, 23.576807)" fill="none" stroke-linejoin="miter" d="M 4.498235 4.498772 L 193.787243 4.498772 " stroke="#94dd26" stroke-width="9" stroke-opacity="1" stroke-miterlimit="4"/><path stroke-linecap="round" transform="matrix(0.743551, 0, 0, 0.743551, 1.346738, 49.866445)" fill="none" stroke-linejoin="miter" d="M 4.498235 4.497998 L 193.787243 4.497998 " stroke="#94dd26" stroke-width="9" stroke-opacity="1" stroke-miterlimit="4"/><path stroke-linecap="round" transform="matrix(0.743551, 0, 0, 0.743551, 1.346738, 76.250144)" fill="none" stroke-linejoin="miter" d="M 4.498235 4.502059 L 193.787243 4.502059 " stroke="#94dd26" stroke-width="9" stroke-opacity="1" stroke-miterlimit="4"/><g clip-path="url(#b3907d0978)"><path stroke-linecap="round" transform="matrix(0, -0.743551, 0.743551, 0, 0.75203, 97.404163)" fill="none" stroke-linejoin="miter" d="M 4.499446 4.499523 L 124.941283 4.499523 " stroke="#94dd26" stroke-width="9" stroke-opacity="1" stroke-miterlimit="4"/></g><g clip-path="url(#1df1509df0)"><path stroke-linecap="round" transform="matrix(0, -0.743551, 0.743551, 0, 142.662107, 97.404163)" fill="none" stroke-linejoin="miter" d="M 4.499446 4.49963 L 124.941283 4.49963 " stroke="#94dd26" stroke-width="9" stroke-opacity="1" stroke-miterlimit="4"/></g><g clip-path="url(#5bf98b5741)"><g transform="matrix(1, 0, 0, 1, 3, 9)"><g clip-path="url(#6c220cf948)"><g clip-path="url(#7a91076a60)"><path fill="#95dd26" d="M 0.34375 0.304688 L 140.933594 0.304688 L 140.933594 16.683594 L 0.34375 16.683594 Z M 0.34375 0.304688 " fill-opacity="1" fill-rule="nonzero"/></g></g></g></g><g clip-path="url(#4416b06508)"><g transform="matrix(1, 0, 0, 1, 2, 61)"><g clip-path="url(#7847a587e6)"><g clip-path="url(#ba0c722ba9)"><path fill="#95dd26" d="M 0.847656 0.152344 L 141.4375 0.152344 L 141.4375 16.535156 L 0.847656 16.535156 Z M 0.847656 0.152344 " fill-opacity="1" fill-rule="nonzero"/></g></g></g></g></svg>