<svg xmlns="http://www.w3.org/2000/svg" xmlns:xlink="http://www.w3.org/1999/xlink" width="200" zoomAndPan="magnify" viewBox="0 0 150 106.079994" height="131" preserveAspectRatio="xMidYMid meet" version="1.0"><defs><clipPath id="88368fcc1c"><path d="M 0.644531 0 L 149.355469 0 L 149.355469 97.40625 L 0.644531 97.40625 Z M 0.644531 0 " clip-rule="nonzero"/></clipPath><clipPath id="95f5e8444a"><path d="M 0.644531 1 L 8 1 L 8 97.40625 L 0.644531 97.40625 Z M 0.644531 1 " clip-rule="nonzero"/></clipPath><clipPath id="e178c13c16"><path d="M 142 1 L 149.355469 1 L 149.355469 97.40625 L 142 97.40625 Z M 142 1 " clip-rule="nonzero"/></clipPath><clipPath id="201b82b2b0"><path d="M 3.34375 9.304688 L 143.914062 9.304688 L 143.914062 25.683594 L 3.34375 25.683594 Z M 3.34375 9.304688 " clip-rule="nonzero"/></clipPath><clipPath id="b5ffa1ffb6"><path d="M 0.34375 0.304688 L 140.914062 0.304688 L 140.914062 16.683594 L 0.34375 16.683594 Z M 0.34375 0.304688 " clip-rule="nonzero"/></clipPath><clipPath id="e85f94638a"><rect x="0" width="141" y="0" height="17"/></clipPath><clipPath id="05490b086f"><path d="M 2.847656 61.152344 L 143.417969 61.152344 L 143.417969 77.535156 L 2.847656 77.535156 Z M 2.847656 61.152344 " clip-rule="nonzero"/></clipPath><clipPath id="e7bbd3b428"><path d="M 0.847656 0.152344 L 141.417969 0.152344 L 141.417969 16.535156 L 0.847656 16.535156 Z M 0.847656 0.152344 " clip-rule="nonzero"/></clipPath><clipPath id="57b01d9cf6"><rect x="0" width="142" y="0" height="17"/></clipPath></defs><g clip-path="url(#88368fcc1c)"><path fill="#ffffff" d="M 0.644531 0 L 149.355469 0 L 149.355469 97.40625 L 0.644531 97.40625 Z M 0.644531 0 " fill-opacity="1" fill-rule="nonzero"/><path fill="#ffffff" d="M 0.644531 0 L 149.355469 0 L 149.355469 97.40625 L 0.644531 97.40625 Z M 0.644531 0 " fill-opacity="1" fill-rule="nonzero"/></g><path stroke-linecap="round" transform="matrix(0.743551, 0, 0, 0.743551, 1.346738, -0.123438)" fill="none" stroke-linejoin="miter" d="M 4.498235 4.500152 L 193.787243 4.500152 " stroke="#000000" stroke-width="9" stroke-opacity="1" stroke-miterlimit="4"/><path stroke-linecap="round" transform="matrix(0.743551, 0, 0, 0.743551, 1.346738, 23.576809)" fill="none" stroke-linejoin="miter" d="M 4.498235 4.498769 L 193.787243 4.498769 " stroke="#000000" stroke-width="9" stroke-opacity="1" stroke-miterlimit="4"/><path stroke-linecap="round" transform="matrix(0.743551, 0, 0, 0.743551, 1.346738, 49.86644)" fill="none" stroke-linejoin="miter" d="M 4.498235 4.498005 L 193.787243 4.498005 " stroke="#000000" stroke-width="9" stroke-opacity="1" stroke-miterlimit="4"/><path stroke-linecap="round" transform="matrix(0.743551, 0, 0, 0.743551, 1.346738, 76.250151)" fill="none" stroke-linejoin="miter" d="M 4.498235 4.502049 L 193.787243 4.502049 " stroke="#000000" stroke-width="9" stroke-opacity="1" stroke-miterlimit="4"/><g clip-path="url(#95f5e8444a)"><path stroke-linecap="round" transform="matrix(0, -0.743551, 0.743551, 0, 0.752027, 97.40417)" fill="none" stroke-linejoin="miter" d="M 4.499456 4.499527 L 124.941292 4.499527 " stroke="#000000" stroke-width="9" stroke-opacity="1" stroke-miterlimit="4"/></g><g clip-path="url(#e178c13c16)"><path stroke-linecap="round" transform="matrix(0, -0.743551, 0.743551, 0, 142.662107, 97.40417)" fill="none" stroke-linejoin="miter" d="M 4.499456 4.49963 L 124.941292 4.49963 " stroke="#000000" stroke-width="9" stroke-opacity="1" stroke-miterlimit="4"/></g><g clip-path="url(#201b82b2b0)"><g transform="matrix(1, 0, 0, 1, 3, 9)"><g clip-path="url(#e85f94638a)"><g clip-path="url(#b5ffa1ffb6)"><path fill="#000000" d="M 0.34375 0.304688 L 140.933594 0.304688 L 140.933594 16.683594 L 0.34375 16.683594 Z M 0.34375 0.304688 " fill-opacity="1" fill-rule="nonzero"/></g></g></g></g><g clip-path="url(#05490b086f)"><g transform="matrix(1, 0, 0, 1, 2, 61)"><g clip-path="url(#57b01d9cf6)"><g clip-path="url(#e7bbd3b428)"><path fill="#000000" d="M 0.847656 0.152344 L 141.4375 0.152344 L 141.4375 16.535156 L 0.847656 16.535156 Z M 0.847656 0.152344 " fill-opacity="1" fill-rule="nonzero"/></g></g></g></g></svg>