<svg xmlns="http://www.w3.org/2000/svg" xmlns:xlink="http://www.w3.org/1999/xlink" width="200" zoomAndPan="magnify" viewBox="0 0 150 149.999998" height="200" preserveAspectRatio="xMidYMid meet" version="1.0"><defs><clipPath id="28e173b300"><path d="M 8.699219 2.355469 L 147.449219 2.355469 L 147.449219 144 L 8.699219 144 Z M 8.699219 2.355469 " clip-rule="nonzero"/></clipPath></defs><rect x="-15" width="180" fill="#ffffff" y="-15" height="179.999997" fill-opacity="1"/><rect x="-15" width="180" fill="#ffffff" y="-15" height="179.999997" fill-opacity="1"/><g clip-path="url(#28e173b300)"><path fill="#000000" d="M 52.558594 2.835938 L 50.304688 5.871094 C 49.015625 7.644531 25.628906 39.980469 14.507812 71.316406 C 11.007812 81.171875 8.699219 90.894531 8.699219 99.574219 C 8.699219 123.738281 28.199219 143.433594 52.214844 143.433594 C 76.378906 143.433594 96.074219 123.738281 96.074219 99.574219 C 96.074219 90.894531 93.828125 81.171875 90.355469 71.316406 C 79.304688 39.984375 56.09375 7.640625 54.8125 5.871094 Z M 116.878906 4.742188 L 116.878906 10.292969 L 141.84375 10.292969 L 141.84375 26.933594 L 130.746094 26.933594 L 130.746094 32.480469 L 141.84375 32.480469 L 141.84375 49.125 L 130.746094 49.125 L 130.746094 54.671875 L 141.84375 54.671875 L 141.84375 71.316406 L 116.878906 71.316406 L 116.878906 76.863281 L 141.84375 76.863281 L 141.84375 93.507812 L 130.746094 93.507812 L 130.746094 99.054688 L 141.84375 99.054688 L 141.84375 115.695312 L 130.746094 115.695312 L 130.746094 121.246094 L 141.84375 121.246094 L 141.84375 137.886719 L 116.878906 137.886719 L 116.878906 143.433594 L 147.390625 143.433594 L 147.390625 4.742188 Z M 52.558594 12.371094 C 58.589844 21.171875 75.25 46.640625 84.371094 71.316406 L 20.402344 71.316406 C 29.589844 46.640625 46.492188 21.164062 52.558594 12.371094 Z M 52.558594 12.371094 " fill-opacity="1" fill-rule="nonzero"/></g></svg>