<svg xmlns="http://www.w3.org/2000/svg" xmlns:xlink="http://www.w3.org/1999/xlink" width="200" zoomAndPan="magnify" viewBox="0 0 150 69.119995" height="82" preserveAspectRatio="xMidYMid meet" version="1.0"><defs><clipPath id="58cb925dc1"><path d="M 0.941406 0 L 149.054688 0 L 149.054688 60.726562 L 0.941406 60.726562 Z M 0.941406 0 " clip-rule="nonzero"/></clipPath><clipPath id="5b05b14ff8"><path d="M 4 1.246094 L 146.167969 1.246094 L 146.167969 59.75 L 4 59.75 Z M 4 1.246094 " clip-rule="nonzero"/></clipPath></defs><g clip-path="url(#58cb925dc1)"><path fill="#ffffff" d="M 0.941406 0 L 149.058594 0 L 149.058594 60.726562 L 0.941406 60.726562 Z M 0.941406 0 " fill-opacity="1" fill-rule="nonzero"/><path fill="#ffffff" d="M 0.941406 0 L 149.058594 0 L 149.058594 60.726562 L 0.941406 60.726562 Z M 0.941406 0 " fill-opacity="1" fill-rule="nonzero"/></g><g clip-path="url(#5b05b14ff8)"><path fill="#1b447a" d="M 116.9375 59.726562 L 33.253906 59.726562 C 17.160156 59.726562 4.113281 46.632812 4.113281 30.476562 C 4.113281 14.324219 17.160156 1.230469 33.253906 1.230469 L 116.9375 1.230469 C 133.03125 1.230469 146.078125 14.324219 146.078125 30.476562 C 146.078125 46.632812 133.03125 59.726562 116.9375 59.726562 Z M 116.9375 59.726562 " fill-opacity="1" fill-rule="nonzero"/></g><path fill="#ffffff" d="M 60.242188 30.476562 C 60.242188 31.328125 60.203125 32.175781 60.117188 33.023438 C 60.035156 33.867188 59.910156 34.707031 59.746094 35.542969 C 59.582031 36.375 59.375 37.199219 59.128906 38.011719 C 58.882812 38.824219 58.597656 39.625 58.273438 40.410156 C 57.949219 41.195312 57.589844 41.960938 57.191406 42.710938 C 56.792969 43.460938 56.355469 44.191406 55.886719 44.898438 C 55.414062 45.605469 54.910156 46.285156 54.375 46.941406 C 53.835938 47.597656 53.269531 48.230469 52.671875 48.828125 C 52.070312 49.429688 51.445312 50 50.789062 50.539062 C 50.136719 51.078125 49.457031 51.585938 48.75 52.058594 C 48.046875 52.53125 47.320312 52.964844 46.574219 53.367188 C 45.828125 53.765625 45.0625 54.128906 44.28125 54.457031 C 43.5 54.78125 42.703125 55.066406 41.890625 55.3125 C 41.082031 55.558594 40.261719 55.765625 39.429688 55.933594 C 38.601562 56.097656 37.765625 56.222656 36.921875 56.304688 C 36.078125 56.390625 35.234375 56.429688 34.386719 56.429688 C 33.539062 56.429688 32.695312 56.390625 31.851562 56.304688 C 31.007812 56.222656 30.171875 56.097656 29.34375 55.933594 C 28.511719 55.765625 27.691406 55.558594 26.878906 55.3125 C 26.070312 55.066406 25.273438 54.78125 24.492188 54.457031 C 23.710938 54.128906 22.945312 53.765625 22.199219 53.367188 C 21.449219 52.964844 20.726562 52.53125 20.019531 52.058594 C 19.316406 51.585938 18.636719 51.078125 17.984375 50.539062 C 17.328125 50 16.703125 49.429688 16.101562 48.828125 C 15.503906 48.230469 14.9375 47.597656 14.398438 46.941406 C 13.863281 46.285156 13.359375 45.605469 12.886719 44.898438 C 12.417969 44.191406 11.980469 43.460938 11.582031 42.710938 C 11.183594 41.960938 10.820312 41.195312 10.496094 40.410156 C 10.171875 39.625 9.890625 38.824219 9.644531 38.011719 C 9.398438 37.199219 9.191406 36.375 9.027344 35.542969 C 8.859375 34.707031 8.738281 33.867188 8.652344 33.023438 C 8.570312 32.175781 8.53125 31.328125 8.53125 30.476562 C 8.53125 29.628906 8.570312 28.78125 8.652344 27.933594 C 8.738281 27.089844 8.859375 26.25 9.027344 25.414062 C 9.191406 24.582031 9.398438 23.757812 9.644531 22.945312 C 9.890625 22.132812 10.171875 21.332031 10.496094 20.546875 C 10.820312 19.761719 11.183594 18.992188 11.582031 18.246094 C 11.980469 17.496094 12.417969 16.765625 12.886719 16.058594 C 13.359375 15.351562 13.863281 14.671875 14.398438 14.015625 C 14.9375 13.355469 15.503906 12.726562 16.101562 12.125 C 16.703125 11.527344 17.328125 10.957031 17.984375 10.417969 C 18.636719 9.878906 19.316406 9.371094 20.019531 8.898438 C 20.726562 8.425781 21.449219 7.992188 22.199219 7.589844 C 22.945312 7.1875 23.710938 6.828125 24.492188 6.5 C 25.273438 6.175781 26.070312 5.890625 26.878906 5.644531 C 27.691406 5.394531 28.511719 5.191406 29.34375 5.023438 C 30.171875 4.859375 31.007812 4.734375 31.851562 4.652344 C 32.695312 4.566406 33.539062 4.527344 34.386719 4.527344 C 35.234375 4.527344 36.078125 4.566406 36.921875 4.652344 C 37.765625 4.734375 38.601562 4.859375 39.429688 5.023438 C 40.261719 5.191406 41.082031 5.394531 41.890625 5.644531 C 42.703125 5.890625 43.5 6.175781 44.28125 6.5 C 45.0625 6.828125 45.828125 7.1875 46.574219 7.589844 C 47.320312 7.992188 48.046875 8.425781 48.75 8.898438 C 49.457031 9.371094 50.136719 9.878906 50.789062 10.417969 C 51.445312 10.957031 52.070312 11.527344 52.671875 12.125 C 53.269531 12.726562 53.835938 13.355469 54.375 14.015625 C 54.910156 14.671875 55.414062 15.351562 55.886719 16.058594 C 56.355469 16.765625 56.792969 17.496094 57.191406 18.246094 C 57.589844 18.992188 57.949219 19.761719 58.273438 20.546875 C 58.597656 21.332031 58.882812 22.132812 59.128906 22.945312 C 59.375 23.757812 59.582031 24.582031 59.746094 25.414062 C 59.910156 26.25 60.035156 27.089844 60.117188 27.933594 C 60.203125 28.78125 60.242188 29.628906 60.242188 30.476562 Z M 60.242188 30.476562 " fill-opacity="1" fill-rule="nonzero"/><path fill="#f2f2f2" d="M 69.75 38.007812 L 69.75 22.929688 L 73.167969 22.929688 C 78.152344 32.636719 78.90625 34.109375 79.148438 34.808594 L 79.1875 34.808594 C 79.042969 32.945312 79.019531 30.488281 79.019531 28.03125 L 79.019531 22.929688 L 81.460938 22.929688 L 81.460938 38.007812 L 78.210938 38.007812 C 72.871094 27.394531 72.355469 26.28125 72.101562 25.691406 L 72.078125 25.691406 C 72.1875 27.613281 72.1875 30.191406 72.1875 32.886719 L 72.1875 38.007812 Z M 69.75 38.007812 " fill-opacity="1" fill-rule="nonzero"/><path fill="#f2f2f2" d="M 84.988281 22.933594 L 87.640625 22.933594 L 87.640625 38.011719 L 84.988281 38.011719 Z M 84.988281 22.933594 " fill-opacity="1" fill-rule="nonzero"/><path fill="#f2f2f2" d="M 102.832031 38.007812 L 100.859375 38.007812 C 100.761719 37.535156 100.6875 36.859375 100.652344 36.113281 C 99.875 37.691406 98.378906 38.230469 96.40625 38.230469 C 92.480469 38.230469 90.46875 34.914062 90.46875 30.554688 C 90.46875 26.214844 92.847656 22.730469 97.195312 22.730469 C 100.636719 22.730469 102.46875 24.636719 102.867188 27.203125 L 100.265625 27.203125 C 99.929688 26.019531 99.148438 24.894531 97.054688 24.894531 C 94.277344 24.894531 93.199219 27.484375 93.199219 30.570312 C 93.199219 33.558594 94.289062 36.082031 96.972656 36.082031 C 99.566406 36.082031 100.210938 34.277344 100.210938 32.050781 L 100.210938 31.96875 L 96.816406 31.96875 L 96.816406 29.691406 L 102.839844 29.691406 C 102.832031 34.105469 102.832031 37.625 102.832031 38.007812 Z M 102.832031 38.007812 " fill-opacity="1" fill-rule="nonzero"/><path fill="#f2f2f2" d="M 105.984375 22.933594 L 108.636719 22.933594 L 108.636719 29.023438 L 114.648438 29.023438 L 114.648438 22.933594 L 117.304688 22.933594 L 117.304688 38.011719 L 114.648438 38.011719 L 114.648438 31.246094 L 108.636719 31.246094 L 108.636719 38.011719 L 105.984375 38.011719 Z M 105.984375 22.933594 " fill-opacity="1" fill-rule="nonzero"/><path fill="#f2f2f2" d="M 123.527344 25.15625 L 119.34375 25.15625 L 119.34375 22.933594 L 130.386719 22.933594 L 130.386719 25.15625 L 126.199219 25.15625 L 126.199219 38.011719 L 123.527344 38.011719 Z M 123.527344 25.15625 " fill-opacity="1" fill-rule="nonzero"/><path fill="#1b447a" d="M 24.558594 32.253906 C 22.707031 27.390625 23.726562 22.128906 26.789062 18.367188 C 26.273438 18.488281 25.761719 18.648438 25.25 18.84375 C 18.945312 21.261719 15.78125 28.363281 18.195312 34.691406 C 20.609375 41.023438 27.679688 44.195312 33.988281 41.773438 C 34.496094 41.578125 34.984375 41.347656 35.449219 41.101562 C 30.671875 40.347656 26.414062 37.117188 24.558594 32.253906 Z M 24.558594 32.253906 " fill-opacity="1" fill-rule="nonzero"/><path fill="#1b447a" d="M 40.425781 24.792969 L 43.703125 25.832031 L 40.425781 26.875 L 39.390625 30.160156 L 38.355469 26.875 L 35.078125 25.832031 L 38.355469 24.792969 L 39.390625 21.507812 Z M 40.425781 24.792969 " fill-opacity="1" fill-rule="nonzero"/><path fill="#1b447a" d="M 49.210938 28.011719 L 51.382812 28.703125 L 49.210938 29.394531 L 48.523438 31.574219 L 47.835938 29.394531 L 45.664062 28.703125 L 47.835938 28.011719 L 48.523438 25.832031 Z M 49.210938 28.011719 " fill-opacity="1" fill-rule="nonzero"/><path fill="#1b447a" d="M 44.183594 32.160156 L 45.714844 32.644531 L 44.183594 33.132812 L 43.703125 34.664062 L 43.214844 33.132812 L 41.6875 32.644531 L 43.214844 32.160156 L 43.703125 30.625 Z M 44.183594 32.160156 " fill-opacity="1" fill-rule="nonzero"/></svg>