<svg xmlns="http://www.w3.org/2000/svg" xmlns:xlink="http://www.w3.org/1999/xlink" width="200" zoomAndPan="magnify" viewBox="0 0 150 149.999998" height="200" preserveAspectRatio="xMidYMid meet" version="1.0"><defs><clipPath id="7262757874"><path d="M 26.289062 7.242188 L 123.582031 7.242188 L 123.582031 136.992188 L 26.289062 136.992188 Z M 26.289062 7.242188 " clip-rule="nonzero"/></clipPath></defs><rect x="-15" width="180" fill="#ffffff" y="-15" height="179.999997" fill-opacity="1"/><rect x="-15" width="180" fill="#ffffff" y="-15" height="179.999997" fill-opacity="1"/><path fill="#000000" d="M 49.421875 51.125 C 49.855469 51.398438 50.371094 51.5625 50.886719 51.5625 C 51.804688 51.5625 52.671875 51.101562 53.15625 50.347656 C 53.964844 49.074219 53.617188 47.410156 52.390625 46.589844 C 52.382812 46.589844 52.378906 46.585938 52.371094 46.578125 C 51.15625 45.800781 49.421875 46.144531 48.640625 47.363281 L 48.609375 47.390625 C 48.234375 47.988281 48.09375 48.71875 48.234375 49.398438 C 48.398438 50.125 48.800781 50.722656 49.421875 51.125 " fill-opacity="1" fill-rule="nonzero"/><g clip-path="url(#7262757874)"><path fill="#000000" d="M 103.75 81.074219 C 99.925781 71.492188 93.746094 61.007812 88.09375 51.996094 C 84.902344 46.945312 81.726562 42.207031 78.902344 38.132812 C 83.933594 29.300781 90.207031 20.203125 94.476562 14.398438 C 102.699219 25.5625 118.296875 48.867188 118.296875 59.140625 C 118.296875 68.984375 112.289062 77.449219 103.75 81.074219 Z M 123.707031 59.140625 C 123.707031 43.753906 97.734375 9.683594 96.628906 8.242188 C 95.601562 6.902344 93.355469 6.902344 92.332031 8.242188 C 91.695312 9.070312 82.882812 20.640625 75.476562 33.257812 C 71.652344 27.890625 69.058594 24.515625 69.015625 24.46875 C 68.015625 23.148438 65.746094 23.148438 64.710938 24.46875 L 64.679688 24.550781 C 63.605469 25.960938 59.707031 31.128906 54.722656 38.328125 C 54.320312 38.925781 54.15625 39.628906 54.296875 40.332031 C 54.429688 41.0625 54.8125 41.683594 55.402344 42.089844 C 55.410156 42.09375 55.417969 42.09375 55.417969 42.09375 C 56.609375 42.898438 58.355469 42.570312 59.164062 41.414062 C 62.359375 36.816406 65.089844 33.050781 66.875 30.640625 C 68.292969 32.546875 70.253906 35.246094 72.53125 38.484375 C 73.089844 39.277344 73.664062 40.101562 74.253906 40.949219 C 74.828125 41.773438 75.40625 42.617188 75.996094 43.484375 C 78.382812 46.96875 80.945312 50.84375 83.519531 54.914062 C 90.207031 65.375 95.320312 74.910156 98.476562 82.609375 C 98.835938 83.496094 99.167969 84.351562 99.476562 85.179688 C 99.804688 86.074219 100.101562 86.9375 100.371094 87.765625 C 101.496094 91.257812 102.089844 94.214844 102.054688 96.484375 C 102.03125 115.824219 86.257812 131.632812 66.875 131.664062 C 47.503906 131.632812 31.726562 115.824219 31.695312 96.484375 C 31.589844 89.445312 37.464844 75.59375 47.421875 59.4375 C 48.175781 58.171875 47.773438 56.503906 46.523438 55.71875 C 46.515625 55.710938 46.507812 55.707031 46.503906 55.699219 C 45.28125 54.96875 43.554688 55.378906 42.816406 56.59375 C 42.792969 56.59375 42.792969 56.59375 42.792969 56.617188 C 35.164062 69.253906 26.394531 85.199219 26.289062 96.484375 C 26.289062 118.855469 44.496094 137.074219 66.875 137.074219 C 89.257812 137.074219 107.464844 118.855469 107.464844 96.484375 C 107.433594 93.363281 106.742188 89.871094 105.578125 86.167969 C 116.203125 81.789062 123.707031 71.332031 123.707031 59.140625 " fill-opacity="1" fill-rule="nonzero"/></g><path fill="#000000" d="M 50.640625 96.484375 L 53.347656 96.484375 C 54.835938 96.484375 56.050781 97.699219 56.050781 99.1875 C 56.050781 100.679688 54.835938 101.894531 53.347656 101.894531 L 50.640625 101.894531 Z M 45.234375 93.773438 L 45.234375 110.011719 C 45.234375 111.511719 46.441406 112.71875 47.9375 112.71875 C 49.429688 112.71875 50.640625 111.511719 50.640625 110.011719 L 50.640625 107.308594 L 53.347656 107.308594 C 57.824219 107.308594 61.46875 103.667969 61.46875 99.1875 C 61.46875 94.710938 57.824219 91.066406 53.347656 91.066406 L 47.9375 91.066406 C 46.441406 91.066406 45.234375 92.28125 45.234375 93.773438 " fill-opacity="1" fill-rule="nonzero"/><path fill="#000000" d="M 69.585938 77.539062 C 68.089844 77.539062 66.875 78.753906 66.875 80.242188 L 66.875 104.597656 C 66.875 106.09375 68.089844 107.308594 69.585938 107.308594 C 71.078125 107.308594 72.292969 106.09375 72.292969 104.597656 L 72.292969 96.484375 L 83.109375 96.484375 L 83.109375 104.597656 C 83.109375 106.09375 84.324219 107.308594 85.820312 107.308594 C 87.320312 107.308594 88.527344 106.09375 88.527344 104.597656 L 88.527344 80.242188 C 88.527344 78.753906 87.320312 77.539062 85.820312 77.539062 C 84.386719 77.539062 83.222656 78.65625 83.128906 80.066406 C 83.128906 80.128906 83.109375 80.1875 83.109375 80.242188 L 83.109375 91.066406 L 72.292969 91.066406 L 72.292969 80.242188 C 72.292969 78.753906 71.078125 77.539062 69.585938 77.539062 " fill-opacity="1" fill-rule="nonzero"/></svg>