<svg xmlns="http://www.w3.org/2000/svg" xmlns:xlink="http://www.w3.org/1999/xlink" width="200" zoomAndPan="magnify" viewBox="0 0 150 89.999999" height="120" preserveAspectRatio="xMidYMid meet" version="1.0"><defs><clipPath id="ffb08ff993"><path d="M 13.300781 28 L 67.34375 28 L 67.34375 62 L 13.300781 62 Z M 13.300781 28 " clip-rule="nonzero"/></clipPath><clipPath id="d7df90b67b"><path d="M 48 20.265625 L 50 20.265625 L 50 25 L 48 25 Z M 48 20.265625 " clip-rule="nonzero"/></clipPath><clipPath id="d3cbe23104"><path d="M 32 36 L 49 36 L 49 68.679688 L 32 68.679688 Z M 32 36 " clip-rule="nonzero"/></clipPath><clipPath id="77f87eaefb"><path d="M 1.011719 0 L 79.824219 0 L 79.824219 90 L 1.011719 90 Z M 1.011719 0 " clip-rule="nonzero"/></clipPath><clipPath id="1a68431503"><rect x="0" width="80" y="0" height="90"/></clipPath></defs><rect x="-15" width="180" fill="#ffffff" y="-9" height="107.999999" fill-opacity="1"/><rect x="-15" width="180" fill="#ffffff" y="-9" height="107.999999" fill-opacity="1"/><g transform="matrix(1, 0, 0, 1, 40, -0.00000000000000949)"><g clip-path="url(#1a68431503)"><path fill="#f0c419" d="M 56.597656 42.914062 C 56.226562 42.914062 55.953125 42.585938 55.96875 42.25 C 52.296875 40.828125 42.984375 32.984375 40.894531 31.203125 C 40.710938 31.273438 40.5 31.25 40.324219 31.136719 C 40.035156 30.9375 39.960938 30.542969 40.148438 30.253906 C 42.109375 27.351562 45.367188 25.617188 48.855469 25.617188 C 54.652344 25.617188 59.363281 30.335938 59.363281 36.144531 C 59.363281 38.542969 58.582031 40.796875 57.09375 42.675781 C 56.972656 42.828125 56.789062 42.914062 56.597656 42.914062 Z M 56.597656 42.914062 " fill-opacity="1" fill-rule="evenodd"/><g clip-path="url(#ffb08ff993)"><path fill="#80cdf6" d="M 58.871094 61.261719 C 58.664062 61.261719 58.453125 61.257812 58.238281 61.230469 C 58.058594 61.257812 57.875 61.261719 57.699219 61.261719 L 48.121094 61.261719 C 48.128906 61.117188 47.945312 60.988281 47.945312 60.84375 C 47.945312 58.179688 46.644531 55.84375 44.425781 54.394531 L 44.398438 40.796875 C 44.390625 38.4375 42.664062 36.800781 40.308594 36.800781 C 37.945312 36.800781 36.152344 38.4375 36.222656 40.796875 L 36.359375 45.953125 L 36.199219 54.265625 C 34.921875 55.105469 34.003906 56.414062 33.402344 57.761719 C 32.972656 58.742188 32.507812 59.703125 32.507812 60.828125 C 32.507812 60.972656 32.515625 61.117188 32.523438 61.261719 L 23.558594 61.261719 C 17.90625 61.261719 13.308594 56.65625 13.308594 50.992188 C 13.308594 44.976562 18.476562 40.234375 24.476562 40.773438 C 24.402344 34.265625 29.671875 28.988281 36.121094 28.988281 C 40.285156 28.988281 44.101562 31.195312 46.191406 34.789062 C 51.902344 34.683594 56.839844 38.75 57.859375 44.351562 C 62.886719 43.75 67.332031 47.703125 67.332031 52.773438 C 67.332031 57.457031 63.535156 61.261719 58.871094 61.261719 Z M 58.871094 61.261719 " fill-opacity="1" fill-rule="evenodd"/></g><path stroke-linecap="butt" transform="matrix(0.00759826, 0, 0, 0.00761491, 13.30891, 17.384356)" fill-opacity="1" fill="#58c7eb" fill-rule="evenodd" stroke-linejoin="miter" d="M 2549.884668 5346.013707 L 2097.992481 5346.013707 C 2052.237754 5346.013707 2014.708597 5309.07957 2014.708597 5262.911897 C 2014.708597 5217.257199 2052.237754 5178.784139 2097.992481 5178.784139 L 2549.884668 5178.784139 C 2592.040708 5178.784139 2626.999376 5211.101509 2632.140356 5252.13944 C 2619.802003 5277.788147 2607.977748 5303.949828 2597.181689 5331.137457 C 2583.815139 5339.858018 2566.849904 5346.013707 2549.884668 5346.013707 Z M 1348.95162 5346.013707 C 834.853569 5346.013707 416.891853 4927.939785 416.891853 4413.9397 C 416.891853 4367.772027 453.906913 4330.83789 500.175738 4330.83789 C 545.930464 4330.83789 583.97372 4367.772027 583.97372 4413.9397 C 583.97372 4836.117415 926.87712 5178.784139 1348.95162 5178.784139 C 1395.220445 5178.784139 1431.721407 5217.257199 1431.721407 5262.911897 C 1431.721407 5309.07957 1395.220445 5346.013707 1348.95162 5346.013707 Z M 1348.95162 5346.013707 " stroke="#58c7eb" stroke-width="3" stroke-opacity="1" stroke-miterlimit="4"/><path fill="#58c7eb" d="M 29.050781 37.902344 C 28.59375 37.902344 28.273438 37.417969 28.480469 36.992188 C 29.894531 34.050781 32.886719 32.15625 36.121094 32.15625 C 36.472656 32.15625 36.753906 32.445312 36.753906 32.796875 C 36.753906 33.136719 36.472656 33.425781 36.121094 33.425781 C 33.375 33.425781 30.820312 35.042969 29.621094 37.539062 C 29.515625 37.765625 29.285156 37.902344 29.050781 37.902344 Z M 29.050781 37.902344 " fill-opacity="1" fill-rule="evenodd"/><path fill="#f29c1f" d="M 42.679688 25.796875 C 42.460938 25.796875 42.246094 25.683594 42.132812 25.476562 L 40.894531 23.324219 C 40.71875 23.027344 40.828125 22.636719 41.121094 22.460938 C 41.425781 22.289062 41.8125 22.386719 41.988281 22.691406 L 43.226562 24.847656 C 43.476562 25.273438 43.167969 25.796875 42.679688 25.796875 Z M 42.679688 25.796875 " fill-opacity="1" fill-rule="evenodd"/><g clip-path="url(#d7df90b67b)"><path fill="#f29c1f" d="M 49.230469 24.007812 C 48.878906 24.007812 48.589844 23.726562 48.589844 23.375 L 48.589844 20.894531 C 48.589844 20.542969 48.878906 20.253906 49.230469 20.253906 C 49.570312 20.253906 49.859375 20.542969 49.859375 20.894531 L 49.859375 23.375 C 49.859375 23.726562 49.570312 24.007812 49.230469 24.007812 Z M 49.230469 24.007812 " fill-opacity="1" fill-rule="evenodd"/></g><path fill="#f29c1f" d="M 55.785156 25.742188 C 55.296875 25.742188 54.988281 25.21875 55.238281 24.792969 L 56.476562 22.636719 C 56.652344 22.339844 57.039062 22.234375 57.34375 22.410156 C 57.636719 22.585938 57.746094 22.972656 57.570312 23.277344 L 56.332031 25.425781 C 56.210938 25.628906 56 25.742188 55.785156 25.742188 Z M 55.785156 25.742188 " fill-opacity="1" fill-rule="evenodd"/><path fill="#f29c1f" d="M 60.601562 30.53125 C 59.957031 30.53125 59.71875 29.671875 60.285156 29.347656 L 62.425781 28.105469 C 62.730469 27.929688 63.117188 28.035156 63.289062 28.339844 C 63.464844 28.644531 63.367188 29.035156 63.0625 29.207031 L 60.914062 30.449219 C 60.8125 30.503906 60.707031 30.53125 60.601562 30.53125 Z M 60.601562 30.53125 " fill-opacity="1" fill-rule="evenodd"/><path fill="#f29c1f" d="M 64.855469 37.089844 L 62.378906 37.089844 C 62.03125 37.089844 61.742188 36.808594 61.742188 36.457031 C 61.742188 36.109375 62.03125 35.824219 62.378906 35.824219 L 64.855469 35.824219 C 65.207031 35.824219 65.488281 36.109375 65.488281 36.457031 C 65.488281 36.808594 65.207031 37.089844 64.855469 37.089844 Z M 64.855469 37.089844 " fill-opacity="1" fill-rule="evenodd"/><path fill="#f29c1f" d="M 62.796875 44.910156 C 62.683594 44.910156 62.578125 44.878906 62.480469 44.816406 L 60.328125 43.578125 C 60.03125 43.402344 59.925781 43.011719 60.101562 42.707031 C 60.273438 42.410156 60.664062 42.304688 60.96875 42.480469 L 63.109375 43.722656 C 63.671875 44.046875 63.433594 44.910156 62.796875 44.910156 Z M 62.796875 44.910156 " fill-opacity="1" fill-rule="evenodd"/><g clip-path="url(#d3cbe23104)"><path fill="#efefef" d="M 40.324219 68.65625 C 36.015625 68.65625 32.507812 65.148438 32.507812 60.828125 C 32.507812 58.164062 33.828125 55.734375 36.046875 54.28125 L 36.046875 40.796875 C 36.046875 38.4375 37.960938 36.511719 40.324219 36.511719 C 42.679688 36.511719 44.601562 38.4375 44.601562 40.796875 L 44.601562 54.28125 C 46.820312 55.734375 48.132812 58.164062 48.132812 60.828125 C 48.132812 65.148438 44.632812 68.65625 40.324219 68.65625 Z M 40.324219 68.65625 " fill-opacity="1" fill-rule="evenodd"/></g><path fill="#ff1e55" d="M 40.324219 57.835938 C 39.824219 57.835938 39.421875 57.433594 39.421875 56.9375 L 39.421875 42.3125 C 39.421875 41.816406 39.824219 41.414062 40.324219 41.414062 C 40.820312 41.414062 41.222656 41.816406 41.222656 42.3125 L 41.222656 56.9375 C 41.222656 57.433594 40.820312 57.835938 40.324219 57.835938 Z M 40.324219 57.835938 " fill-opacity="1" fill-rule="evenodd"/><path fill="#ff1e55" d="M 40.324219 65.214844 C 37.910156 65.214844 35.941406 63.25 35.941406 60.828125 C 35.941406 58.410156 37.910156 56.445312 40.324219 56.445312 C 42.734375 56.445312 44.703125 58.410156 44.703125 60.828125 C 44.703125 63.25 42.734375 65.214844 40.324219 65.214844 Z M 40.324219 65.214844 " fill-opacity="1" fill-rule="evenodd"/><g clip-path="url(#77f87eaefb)"><path fill="#231f20" d="M 76.960938 31.496094 C 76.789062 31.558594 76.605469 31.601562 76.410156 31.601562 L 73.355469 31.601562 L 73.355469 10.476562 L 76.410156 10.476562 C 76.605469 10.476562 76.789062 10.515625 76.960938 10.578125 C 77.585938 10.804688 78.03125 11.390625 78.03125 12.085938 L 78.03125 29.988281 C 78.03125 30.683594 77.585938 31.269531 76.960938 31.496094 Z M 75.164062 4.050781 L 75.164062 8.683594 L 73.355469 8.683594 L 73.355469 4.050781 C 73.355469 3.234375 73.109375 2.476562 72.683594 1.84375 L 72.941406 1.84375 C 74.164062 1.84375 75.164062 2.832031 75.164062 4.050781 Z M 11.640625 88.21875 L 10.226562 88.21875 C 9 88.21875 8.003906 87.230469 8.003906 86.011719 L 8.003906 76.960938 L 11.691406 76.960938 C 12.1875 76.960938 12.589844 76.5625 12.589844 76.066406 C 12.589844 75.574219 12.1875 75.171875 11.691406 75.171875 L 8.003906 75.171875 L 8.003906 66.480469 L 11.691406 66.480469 C 12.1875 66.480469 12.589844 66.078125 12.589844 65.585938 C 12.589844 65.089844 12.1875 64.6875 11.691406 64.6875 L 8.003906 64.6875 L 8.003906 56 L 11.691406 56 C 12.1875 56 12.589844 55.597656 12.589844 55.105469 C 12.589844 54.609375 12.1875 54.207031 11.691406 54.207031 L 8.003906 54.207031 L 8.003906 33.289062 L 11.691406 33.289062 C 12.1875 33.289062 12.589844 32.886719 12.589844 32.390625 C 12.589844 31.898438 12.1875 31.496094 11.691406 31.496094 L 8.003906 31.496094 L 8.003906 22.804688 L 11.691406 22.804688 C 12.1875 22.804688 12.589844 22.40625 12.589844 21.910156 C 12.589844 21.414062 12.1875 21.015625 11.691406 21.015625 L 8.003906 21.015625 L 8.003906 12.324219 L 11.691406 12.324219 C 12.1875 12.324219 12.589844 11.921875 12.589844 11.429688 C 12.589844 10.933594 12.1875 10.53125 11.691406 10.53125 L 8.003906 10.53125 L 8.003906 4.050781 C 8.003906 2.832031 9 1.84375 10.226562 1.84375 L 69.335938 1.84375 C 70.558594 1.84375 71.554688 2.832031 71.554688 4.050781 L 71.554688 86.011719 C 71.554688 87.230469 70.558594 88.21875 69.335938 88.21875 Z M 75.164062 86.011719 C 75.164062 87.230469 74.164062 88.21875 72.941406 88.21875 L 72.683594 88.21875 C 73.109375 87.585938 73.355469 86.828125 73.355469 86.011719 L 73.355469 79.21875 L 75.164062 79.21875 Z M 78.03125 75.816406 C 78.03125 76.511719 77.585938 77.101562 76.960938 77.328125 C 76.789062 77.390625 76.605469 77.429688 76.410156 77.429688 L 73.355469 77.429688 L 73.355469 56.304688 L 76.410156 56.304688 C 76.605469 56.304688 76.789062 56.347656 76.960938 56.410156 C 77.585938 56.632812 78.03125 57.222656 78.03125 57.917969 Z M 78.03125 52.902344 C 78.03125 53.597656 77.585938 54.1875 76.960938 54.410156 C 76.789062 54.476562 76.605469 54.515625 76.410156 54.515625 L 73.355469 54.515625 L 73.355469 33.390625 L 76.410156 33.390625 C 76.605469 33.390625 76.789062 33.429688 76.960938 33.492188 C 77.585938 33.71875 78.03125 34.308594 78.03125 35.003906 Z M 76.960938 8.734375 L 76.960938 4.050781 C 76.960938 1.847656 75.160156 0.0507812 72.941406 0.0507812 L 10.226562 0.0507812 C 8.007812 0.0507812 6.203125 1.847656 6.203125 4.050781 L 6.203125 10.53125 L 1.929688 10.53125 C 1.429688 10.53125 1.027344 10.933594 1.027344 11.429688 C 1.027344 11.921875 1.429688 12.324219 1.929688 12.324219 L 6.203125 12.324219 L 6.203125 21.015625 L 1.929688 21.015625 C 1.429688 21.015625 1.027344 21.414062 1.027344 21.910156 C 1.027344 22.40625 1.429688 22.804688 1.929688 22.804688 L 6.203125 22.804688 L 6.203125 31.496094 L 1.929688 31.496094 C 1.429688 31.496094 1.027344 31.898438 1.027344 32.390625 C 1.027344 32.886719 1.429688 33.289062 1.929688 33.289062 L 6.203125 33.289062 L 6.203125 54.207031 L 1.929688 54.207031 C 1.429688 54.207031 1.027344 54.609375 1.027344 55.105469 C 1.027344 55.597656 1.429688 56 1.929688 56 L 6.203125 56 L 6.203125 64.6875 L 1.929688 64.6875 C 1.429688 64.6875 1.027344 65.089844 1.027344 65.585938 C 1.027344 66.078125 1.429688 66.480469 1.929688 66.480469 L 6.203125 66.480469 L 6.203125 75.171875 L 1.929688 75.171875 C 1.429688 75.171875 1.027344 75.574219 1.027344 76.066406 C 1.027344 76.5625 1.429688 76.960938 1.929688 76.960938 L 6.203125 76.960938 L 6.203125 86.011719 C 6.203125 88.21875 8.007812 90.011719 10.226562 90.011719 L 72.941406 90.011719 C 75.160156 90.011719 76.960938 88.21875 76.960938 86.011719 L 76.960938 79.171875 C 78.589844 78.910156 79.835938 77.507812 79.835938 75.816406 L 79.835938 57.917969 C 79.835938 56.925781 79.402344 56.03125 78.714844 55.410156 C 79.402344 54.785156 79.835938 53.894531 79.835938 52.902344 L 79.835938 35.003906 C 79.835938 34.007812 79.402344 33.117188 78.714844 32.496094 C 79.402344 31.871094 79.835938 30.980469 79.835938 29.988281 L 79.835938 12.085938 C 79.835938 10.398438 78.589844 8.996094 76.960938 8.734375 " fill-opacity="1" fill-rule="nonzero"/></g></g></g></svg>