<svg xmlns="http://www.w3.org/2000/svg" xmlns:xlink="http://www.w3.org/1999/xlink" width="170" zoomAndPan="magnify" viewBox="0 0 127.5 149.999998" height="200" preserveAspectRatio="xMidYMid meet" version="1.0"><defs><clipPath id="1356b23d4d"><path d="M 0 0.292969 L 127 0.292969 L 127 149.707031 L 0 149.707031 Z M 0 0.292969 " clip-rule="nonzero"/></clipPath><clipPath id="ae4ffd79ed"><path d="M 18.710938 44 L 100.292969 44 L 100.292969 94 L 18.710938 94 Z M 18.710938 44 " clip-rule="nonzero"/></clipPath><clipPath id="468c30044c"><path d="M 71 31.410156 L 74 31.410156 L 74 38 L 71 38 Z M 71 31.410156 " clip-rule="nonzero"/></clipPath><clipPath id="545c35b819"><path d="M 47 55 L 72 55 L 72 104.492188 L 47 104.492188 Z M 47 55 " clip-rule="nonzero"/></clipPath><clipPath id="0c093f4793"><path d="M 0.160156 0.816406 L 119.132812 0.816406 L 119.132812 136.785156 L 0.160156 136.785156 Z M 0.160156 0.816406 " clip-rule="nonzero"/></clipPath><clipPath id="52bdd58cdb"><rect x="0" width="120" y="0" height="137"/></clipPath></defs><g clip-path="url(#1356b23d4d)"><path fill="#ffffff" d="M 0 0.292969 L 127 0.292969 L 127 149.707031 L 0 149.707031 Z M 0 0.292969 " fill-opacity="1" fill-rule="nonzero"/><path fill="#ffffff" d="M 0 0.292969 L 127 0.292969 L 127 149.707031 L 0 149.707031 Z M 0 0.292969 " fill-opacity="1" fill-rule="nonzero"/></g><g transform="matrix(1, 0, 0, 1, 2, 7)"><g clip-path="url(#52bdd58cdb)"><path fill="#f0c419" d="M 84.074219 65.597656 C 83.507812 65.597656 83.097656 65.101562 83.121094 64.597656 C 77.582031 62.449219 63.519531 50.609375 60.367188 47.917969 C 60.089844 48.023438 59.769531 47.988281 59.507812 47.816406 C 59.070312 47.519531 58.957031 46.921875 59.242188 46.484375 C 62.199219 42.105469 67.121094 39.484375 72.386719 39.484375 C 81.136719 39.484375 88.246094 46.609375 88.246094 55.378906 C 88.246094 59 87.066406 62.402344 84.816406 65.242188 C 84.636719 65.46875 84.359375 65.597656 84.074219 65.597656 Z M 84.074219 65.597656 " fill-opacity="1" fill-rule="evenodd"/><g clip-path="url(#ae4ffd79ed)"><path fill="#80cdf6" d="M 87.503906 93.296875 C 87.191406 93.296875 86.871094 93.285156 86.550781 93.25 C 86.273438 93.285156 86 93.296875 85.734375 93.296875 L 71.273438 93.296875 C 71.285156 93.078125 71.007812 92.882812 71.007812 92.664062 C 71.007812 88.644531 69.050781 85.113281 65.699219 82.929688 L 65.652344 62.402344 C 65.640625 58.839844 63.039062 56.367188 59.480469 56.367188 C 55.917969 56.367188 53.210938 58.839844 53.3125 62.402344 L 53.519531 70.183594 L 53.277344 82.734375 C 51.351562 84 49.964844 85.976562 49.058594 88.011719 C 48.40625 89.492188 47.703125 90.941406 47.703125 92.644531 C 47.703125 92.859375 47.714844 93.078125 47.730469 93.296875 L 34.195312 93.296875 C 25.660156 93.296875 18.722656 86.34375 18.722656 77.792969 C 18.722656 68.710938 26.523438 61.550781 35.582031 62.367188 C 35.46875 52.539062 43.425781 44.574219 53.164062 44.574219 C 59.449219 44.574219 65.207031 47.910156 68.359375 53.335938 C 76.984375 53.171875 84.4375 59.3125 85.976562 67.769531 C 93.566406 66.863281 100.277344 72.828125 100.277344 80.480469 C 100.277344 87.550781 94.542969 93.296875 87.503906 93.296875 Z M 87.503906 93.296875 " fill-opacity="1" fill-rule="evenodd"/></g><path stroke-linecap="butt" transform="matrix(0.0114703, 0, 0, 0.0114954, 18.723128, 27.058766)" fill-opacity="1" fill="#58c7eb" fill-rule="evenodd" stroke-linejoin="miter" d="M 2550.033072 5345.879955 L 2098.116883 5345.879955 C 2052.141989 5345.879955 2015.021518 5308.840637 2015.021518 5262.966252 C 2015.021518 5217.091868 2052.141989 5179.033119 2098.116883 5179.033119 L 2550.033072 5179.033119 C 2591.92131 5179.033119 2626.998452 5210.975283 2632.106774 5252.092324 C 2620.187357 5277.917903 2607.927385 5304.083293 2597.029632 5330.928303 C 2584.08855 5340.10318 2567.060811 5345.879955 2550.033072 5345.879955 Z M 1348.896374 5345.879955 C 834.999216 5345.879955 417.138505 4927.913339 417.138505 4414.120232 C 417.138505 4367.906037 453.91842 4331.206529 499.893315 4331.206529 C 545.86821 4331.206529 584.010345 4367.906037 584.010345 4414.120232 C 584.010345 4835.82476 926.949006 5179.033119 1348.896374 5179.033119 C 1395.211824 5179.033119 1431.99174 5217.091868 1431.99174 5262.966252 C 1431.99174 5308.840637 1395.211824 5345.879955 1348.896374 5345.879955 Z M 1348.896374 5345.879955 " stroke="#58c7eb" stroke-width="3" stroke-opacity="1" stroke-miterlimit="4"/><path fill="#58c7eb" d="M 42.484375 58.035156 C 41.796875 58.035156 41.316406 57.296875 41.628906 56.65625 C 43.761719 52.21875 48.277344 49.359375 53.164062 49.359375 C 53.691406 49.359375 54.113281 49.792969 54.113281 50.324219 C 54.113281 50.839844 53.691406 51.277344 53.164062 51.277344 C 49.011719 51.277344 45.160156 53.714844 43.347656 57.484375 C 43.1875 57.828125 42.84375 58.035156 42.484375 58.035156 Z M 42.484375 58.035156 " fill-opacity="1" fill-rule="evenodd"/><path fill="#f29c1f" d="M 63.0625 39.757812 C 62.730469 39.757812 62.40625 39.585938 62.234375 39.277344 L 60.367188 36.023438 C 60.101562 35.578125 60.261719 34.988281 60.710938 34.726562 C 61.167969 34.460938 61.753906 34.609375 62.019531 35.070312 L 63.886719 38.324219 C 64.265625 38.96875 63.796875 39.757812 63.0625 39.757812 Z M 63.0625 39.757812 " fill-opacity="1" fill-rule="evenodd"/><g clip-path="url(#468c30044c)"><path fill="#f29c1f" d="M 72.949219 37.058594 C 72.417969 37.058594 71.984375 36.632812 71.984375 36.105469 L 71.984375 32.359375 C 71.984375 31.828125 72.417969 31.390625 72.949219 31.390625 C 73.464844 31.390625 73.898438 31.828125 73.898438 32.359375 L 73.898438 36.105469 C 73.898438 36.632812 73.464844 37.058594 72.949219 37.058594 Z M 72.949219 37.058594 " fill-opacity="1" fill-rule="evenodd"/></g><path fill="#f29c1f" d="M 82.84375 39.679688 C 82.109375 39.679688 81.640625 38.886719 82.019531 38.242188 L 83.886719 34.988281 C 84.152344 34.542969 84.738281 34.378906 85.195312 34.644531 C 85.644531 34.910156 85.804688 35.496094 85.539062 35.957031 L 83.671875 39.195312 C 83.488281 39.507812 83.167969 39.679688 82.84375 39.679688 Z M 82.84375 39.679688 " fill-opacity="1" fill-rule="evenodd"/><path fill="#f29c1f" d="M 90.117188 46.90625 C 89.140625 46.90625 88.785156 45.609375 89.636719 45.117188 L 92.871094 43.242188 C 93.328125 42.976562 93.914062 43.136719 94.175781 43.597656 C 94.441406 44.058594 94.292969 44.644531 93.832031 44.910156 L 90.585938 46.78125 C 90.4375 46.863281 90.277344 46.90625 90.117188 46.90625 Z M 90.117188 46.90625 " fill-opacity="1" fill-rule="evenodd"/><path fill="#f29c1f" d="M 96.539062 56.804688 L 92.800781 56.804688 C 92.273438 56.804688 91.835938 56.378906 91.835938 55.851562 C 91.835938 55.324219 92.273438 54.898438 92.800781 54.898438 L 96.539062 54.898438 C 97.066406 54.898438 97.488281 55.324219 97.488281 55.851562 C 97.488281 56.378906 97.066406 56.804688 96.539062 56.804688 Z M 96.539062 56.804688 " fill-opacity="1" fill-rule="evenodd"/><path fill="#f29c1f" d="M 93.429688 68.609375 C 93.257812 68.609375 93.097656 68.5625 92.949219 68.472656 L 89.703125 66.597656 C 89.253906 66.332031 89.09375 65.746094 89.359375 65.289062 C 89.621094 64.839844 90.207031 64.679688 90.667969 64.941406 L 93.902344 66.816406 C 94.75 67.308594 94.394531 68.609375 93.429688 68.609375 Z M 93.429688 68.609375 " fill-opacity="1" fill-rule="evenodd"/><g clip-path="url(#545c35b819)"><path fill="#efefef" d="M 59.507812 104.460938 C 53.003906 104.460938 47.703125 99.160156 47.703125 92.644531 C 47.703125 88.621094 49.699219 84.953125 53.050781 82.757812 L 53.050781 62.402344 C 53.050781 58.839844 55.9375 55.933594 59.507812 55.933594 C 63.0625 55.933594 65.964844 58.839844 65.964844 62.402344 L 65.964844 82.757812 C 69.3125 84.953125 71.296875 88.621094 71.296875 92.644531 C 71.296875 99.160156 66.007812 104.460938 59.507812 104.460938 Z M 59.507812 104.460938 " fill-opacity="1" fill-rule="evenodd"/></g><path fill="#ff1e55" d="M 59.507812 88.125 C 58.75 88.125 58.140625 87.515625 58.140625 86.769531 L 58.140625 64.691406 C 58.140625 63.945312 58.75 63.332031 59.507812 63.332031 C 60.25 63.332031 60.859375 63.945312 60.859375 64.691406 L 60.859375 86.769531 C 60.859375 87.515625 60.25 88.125 59.507812 88.125 Z M 59.507812 88.125 " fill-opacity="1" fill-rule="evenodd"/><path fill="#ff1e55" d="M 59.507812 99.261719 C 55.859375 99.261719 52.890625 96.296875 52.890625 92.644531 C 52.890625 88.988281 55.859375 86.023438 59.507812 86.023438 C 63.140625 86.023438 66.113281 88.988281 66.113281 92.644531 C 66.113281 96.296875 63.140625 99.261719 59.507812 99.261719 Z M 59.507812 99.261719 " fill-opacity="1" fill-rule="evenodd"/><g clip-path="url(#0c093f4793)"><path fill="#231f20" d="M 114.816406 48.363281 C 114.554688 48.457031 114.273438 48.519531 113.980469 48.519531 L 109.371094 48.519531 L 109.371094 16.628906 L 113.980469 16.628906 C 114.273438 16.628906 114.554688 16.6875 114.816406 16.785156 C 115.753906 17.125 116.429688 18.011719 116.429688 19.0625 L 116.429688 46.082031 C 116.429688 47.132812 115.753906 48.019531 114.816406 48.363281 Z M 112.097656 6.933594 L 112.097656 13.925781 L 109.371094 13.925781 L 109.371094 6.933594 C 109.371094 5.699219 108.996094 4.554688 108.355469 3.597656 L 108.742188 3.597656 C 110.589844 3.597656 112.097656 5.09375 112.097656 6.933594 Z M 16.203125 133.992188 L 14.070312 133.992188 C 12.222656 133.992188 10.71875 132.496094 10.71875 130.65625 L 10.71875 116.996094 L 16.28125 116.996094 C 17.03125 116.996094 17.640625 116.394531 17.640625 115.644531 C 17.640625 114.898438 17.03125 114.292969 16.28125 114.292969 L 10.71875 114.292969 L 10.71875 101.175781 L 16.28125 101.175781 C 17.03125 101.175781 17.640625 100.570312 17.640625 99.824219 C 17.640625 99.078125 17.03125 98.46875 16.28125 98.46875 L 10.71875 98.46875 L 10.71875 85.351562 L 16.28125 85.351562 C 17.03125 85.351562 17.640625 84.746094 17.640625 84 C 17.640625 83.253906 17.03125 82.648438 16.28125 82.648438 L 10.71875 82.648438 L 10.71875 51.066406 L 16.28125 51.066406 C 17.03125 51.066406 17.640625 50.460938 17.640625 49.714844 C 17.640625 48.96875 17.03125 48.363281 16.28125 48.363281 L 10.71875 48.363281 L 10.71875 35.242188 L 16.28125 35.242188 C 17.03125 35.242188 17.640625 34.640625 17.640625 33.890625 C 17.640625 33.144531 17.03125 32.539062 16.28125 32.539062 L 10.71875 32.539062 L 10.71875 19.421875 L 16.28125 19.421875 C 17.03125 19.421875 17.640625 18.816406 17.640625 18.070312 C 17.640625 17.324219 17.03125 16.714844 16.28125 16.714844 L 10.71875 16.714844 L 10.71875 6.933594 C 10.71875 5.09375 12.222656 3.597656 14.070312 3.597656 L 103.296875 3.597656 C 105.148438 3.597656 106.652344 5.09375 106.652344 6.933594 L 106.652344 130.65625 C 106.652344 132.496094 105.148438 133.992188 103.296875 133.992188 Z M 112.097656 130.65625 C 112.097656 132.496094 110.589844 133.992188 108.742188 133.992188 L 108.355469 133.992188 C 108.996094 133.035156 109.371094 131.890625 109.371094 130.65625 L 109.371094 120.40625 L 112.097656 120.40625 Z M 116.429688 115.269531 C 116.429688 116.320312 115.753906 117.207031 114.816406 117.546875 C 114.554688 117.644531 114.273438 117.703125 113.980469 117.703125 L 109.371094 117.703125 L 109.371094 85.816406 L 113.980469 85.816406 C 114.273438 85.816406 114.554688 85.875 114.816406 85.96875 C 115.753906 86.308594 116.429688 87.199219 116.429688 88.25 Z M 116.429688 80.675781 C 116.429688 81.726562 115.753906 82.613281 114.816406 82.953125 C 114.554688 83.050781 114.273438 83.109375 113.980469 83.109375 L 109.371094 83.109375 L 109.371094 51.222656 L 113.980469 51.222656 C 114.273438 51.222656 114.554688 51.28125 114.816406 51.378906 C 115.753906 51.71875 116.429688 52.605469 116.429688 53.65625 Z M 114.816406 14 L 114.816406 6.933594 C 114.816406 3.601562 112.089844 0.894531 108.742188 0.894531 L 14.070312 0.894531 C 10.722656 0.894531 7.996094 3.601562 7.996094 6.933594 L 7.996094 16.714844 L 1.542969 16.714844 C 0.792969 16.714844 0.183594 17.324219 0.183594 18.070312 C 0.183594 18.816406 0.792969 19.421875 1.542969 19.421875 L 7.996094 19.421875 L 7.996094 32.539062 L 1.542969 32.539062 C 0.792969 32.539062 0.183594 33.144531 0.183594 33.890625 C 0.183594 34.640625 0.792969 35.242188 1.542969 35.242188 L 7.996094 35.242188 L 7.996094 48.363281 L 1.542969 48.363281 C 0.792969 48.363281 0.183594 48.96875 0.183594 49.714844 C 0.183594 50.460938 0.792969 51.066406 1.542969 51.066406 L 7.996094 51.066406 L 7.996094 82.648438 L 1.542969 82.648438 C 0.792969 82.648438 0.183594 83.253906 0.183594 84 C 0.183594 84.746094 0.792969 85.351562 1.542969 85.351562 L 7.996094 85.351562 L 7.996094 98.46875 L 1.542969 98.46875 C 0.792969 98.46875 0.183594 99.078125 0.183594 99.824219 C 0.183594 100.570312 0.792969 101.175781 1.542969 101.175781 L 7.996094 101.175781 L 7.996094 114.292969 L 1.542969 114.292969 C 0.792969 114.292969 0.183594 114.898438 0.183594 115.644531 C 0.183594 116.394531 0.792969 116.996094 1.542969 116.996094 L 7.996094 116.996094 L 7.996094 130.65625 C 7.996094 133.988281 10.722656 136.695312 14.070312 136.695312 L 108.742188 136.695312 C 112.089844 136.695312 114.816406 133.988281 114.816406 130.65625 L 114.816406 120.332031 C 117.269531 119.933594 119.148438 117.816406 119.148438 115.269531 L 119.148438 88.25 C 119.148438 86.75 118.496094 85.402344 117.460938 84.460938 C 118.496094 83.519531 119.148438 82.175781 119.148438 80.675781 L 119.148438 53.65625 C 119.148438 52.15625 118.496094 50.808594 117.460938 49.871094 C 118.496094 48.929688 119.148438 47.582031 119.148438 46.082031 L 119.148438 19.0625 C 119.148438 16.511719 117.269531 14.394531 114.816406 14 " fill-opacity="1" fill-rule="nonzero"/></g></g></g></svg>