<svg xmlns="http://www.w3.org/2000/svg" xmlns:xlink="http://www.w3.org/1999/xlink" width="200" zoomAndPan="magnify" viewBox="0 0 150 149.999998" height="200" preserveAspectRatio="xMidYMid meet" version="1.0"><defs><clipPath id="1ec31783ce"><path d="M 0.695312 1 L 131.117188 1 L 131.117188 112.402344 L 0.695312 112.402344 Z M 0.695312 1 " clip-rule="nonzero"/></clipPath><clipPath id="4d34c15c9f"><rect x="0" width="134" y="0" height="116"/></clipPath></defs><rect x="-15" width="180" fill="#ffffff" y="-15" height="179.999997" fill-opacity="1"/><rect x="-15" width="180" fill="#ffffff" y="-15" height="179.999997" fill-opacity="1"/><g transform="matrix(1, 0, 0, 1, 6, 14)"><g clip-path="url(#4d34c15c9f)"><g clip-path="url(#1ec31783ce)"><path fill="#000000" d="M 2.558594 52.304688 C 2.84375 52.015625 3.160156 51.757812 3.5 51.53125 C 3.839844 51.300781 4.199219 51.109375 4.574219 50.953125 C 4.953125 50.792969 5.34375 50.675781 5.746094 50.597656 C 6.148438 50.515625 6.554688 50.476562 6.960938 50.476562 C 7.371094 50.476562 7.777344 50.515625 8.179688 50.597656 C 8.582031 50.675781 8.96875 50.792969 9.347656 50.953125 C 9.726562 51.109375 10.085938 51.300781 10.425781 51.53125 C 10.765625 51.757812 11.078125 52.015625 11.367188 52.304688 L 19.371094 60.351562 L 19.371094 56.699219 C 19.371094 54.875 19.460938 53.054688 19.640625 51.242188 C 19.820312 49.425781 20.085938 47.625 20.445312 45.835938 C 20.800781 44.042969 21.246094 42.277344 21.777344 40.53125 C 22.308594 38.785156 22.921875 37.070312 23.621094 35.386719 C 24.320312 33.699219 25.101562 32.050781 25.964844 30.445312 C 26.828125 28.835938 27.765625 27.273438 28.78125 25.753906 C 29.796875 24.238281 30.886719 22.773438 32.046875 21.363281 C 33.207031 19.953125 34.433594 18.605469 35.726562 17.3125 C 37.019531 16.023438 38.375 14.800781 39.785156 13.644531 C 41.199219 12.484375 42.667969 11.402344 44.1875 10.386719 C 45.710938 9.375 47.277344 8.4375 48.890625 7.578125 C 50.5 6.71875 52.152344 5.9375 53.84375 5.238281 C 55.53125 4.542969 57.253906 3.929688 59.003906 3.398438 C 60.753906 2.867188 62.523438 2.425781 64.316406 2.070312 C 66.113281 1.714844 67.917969 1.445312 69.738281 1.269531 C 71.558594 1.089844 73.382812 1 75.210938 1 C 77.039062 1 78.863281 1.089844 80.683594 1.269531 C 82.503906 1.445312 84.3125 1.714844 86.105469 2.070312 C 87.898438 2.425781 89.671875 2.867188 91.421875 3.398438 C 93.171875 3.929688 94.890625 4.542969 96.582031 5.238281 C 98.269531 5.9375 99.921875 6.71875 101.535156 7.578125 C 103.148438 8.4375 104.714844 9.375 106.234375 10.386719 C 107.757812 11.402344 109.222656 12.484375 110.636719 13.644531 C 112.050781 14.800781 113.402344 16.023438 114.695312 17.3125 C 115.992188 18.605469 117.21875 19.953125 118.378906 21.363281 C 119.539062 22.773438 120.625 24.238281 121.640625 25.753906 C 122.65625 27.273438 123.597656 28.835938 124.457031 30.445312 C 125.320312 32.050781 126.101562 33.699219 126.800781 35.386719 C 127.5 37.070312 128.117188 38.785156 128.648438 40.53125 C 129.179688 42.277344 129.621094 44.042969 129.980469 45.835938 C 130.335938 47.625 130.605469 49.425781 130.785156 51.242188 C 130.964844 53.054688 131.050781 54.875 131.050781 56.699219 C 131.050781 58.523438 130.964844 60.34375 130.785156 62.160156 C 130.605469 63.976562 130.335938 65.777344 129.980469 67.566406 C 129.621094 69.355469 129.179688 71.125 128.648438 72.871094 C 128.117188 74.617188 127.5 76.332031 126.800781 78.015625 C 126.101562 79.703125 125.320312 81.347656 124.457031 82.957031 C 123.597656 84.566406 122.65625 86.128906 121.640625 87.644531 C 120.625 89.164062 119.539062 90.625 118.378906 92.035156 C 117.21875 93.445312 115.992188 94.796875 114.695312 96.085938 C 113.402344 97.378906 112.050781 98.601562 110.636719 99.757812 C 109.222656 100.914062 107.757812 102 106.234375 103.015625 C 104.714844 104.027344 103.148438 104.964844 101.535156 105.824219 C 99.921875 106.683594 98.269531 107.464844 96.582031 108.160156 C 94.890625 108.859375 93.171875 109.472656 91.421875 110.003906 C 89.671875 110.53125 87.898438 110.976562 86.105469 111.332031 C 84.3125 111.6875 82.503906 111.953125 80.683594 112.132812 C 78.863281 112.3125 77.039062 112.402344 75.210938 112.402344 C 72.375 112.410156 69.554688 112.199219 66.75 111.773438 C 63.945312 111.347656 61.191406 110.710938 58.484375 109.859375 C 55.78125 109.007812 53.15625 107.957031 50.613281 106.703125 C 48.070312 105.445312 45.640625 104.003906 43.320312 102.375 C 42.988281 102.140625 42.679688 101.875 42.398438 101.578125 C 42.117188 101.28125 41.867188 100.960938 41.648438 100.617188 C 41.429688 100.269531 41.246094 99.90625 41.101562 99.527344 C 40.953125 99.144531 40.847656 98.753906 40.777344 98.351562 C 40.707031 97.949219 40.679688 97.542969 40.691406 97.136719 C 40.699219 96.726562 40.75 96.324219 40.839844 95.925781 C 40.933594 95.527344 41.0625 95.140625 41.226562 94.769531 C 41.394531 94.398438 41.59375 94.042969 41.832031 93.710938 C 42.066406 93.378906 42.335938 93.070312 42.632812 92.789062 C 42.929688 92.507812 43.25 92.257812 43.597656 92.042969 C 43.941406 91.824219 44.304688 91.640625 44.6875 91.496094 C 45.070312 91.351562 45.464844 91.242188 45.867188 91.171875 C 46.269531 91.105469 46.675781 91.074219 47.085938 91.085938 C 47.492188 91.097656 47.898438 91.148438 48.296875 91.238281 C 48.695312 91.328125 49.082031 91.457031 49.457031 91.621094 C 49.828125 91.789062 50.183594 91.988281 50.519531 92.226562 C 54.140625 94.796875 58.070312 96.75 62.308594 98.082031 C 66.550781 99.414062 70.890625 100.058594 75.335938 100.023438 C 76.757812 100.023438 78.175781 99.953125 79.59375 99.816406 C 81.007812 99.675781 82.414062 99.46875 83.808594 99.191406 C 85.203125 98.914062 86.582031 98.570312 87.945312 98.15625 C 89.304688 97.746094 90.640625 97.269531 91.957031 96.726562 C 93.269531 96.183594 94.554688 95.578125 95.808594 94.90625 C 97.0625 94.238281 98.28125 93.511719 99.464844 92.722656 C 100.648438 91.933594 101.789062 91.089844 102.890625 90.191406 C 103.988281 89.289062 105.039062 88.335938 106.046875 87.335938 C 107.050781 86.332031 108.007812 85.28125 108.910156 84.183594 C 109.8125 83.085938 110.65625 81.949219 111.449219 80.769531 C 112.238281 79.589844 112.96875 78.375 113.640625 77.121094 C 114.308594 75.871094 114.917969 74.589844 115.460938 73.28125 C 116.007812 71.96875 116.484375 70.632812 116.898438 69.277344 C 117.308594 67.917969 117.65625 66.542969 117.933594 65.152344 C 118.210938 63.761719 118.417969 62.359375 118.558594 60.945312 C 118.699219 59.535156 118.769531 58.121094 118.769531 56.699219 C 118.769531 55.28125 118.699219 53.867188 118.558594 52.453125 C 118.417969 51.042969 118.210938 49.640625 117.933594 48.25 C 117.65625 46.855469 117.308594 45.484375 116.898438 44.125 C 116.484375 42.765625 116.007812 41.433594 115.460938 40.121094 C 114.917969 38.8125 114.308594 37.53125 113.640625 36.277344 C 112.96875 35.027344 112.238281 33.8125 111.449219 32.632812 C 110.65625 31.453125 109.8125 30.3125 108.910156 29.21875 C 108.007812 28.121094 107.050781 27.070312 106.046875 26.066406 C 105.039062 25.0625 103.988281 24.113281 102.890625 23.210938 C 101.789062 22.3125 100.648438 21.46875 99.464844 20.679688 C 98.28125 19.890625 97.0625 19.164062 95.808594 18.492188 C 94.554688 17.824219 93.269531 17.21875 91.957031 16.675781 C 90.640625 16.132812 89.304688 15.65625 87.945312 15.242188 C 86.582031 14.832031 85.203125 14.488281 83.808594 14.210938 C 82.414062 13.933594 81.007812 13.726562 79.59375 13.585938 C 78.175781 13.449219 76.757812 13.378906 75.335938 13.378906 C 73.914062 13.378906 72.496094 13.449219 71.078125 13.585938 C 69.664062 13.726562 68.257812 13.933594 66.863281 14.210938 C 65.46875 14.488281 64.089844 14.832031 62.726562 15.242188 C 61.367188 15.65625 60.03125 16.132812 58.714844 16.675781 C 57.402344 17.21875 56.117188 17.824219 54.863281 18.492188 C 53.609375 19.164062 52.390625 19.890625 51.207031 20.679688 C 50.023438 21.46875 48.882812 22.3125 47.785156 23.210938 C 46.683594 24.113281 45.632812 25.0625 44.625 26.066406 C 43.621094 27.070312 42.664062 28.121094 41.761719 29.21875 C 40.859375 30.3125 40.015625 31.453125 39.222656 32.632812 C 38.433594 33.8125 37.703125 35.027344 37.03125 36.277344 C 36.363281 37.53125 35.753906 38.8125 35.210938 40.121094 C 34.667969 41.433594 34.1875 42.765625 33.773438 44.125 C 33.363281 45.484375 33.015625 46.855469 32.738281 48.25 C 32.460938 49.640625 32.253906 51.042969 32.113281 52.453125 C 31.972656 53.867188 31.90625 55.28125 31.90625 56.699219 L 31.90625 60.351562 L 39.910156 52.304688 C 40.199219 52.019531 40.511719 51.761719 40.851562 51.535156 C 41.191406 51.308594 41.550781 51.117188 41.929688 50.960938 C 42.308594 50.804688 42.695312 50.6875 43.097656 50.609375 C 43.5 50.527344 43.902344 50.488281 44.3125 50.488281 C 44.722656 50.488281 45.125 50.53125 45.527344 50.609375 C 45.929688 50.6875 46.316406 50.808594 46.695312 50.964844 C 47.074219 51.121094 47.433594 51.3125 47.773438 51.539062 C 48.113281 51.765625 48.425781 52.023438 48.714844 52.308594 C 49.003906 52.597656 49.261719 52.910156 49.488281 53.25 C 49.71875 53.589844 49.910156 53.949219 50.066406 54.324219 C 50.222656 54.703125 50.339844 55.089844 50.417969 55.488281 C 50.5 55.890625 50.539062 56.292969 50.539062 56.703125 C 50.539062 57.109375 50.5 57.511719 50.421875 57.914062 C 50.339844 58.3125 50.222656 58.703125 50.066406 59.078125 C 49.910156 59.457031 49.71875 59.8125 49.492188 60.152344 C 49.265625 60.492188 49.007812 60.804688 48.71875 61.09375 L 30.105469 79.660156 C 29.570312 80.1875 28.949219 80.578125 28.242188 80.835938 C 27.628906 81.089844 26.984375 81.210938 26.320312 81.210938 L 25.140625 81.210938 C 24.644531 81.269531 24.148438 81.269531 23.652344 81.210938 L 23.03125 81.210938 C 22.351562 80.910156 21.730469 80.519531 21.171875 80.03125 L 2.558594 61.464844 C 2.238281 61.175781 1.949219 60.855469 1.699219 60.507812 C 1.445312 60.15625 1.230469 59.785156 1.054688 59.390625 C 0.882812 58.996094 0.75 58.589844 0.660156 58.167969 C 0.570312 57.742188 0.527344 57.316406 0.527344 56.886719 C 0.527344 56.457031 0.570312 56.027344 0.660156 55.605469 C 0.75 55.183594 0.882812 54.777344 1.054688 54.382812 C 1.230469 53.988281 1.445312 53.617188 1.699219 53.265625 C 1.949219 52.917969 2.238281 52.597656 2.558594 52.304688 Z M 2.558594 52.304688 " fill-opacity="1" fill-rule="nonzero"/></g><path fill="#000000" d="M 85.246094 55.476562 C 85.246094 56.035156 85.191406 56.589844 85.082031 57.136719 C 84.972656 57.6875 84.8125 58.21875 84.597656 58.734375 C 84.382812 59.25 84.121094 59.742188 83.8125 60.207031 C 83.5 60.671875 83.148438 61.101562 82.753906 61.496094 C 82.359375 61.890625 81.925781 62.242188 81.460938 62.554688 C 81 62.863281 80.507812 63.128906 79.992188 63.339844 C 79.476562 63.554688 78.941406 63.714844 78.394531 63.824219 C 77.847656 63.933594 77.292969 63.988281 76.734375 63.988281 C 76.175781 63.988281 75.621094 63.933594 75.074219 63.824219 C 74.527344 63.714844 73.992188 63.554688 73.476562 63.339844 C 72.960938 63.128906 72.46875 62.863281 72.003906 62.554688 C 71.539062 62.242188 71.109375 61.890625 70.714844 61.496094 C 70.320312 61.101562 69.96875 60.671875 69.65625 60.207031 C 69.347656 59.742188 69.085938 59.25 68.871094 58.734375 C 68.65625 58.21875 68.496094 57.6875 68.386719 57.136719 C 68.277344 56.589844 68.222656 56.035156 68.222656 55.476562 C 68.222656 54.917969 68.277344 54.367188 68.386719 53.816406 C 68.496094 53.269531 68.65625 52.738281 68.871094 52.21875 C 69.085938 51.703125 69.347656 51.214844 69.65625 50.75 C 69.96875 50.285156 70.320312 49.855469 70.714844 49.460938 C 71.109375 49.0625 71.539062 48.710938 72.003906 48.402344 C 72.46875 48.089844 72.960938 47.828125 73.476562 47.613281 C 73.992188 47.398438 74.527344 47.238281 75.074219 47.128906 C 75.621094 47.019531 76.175781 46.964844 76.734375 46.964844 C 77.292969 46.964844 77.847656 47.019531 78.394531 47.128906 C 78.941406 47.238281 79.476562 47.398438 79.992188 47.613281 C 80.507812 47.828125 81 48.089844 81.460938 48.402344 C 81.925781 48.710938 82.359375 49.0625 82.753906 49.460938 C 83.148438 49.855469 83.5 50.285156 83.8125 50.75 C 84.121094 51.214844 84.382812 51.703125 84.597656 52.21875 C 84.8125 52.738281 84.972656 53.269531 85.082031 53.816406 C 85.191406 54.367188 85.246094 54.917969 85.246094 55.476562 Z M 85.246094 55.476562 " fill-opacity="1" fill-rule="nonzero"/><path fill="#000000" d="M 65.386719 55.476562 C 65.386719 53.835938 65.75 52.28125 66.382812 50.871094 C 59.691406 47.988281 57.308594 44.757812 55.507812 42.296875 C 54.015625 40.257812 52.722656 38.496094 49.765625 38.496094 C 48.136719 38.496094 45.875 39.136719 44.316406 42.207031 C 41.402344 47.945312 42.691406 59.222656 45.78125 63.445312 C 47.207031 65.394531 49.285156 66.515625 51.964844 66.773438 C 52.351562 66.808594 52.746094 66.828125 53.148438 66.828125 C 57.824219 66.828125 63.292969 64.390625 67.304688 61.785156 C 66.09375 59.976562 65.386719 57.808594 65.386719 55.476562 Z M 65.386719 55.476562 " fill-opacity="1" fill-rule="nonzero"/><path fill="#000000" d="M 76.734375 44.128906 C 78.390625 44.128906 79.953125 44.507812 81.375 45.148438 C 84.261719 38.453125 87.492188 36.070312 89.957031 34.269531 C 91.996094 32.773438 93.757812 31.488281 93.757812 28.523438 C 93.757812 26.898438 93.113281 24.636719 90.046875 23.078125 C 84.296875 20.160156 73.027344 21.453125 68.804688 24.542969 C 66.859375 25.960938 65.742188 28.039062 65.480469 30.714844 C 65.007812 35.609375 67.625 41.683594 70.445312 46.042969 C 72.25 44.839844 74.40625 44.128906 76.734375 44.128906 Z M 76.734375 44.128906 " fill-opacity="1" fill-rule="nonzero"/><path fill="#000000" d="M 107.683594 47.546875 C 106.261719 45.597656 104.183594 44.480469 101.503906 44.226562 C 96.648438 43.765625 90.546875 46.378906 86.175781 49.203125 C 87.375 51 88.082031 53.15625 88.082031 55.476562 C 88.082031 57.132812 87.707031 58.695312 87.070312 60.113281 C 93.769531 63 96.160156 66.234375 97.960938 68.699219 C 99.457031 70.738281 100.746094 72.5 103.703125 72.5 C 105.328125 72.5 107.597656 71.855469 109.152344 68.785156 C 112.066406 63.046875 110.777344 51.773438 107.683594 47.546875 Z M 107.683594 47.546875 " fill-opacity="1" fill-rule="nonzero"/><path fill="#000000" d="M 76.734375 66.824219 C 75.082031 66.824219 73.515625 66.453125 72.097656 65.8125 C 69.214844 72.515625 65.976562 74.902344 63.511719 76.707031 C 61.472656 78.199219 59.710938 79.488281 59.710938 82.449219 C 59.710938 84.074219 60.355469 86.335938 63.421875 87.894531 C 65.664062 89.03125 68.742188 89.527344 71.917969 89.527344 C 76.882812 89.527344 82.085938 88.316406 84.664062 86.429688 C 86.613281 85.007812 87.730469 82.925781 87.984375 80.25 C 88.457031 75.347656 85.839844 69.273438 83.015625 64.917969 C 81.21875 66.121094 79.058594 66.824219 76.734375 66.824219 Z M 76.734375 66.824219 " fill-opacity="1" fill-rule="nonzero"/></g></g></svg>