<svg xmlns="http://www.w3.org/2000/svg" xmlns:xlink="http://www.w3.org/1999/xlink" width="200" zoomAndPan="magnify" viewBox="0 0 150 149.999998" height="200" preserveAspectRatio="xMidYMid meet" version="1.0"><defs><clipPath id="8f1874df5e"><path d="M 3.695312 1 L 134.117188 1 L 134.117188 112.402344 L 3.695312 112.402344 Z M 3.695312 1 " clip-rule="nonzero"/></clipPath><clipPath id="e590a55cb6"><rect x="0" width="139" y="0" height="120"/></clipPath></defs><rect x="-15" width="180" fill="#ffffff" y="-15" height="179.999997" fill-opacity="1"/><rect x="-15" width="180" fill="#ffffff" y="-15" height="179.999997" fill-opacity="1"/><g transform="matrix(1, 0, 0, 1, 3, 14)"><g clip-path="url(#e590a55cb6)"><g clip-path="url(#8f1874df5e)"><path fill="#94dd26" d="M 5.570312 52.855469 C 5.863281 52.5625 6.179688 52.300781 6.523438 52.070312 C 6.863281 51.839844 7.226562 51.644531 7.609375 51.484375 C 7.988281 51.324219 8.382812 51.207031 8.785156 51.125 C 9.191406 51.042969 9.601562 51.003906 10.011719 51.003906 C 10.425781 51.003906 10.835938 51.042969 11.238281 51.125 C 11.644531 51.207031 12.039062 51.324219 12.417969 51.484375 C 12.800781 51.644531 13.160156 51.839844 13.503906 52.070312 C 13.847656 52.300781 14.164062 52.5625 14.453125 52.855469 L 22.523438 60.984375 L 22.523438 57.296875 C 22.523438 55.453125 22.613281 53.613281 22.792969 51.777344 C 22.976562 49.941406 23.246094 48.121094 23.605469 46.3125 C 23.964844 44.503906 24.414062 42.71875 24.949219 40.953125 C 25.484375 39.1875 26.101562 37.457031 26.808594 35.75 C 27.515625 34.046875 28.300781 32.382812 29.171875 30.757812 C 30.039062 29.132812 30.988281 27.550781 32.011719 26.019531 C 33.035156 24.484375 34.132812 23.007812 35.300781 21.582031 C 36.472656 20.15625 37.707031 18.792969 39.011719 17.488281 C 40.316406 16.183594 41.679688 14.949219 43.105469 13.777344 C 44.53125 12.609375 46.007812 11.511719 47.542969 10.488281 C 49.074219 9.464844 50.65625 8.515625 52.28125 7.648438 C 53.90625 6.777344 55.570312 5.992188 57.273438 5.285156 C 58.980469 4.578125 60.710938 3.960938 62.476562 3.425781 C 64.242188 2.890625 66.027344 2.441406 67.835938 2.082031 C 69.644531 1.722656 71.464844 1.453125 73.300781 1.269531 C 75.136719 1.089844 76.976562 1 78.816406 1 C 80.660156 1 82.5 1.089844 84.335938 1.269531 C 86.171875 1.453125 87.992188 1.722656 89.800781 2.082031 C 91.609375 2.441406 93.394531 2.890625 95.160156 3.425781 C 96.925781 3.960938 98.65625 4.578125 100.363281 5.285156 C 102.066406 5.992188 103.730469 6.777344 105.355469 7.648438 C 106.980469 8.515625 108.5625 9.464844 110.09375 10.488281 C 111.628906 11.511719 113.105469 12.609375 114.53125 13.777344 C 115.957031 14.949219 117.320312 16.183594 118.625 17.488281 C 119.929688 18.792969 121.164062 20.15625 122.335938 21.582031 C 123.503906 23.007812 124.601562 24.484375 125.625 26.019531 C 126.648438 27.550781 127.597656 29.132812 128.464844 30.757812 C 129.335938 32.382812 130.121094 34.046875 130.828125 35.75 C 131.535156 37.457031 132.152344 39.1875 132.6875 40.953125 C 133.222656 42.71875 133.671875 44.503906 134.03125 46.3125 C 134.390625 48.121094 134.660156 49.941406 134.84375 51.777344 C 135.023438 53.613281 135.113281 55.453125 135.113281 57.296875 C 135.113281 59.140625 135.023438 60.976562 134.84375 62.8125 C 134.660156 64.648438 134.390625 66.46875 134.03125 68.277344 C 133.671875 70.085938 133.222656 71.871094 132.6875 73.636719 C 132.152344 75.402344 131.535156 77.136719 130.828125 78.839844 C 130.121094 80.542969 129.335938 82.207031 128.464844 83.832031 C 127.597656 85.457031 126.648438 87.039062 125.625 88.570312 C 124.601562 90.105469 123.503906 91.582031 122.335938 93.007812 C 121.164062 94.433594 119.929688 95.796875 118.625 97.101562 C 117.320312 98.40625 115.957031 99.640625 114.53125 100.8125 C 113.105469 101.980469 111.628906 103.078125 110.09375 104.101562 C 108.5625 105.128906 106.980469 106.074219 105.355469 106.941406 C 103.730469 107.8125 102.066406 108.597656 100.363281 109.304688 C 98.65625 110.011719 96.925781 110.632812 95.160156 111.167969 C 93.394531 111.703125 91.609375 112.148438 89.800781 112.507812 C 87.992188 112.867188 86.171875 113.136719 84.335938 113.320312 C 82.5 113.5 80.660156 113.589844 78.816406 113.589844 C 75.957031 113.597656 73.113281 113.386719 70.289062 112.957031 C 67.460938 112.527344 64.683594 111.882812 61.957031 111.023438 C 59.226562 110.160156 56.582031 109.097656 54.019531 107.828125 C 51.457031 106.5625 49.003906 105.105469 46.667969 103.457031 C 46.332031 103.21875 46.019531 102.949219 45.738281 102.652344 C 45.453125 102.351562 45.199219 102.027344 44.980469 101.679688 C 44.761719 101.328125 44.578125 100.960938 44.429688 100.578125 C 44.28125 100.191406 44.171875 99.796875 44.101562 99.390625 C 44.035156 98.984375 44.003906 98.574219 44.015625 98.160156 C 44.027344 97.75 44.078125 97.339844 44.167969 96.9375 C 44.257812 96.535156 44.390625 96.148438 44.558594 95.769531 C 44.726562 95.394531 44.929688 95.035156 45.167969 94.699219 C 45.40625 94.363281 45.671875 94.054688 45.972656 93.769531 C 46.273438 93.484375 46.597656 93.234375 46.945312 93.011719 C 47.292969 92.792969 47.660156 92.609375 48.046875 92.460938 C 48.429688 92.3125 48.828125 92.207031 49.234375 92.136719 C 49.640625 92.066406 50.050781 92.035156 50.460938 92.046875 C 50.875 92.058594 51.28125 92.109375 51.683594 92.199219 C 52.085938 92.292969 52.476562 92.421875 52.851562 92.589844 C 53.230469 92.757812 53.585938 92.960938 53.921875 93.199219 C 57.574219 95.796875 61.535156 97.769531 65.8125 99.117188 C 70.085938 100.460938 74.460938 101.117188 78.945312 101.082031 C 80.378906 101.082031 81.808594 101.011719 83.234375 100.871094 C 84.664062 100.730469 86.078125 100.519531 87.484375 100.238281 C 88.890625 99.960938 90.28125 99.609375 91.652344 99.195312 C 93.027344 98.777344 94.375 98.296875 95.699219 97.746094 C 97.023438 97.199219 98.320312 96.585938 99.582031 95.910156 C 100.847656 95.234375 102.078125 94.496094 103.269531 93.699219 C 104.460938 92.90625 105.613281 92.050781 106.71875 91.140625 C 107.828125 90.230469 108.890625 89.269531 109.902344 88.253906 C 110.917969 87.242188 111.878906 86.179688 112.789062 85.070312 C 113.699219 83.964844 114.550781 82.8125 115.347656 81.621094 C 116.144531 80.429688 116.882812 79.199219 117.558594 77.933594 C 118.234375 76.671875 118.847656 75.375 119.394531 74.050781 C 119.945312 72.726562 120.425781 71.378906 120.84375 70.003906 C 121.257812 68.632812 121.609375 67.242188 121.886719 65.835938 C 122.167969 64.429688 122.378906 63.015625 122.519531 61.585938 C 122.660156 60.160156 122.726562 58.730469 122.726562 57.296875 C 122.726562 55.859375 122.660156 54.429688 122.519531 53.003906 C 122.378906 51.578125 122.167969 50.160156 121.886719 48.753906 C 121.609375 47.347656 121.257812 45.957031 120.84375 44.585938 C 120.425781 43.210938 119.945312 41.863281 119.394531 40.539062 C 118.847656 39.214844 118.234375 37.917969 117.558594 36.65625 C 116.882812 35.390625 116.144531 34.160156 115.347656 32.96875 C 114.550781 31.777344 113.699219 30.625 112.789062 29.519531 C 111.878906 28.410156 110.917969 27.347656 109.902344 26.335938 C 108.890625 25.320312 107.828125 24.359375 106.71875 23.449219 C 105.613281 22.539062 104.460938 21.6875 103.269531 20.890625 C 102.078125 20.09375 100.847656 19.355469 99.582031 18.679688 C 98.320312 18.003906 97.023438 17.390625 95.699219 16.84375 C 94.375 16.292969 93.027344 15.8125 91.652344 15.394531 C 90.28125 14.980469 88.890625 14.632812 87.484375 14.351562 C 86.078125 14.070312 84.664062 13.863281 83.234375 13.722656 C 81.808594 13.582031 80.378906 13.511719 78.945312 13.511719 C 77.507812 13.511719 76.078125 13.582031 74.652344 13.722656 C 73.226562 13.863281 71.808594 14.070312 70.402344 14.351562 C 68.996094 14.632812 67.605469 14.980469 66.234375 15.394531 C 64.859375 15.8125 63.511719 16.292969 62.1875 16.84375 C 60.863281 17.390625 59.566406 18.003906 58.304688 18.679688 C 57.039062 19.355469 55.808594 20.09375 54.617188 20.890625 C 53.425781 21.6875 52.273438 22.539062 51.167969 23.449219 C 50.058594 24.359375 48.996094 25.320312 47.984375 26.335938 C 46.96875 27.347656 46.007812 28.410156 45.097656 29.519531 C 44.1875 30.625 43.335938 31.777344 42.539062 32.96875 C 41.742188 34.160156 41.003906 35.390625 40.328125 36.65625 C 39.652344 37.917969 39.039062 39.214844 38.492188 40.539062 C 37.941406 41.863281 37.460938 43.210938 37.042969 44.585938 C 36.628906 45.957031 36.28125 47.347656 36 48.753906 C 35.71875 50.160156 35.511719 51.578125 35.371094 53.003906 C 35.230469 54.429688 35.160156 55.859375 35.160156 57.296875 L 35.160156 60.984375 L 43.226562 52.855469 C 43.519531 52.5625 43.835938 52.304688 44.179688 52.074219 C 44.523438 51.84375 44.882812 51.652344 45.265625 51.496094 C 45.644531 51.335938 46.039062 51.21875 46.441406 51.136719 C 46.847656 51.058594 47.253906 51.019531 47.667969 51.019531 C 48.078125 51.019531 48.488281 51.058594 48.890625 51.140625 C 49.296875 51.21875 49.6875 51.339844 50.070312 51.496094 C 50.449219 51.652344 50.8125 51.847656 51.15625 52.078125 C 51.496094 52.304688 51.816406 52.566406 52.105469 52.859375 C 52.398438 53.148438 52.65625 53.464844 52.886719 53.808594 C 53.117188 54.152344 53.308594 54.511719 53.46875 54.894531 C 53.625 55.273438 53.742188 55.667969 53.824219 56.070312 C 53.90625 56.476562 53.945312 56.882812 53.945312 57.296875 C 53.945312 57.707031 53.90625 58.117188 53.824219 58.519531 C 53.746094 58.925781 53.625 59.316406 53.46875 59.699219 C 53.3125 60.078125 53.117188 60.441406 52.890625 60.785156 C 52.660156 61.128906 52.402344 61.445312 52.109375 61.734375 L 33.34375 80.5 C 32.804688 81.03125 32.179688 81.425781 31.46875 81.691406 C 30.847656 81.941406 30.199219 82.066406 29.527344 82.066406 L 28.339844 82.066406 C 27.839844 82.125 27.339844 82.125 26.839844 82.066406 L 26.214844 82.066406 C 25.527344 81.765625 24.902344 81.367188 24.335938 80.875 L 5.570312 62.113281 C 5.25 61.816406 4.960938 61.496094 4.707031 61.140625 C 4.449219 60.789062 4.234375 60.410156 4.058594 60.011719 C 3.882812 59.613281 3.75 59.203125 3.660156 58.777344 C 3.570312 58.351562 3.523438 57.917969 3.523438 57.484375 C 3.523438 57.046875 3.570312 56.617188 3.660156 56.1875 C 3.75 55.761719 3.882812 55.351562 4.058594 54.953125 C 4.234375 54.554688 4.449219 54.175781 4.707031 53.824219 C 4.960938 53.46875 5.25 53.148438 5.570312 52.855469 Z M 5.570312 52.855469 " fill-opacity="1" fill-rule="nonzero"/></g><path fill="#94dd26" d="M 88.007812 55.28125 C 88.007812 55.839844 87.953125 56.390625 87.84375 56.933594 C 87.738281 57.480469 87.574219 58.007812 87.363281 58.523438 C 87.152344 59.035156 86.890625 59.523438 86.582031 59.984375 C 86.273438 60.449219 85.921875 60.875 85.527344 61.269531 C 85.136719 61.660156 84.707031 62.011719 84.246094 62.320312 C 83.785156 62.628906 83.296875 62.890625 82.78125 63.105469 C 82.269531 63.316406 81.738281 63.476562 81.195312 63.585938 C 80.648438 63.695312 80.097656 63.75 79.542969 63.75 C 78.988281 63.75 78.4375 63.695312 77.890625 63.585938 C 77.34375 63.476562 76.816406 63.316406 76.304688 63.105469 C 75.789062 62.890625 75.300781 62.628906 74.839844 62.320312 C 74.378906 62.011719 73.949219 61.660156 73.554688 61.269531 C 73.164062 60.875 72.8125 60.449219 72.503906 59.984375 C 72.195312 59.523438 71.933594 59.035156 71.722656 58.523438 C 71.507812 58.007812 71.347656 57.480469 71.238281 56.933594 C 71.132812 56.390625 71.078125 55.839844 71.078125 55.28125 C 71.078125 54.726562 71.132812 54.175781 71.238281 53.632812 C 71.347656 53.085938 71.507812 52.558594 71.722656 52.042969 C 71.933594 51.53125 72.195312 51.042969 72.503906 50.578125 C 72.8125 50.117188 73.164062 49.691406 73.554688 49.296875 C 73.949219 48.902344 74.378906 48.554688 74.839844 48.242188 C 75.300781 47.933594 75.789062 47.675781 76.304688 47.460938 C 76.816406 47.25 77.34375 47.089844 77.890625 46.980469 C 78.4375 46.871094 78.988281 46.816406 79.542969 46.816406 C 80.097656 46.816406 80.648438 46.871094 81.195312 46.980469 C 81.738281 47.089844 82.269531 47.25 82.78125 47.460938 C 83.296875 47.675781 83.785156 47.933594 84.246094 48.242188 C 84.707031 48.554688 85.136719 48.902344 85.527344 49.296875 C 85.921875 49.691406 86.273438 50.117188 86.582031 50.578125 C 86.890625 51.042969 87.152344 51.53125 87.363281 52.042969 C 87.574219 52.558594 87.738281 53.085938 87.84375 53.632812 C 87.953125 54.175781 88.007812 54.726562 88.007812 55.28125 Z M 88.007812 55.28125 " fill-opacity="1" fill-rule="nonzero"/><path fill="#94dd26" d="M 68.253906 55.28125 C 68.253906 53.648438 68.621094 52.105469 69.25 50.703125 C 62.59375 47.832031 60.222656 44.621094 58.429688 42.171875 C 56.945312 40.144531 55.660156 38.390625 52.71875 38.390625 C 51.101562 38.390625 48.851562 39.03125 47.300781 42.082031 C 44.402344 47.789062 45.683594 59.007812 48.757812 63.210938 C 50.171875 65.148438 52.242188 66.257812 54.90625 66.515625 C 55.292969 66.554688 55.683594 66.574219 56.085938 66.574219 C 60.734375 66.574219 66.171875 64.148438 70.164062 61.554688 C 68.960938 59.757812 68.253906 57.601562 68.253906 55.28125 Z M 68.253906 55.28125 " fill-opacity="1" fill-rule="nonzero"/><path fill="#94dd26" d="M 79.542969 43.996094 C 81.191406 43.996094 82.746094 44.371094 84.160156 45.007812 C 87.027344 38.351562 90.242188 35.980469 92.691406 34.191406 C 94.722656 32.703125 96.472656 31.421875 96.472656 28.476562 C 96.472656 26.859375 95.832031 24.605469 92.78125 23.058594 C 87.066406 20.15625 75.855469 21.441406 71.65625 24.515625 C 69.71875 25.925781 68.609375 27.992188 68.351562 30.652344 C 67.878906 35.523438 70.480469 41.5625 73.285156 45.898438 C 75.082031 44.699219 77.226562 43.996094 79.542969 43.996094 Z M 79.542969 43.996094 " fill-opacity="1" fill-rule="nonzero"/><path fill="#94dd26" d="M 110.324219 47.394531 C 108.910156 45.457031 106.84375 44.34375 104.179688 44.089844 C 99.347656 43.632812 93.28125 46.234375 88.933594 49.039062 C 90.125 50.828125 90.828125 52.972656 90.828125 55.28125 C 90.828125 56.929688 90.457031 58.484375 89.820312 59.894531 C 96.488281 62.761719 98.863281 65.984375 100.65625 68.433594 C 102.140625 70.460938 103.421875 72.214844 106.367188 72.214844 C 107.984375 72.214844 110.238281 71.574219 111.785156 68.519531 C 114.683594 62.8125 113.402344 51.597656 110.324219 47.394531 Z M 110.324219 47.394531 " fill-opacity="1" fill-rule="nonzero"/><path fill="#94dd26" d="M 79.542969 66.570312 C 77.898438 66.570312 76.34375 66.199219 74.929688 65.5625 C 72.0625 72.226562 68.84375 74.605469 66.394531 76.394531 C 64.363281 77.882812 62.613281 79.164062 62.613281 82.105469 C 62.613281 83.722656 63.253906 85.976562 66.300781 87.523438 C 68.53125 88.65625 71.59375 89.148438 74.753906 89.148438 C 79.691406 89.148438 84.863281 87.941406 87.429688 86.066406 C 89.367188 84.652344 90.480469 82.582031 90.734375 79.917969 C 91.203125 75.046875 88.601562 69.003906 85.789062 64.671875 C 84 65.867188 81.851562 66.570312 79.542969 66.570312 Z M 79.542969 66.570312 " fill-opacity="1" fill-rule="nonzero"/></g></g></svg>