<svg xmlns="http://www.w3.org/2000/svg" xmlns:xlink="http://www.w3.org/1999/xlink" width="200" zoomAndPan="magnify" viewBox="0 0 150 149.999998" height="200" preserveAspectRatio="xMidYMid meet" version="1.0"><defs><g/><clipPath id="9002bd2e58"><rect x="0" width="114" y="0" height="113"/></clipPath></defs><rect x="-15" width="180" fill="#ffffff" y="-15" height="179.999997" fill-opacity="1"/><rect x="-15" width="180" fill="#ffffff" y="-15" height="179.999997" fill-opacity="1"/><g transform="matrix(1, 0, 0, 1, 19, 5)"><g clip-path="url(#9002bd2e58)"><g fill="#000000" fill-opacity="1"><g transform="translate(3.922756, 86.692387)"><g><path d="M 1.703125 -56.96875 L 44.03125 -56.96875 L 44.84375 -40.84375 L 43.375 -40.84375 C 41.09375 -46.320312 38.703125 -50.078125 36.203125 -52.109375 C 33.710938 -54.148438 30.050781 -55.171875 25.21875 -55.171875 L 22.375 -55.171875 L 22.375 -30.03125 L 25.140625 -30.03125 C 27.691406 -30.03125 29.832031 -30.992188 31.5625 -32.921875 C 33.300781 -34.847656 34.523438 -37.4375 35.234375 -40.6875 L 36.453125 -40.6875 L 36.453125 -16.59375 L 35.078125 -16.59375 C 34.097656 -20.664062 32.78125 -23.566406 31.125 -25.296875 C 29.46875 -27.035156 27.203125 -27.90625 24.328125 -27.90625 L 22.375 -27.90625 L 22.375 -1.796875 L 25.46875 -1.796875 C 30.457031 -1.796875 34.703125 -3.285156 38.203125 -6.265625 C 41.703125 -9.242188 44.101562 -13.066406 45.40625 -17.734375 L 47.03125 -17.734375 L 46.390625 0 L 1.703125 0 L 1.703125 -1.796875 L 6.515625 -1.796875 L 6.515625 -55.171875 L 1.703125 -55.171875 Z M 1.703125 -56.96875 "/></g></g></g><g fill="#000000" fill-opacity="1"><g transform="translate(54.698526, 86.692387)"><g><path d="M 32.546875 -56.234375 C 24.140625 -56.234375 19.9375 -48.125 19.9375 -31.90625 L 19.9375 -25.46875 C 19.9375 -17.769531 21.046875 -11.734375 23.265625 -7.359375 C 25.492188 -2.992188 28.78125 -0.8125 33.125 -0.8125 C 39.09375 -0.8125 44.570312 -6.617188 49.5625 -18.234375 L 51.015625 -18.234375 L 50.453125 -0.078125 L 49.5625 -0.078125 C 49.226562 -0.671875 48.925781 -1.085938 48.65625 -1.328125 C 48.382812 -1.578125 47.988281 -1.703125 47.46875 -1.703125 C 46.957031 -1.703125 44.992188 -1.28125 41.578125 -0.4375 C 38.160156 0.394531 34.691406 0.8125 31.171875 0.8125 C 22.328125 0.8125 15.476562 -1.570312 10.625 -6.34375 C 5.769531 -11.125 3.34375 -18.300781 3.34375 -27.875 C 3.34375 -37.445312 5.875 -44.835938 10.9375 -50.046875 C 16.007812 -55.253906 22.832031 -57.859375 31.40625 -57.859375 C 34.71875 -57.859375 37.957031 -57.4375 41.125 -56.59375 C 44.300781 -55.75 46.160156 -55.328125 46.703125 -55.328125 C 47.242188 -55.328125 47.648438 -55.445312 47.921875 -55.6875 C 48.203125 -55.9375 48.503906 -56.363281 48.828125 -56.96875 L 49.71875 -56.96875 L 50.375 -39.296875 L 48.90625 -39.296875 C 46.46875 -44.773438 43.957031 -48.96875 41.375 -51.875 C 38.800781 -54.78125 35.859375 -56.234375 32.546875 -56.234375 Z M 32.546875 -56.234375 "/></g></g></g></g></g></svg>