<svg xmlns="http://www.w3.org/2000/svg" xmlns:xlink="http://www.w3.org/1999/xlink" width="80" zoomAndPan="magnify" viewBox="0 0 60 67.92" height="80" preserveAspectRatio="xMidYMid meet" version="1.0"><defs><clipPath id="432376f3cf"><path d="M 0.0351562 0 L 59.964844 0 L 59.964844 59.929688 L 0.0351562 59.929688 Z M 0.0351562 0 " clip-rule="nonzero"/></clipPath><clipPath id="18a8419e4a"><path d="M 14 3 L 54.9375 3 L 54.9375 56.933594 L 14 56.933594 Z M 14 3 " clip-rule="nonzero"/></clipPath><clipPath id="6db183a92e"><path d="M 4.746094 24 L 12 24 L 12 29 L 4.746094 29 Z M 4.746094 24 " clip-rule="nonzero"/></clipPath></defs><g clip-path="url(#432376f3cf)"><path fill="#ffffff" d="M 0.0351562 0 L 59.964844 0 L 59.964844 59.929688 L 0.0351562 59.929688 Z M 0.0351562 0 " fill-opacity="1" fill-rule="nonzero"/><path fill="#ffffff" d="M 0.0351562 0 L 59.964844 0 L 59.964844 59.929688 L 0.0351562 59.929688 Z M 0.0351562 0 " fill-opacity="1" fill-rule="nonzero"/></g><g clip-path="url(#18a8419e4a)"><path fill="#fbcf06" d="M 51.875 36.882812 L 51.875 11.449219 C 51.875 6.808594 48.101562 3.035156 43.460938 3.035156 C 38.820312 3.035156 35.046875 6.808594 35.046875 11.449219 L 35.046875 14.949219 C 33.015625 13.773438 30.714844 13.132812 28.3125 13.132812 C 20.886719 13.132812 14.847656 19.175781 14.847656 26.597656 C 14.847656 34.023438 20.886719 40.0625 28.3125 40.0625 C 30.058594 40.0625 31.753906 39.730469 33.328125 39.097656 C 31.820312 41.609375 31.304688 44.632812 31.949219 47.664062 C 32.898438 52.125 36.539062 55.734375 41.007812 56.644531 C 41.816406 56.8125 42.632812 56.890625 43.4375 56.890625 C 46.152344 56.890625 48.78125 55.972656 50.902344 54.238281 C 53.664062 51.992188 55.242188 48.664062 55.242188 45.113281 C 55.242188 42.019531 54.023438 39.0625 51.875 36.882812 Z M 18.214844 26.597656 C 18.214844 21.027344 22.742188 16.5 28.3125 16.5 C 30.820312 16.5 33.191406 17.421875 35.046875 19.085938 L 35.046875 34.109375 C 33.191406 35.773438 30.820312 36.699219 28.3125 36.699219 C 22.742188 36.699219 18.214844 32.167969 18.214844 26.597656 Z M 48.777344 51.632812 C 46.808594 53.242188 44.222656 53.859375 41.679688 53.347656 C 38.503906 52.699219 35.917969 50.136719 35.242188 46.964844 C 34.589844 43.914062 35.5625 40.886719 37.84375 38.867188 C 38.203125 38.546875 38.410156 38.085938 38.410156 37.605469 L 38.410156 11.449219 C 38.410156 8.664062 40.675781 6.398438 43.460938 6.398438 C 46.246094 6.398438 48.511719 8.664062 48.511719 11.449219 L 48.511719 37.605469 C 48.511719 38.085938 48.71875 38.546875 49.078125 38.867188 C 50.855469 40.441406 51.875 42.71875 51.875 45.113281 C 51.875 47.648438 50.746094 50.023438 48.777344 51.632812 Z M 48.777344 51.632812 " fill-opacity="1" fill-rule="nonzero"/></g><path fill="#fbcf06" d="M 45.144531 40.375 L 45.144531 13.132812 L 41.777344 13.132812 L 41.777344 40.375 C 39.824219 41.070312 38.410156 42.921875 38.410156 45.113281 C 38.410156 47.898438 40.675781 50.164062 43.460938 50.164062 C 46.246094 50.164062 48.511719 47.898438 48.511719 45.113281 C 48.511719 42.921875 47.097656 41.070312 45.144531 40.375 Z M 43.460938 46.796875 C 42.535156 46.796875 41.777344 46.042969 41.777344 45.113281 C 41.777344 44.183594 42.535156 43.429688 43.460938 43.429688 C 44.386719 43.429688 45.144531 44.183594 45.144531 45.113281 C 45.144531 46.042969 44.386719 46.796875 43.460938 46.796875 Z M 43.460938 46.796875 " fill-opacity="1" fill-rule="nonzero"/><path fill="#fbcf06" d="M 26.628906 3.035156 L 29.996094 3.035156 L 29.996094 9.765625 L 26.628906 9.765625 Z M 26.628906 3.035156 " fill-opacity="1" fill-rule="nonzero"/><path fill="#fbcf06" d="M 10.460938 11.125 L 12.839844 8.746094 L 17.601562 13.507812 L 15.21875 15.886719 Z M 10.460938 11.125 " fill-opacity="1" fill-rule="nonzero"/><path fill="#fbcf06" d="M 10.457031 42.070312 L 15.21875 37.308594 L 17.601562 39.691406 L 12.839844 44.453125 Z M 10.457031 42.070312 " fill-opacity="1" fill-rule="nonzero"/><g clip-path="url(#6db183a92e)"><path fill="#fbcf06" d="M 4.746094 24.914062 L 11.480469 24.914062 L 11.480469 28.28125 L 4.746094 28.28125 Z M 4.746094 24.914062 " fill-opacity="1" fill-rule="nonzero"/></g><path fill="#fbcf06" d="M 26.628906 43.429688 L 29.996094 43.429688 L 29.996094 50.164062 L 26.628906 50.164062 Z M 26.628906 43.429688 " fill-opacity="1" fill-rule="nonzero"/></svg>