<svg xmlns="http://www.w3.org/2000/svg" xmlns:xlink="http://www.w3.org/1999/xlink" width="200" zoomAndPan="magnify" viewBox="0 0 150 149.999998" height="200" preserveAspectRatio="xMidYMid meet" version="1.0"><defs><clipPath id="7b8686ae53"><path d="M 96.46875 25.679688 L 145.394531 25.679688 L 145.394531 123.921875 L 96.46875 123.921875 Z M 96.46875 25.679688 " clip-rule="nonzero"/></clipPath><clipPath id="1ad7649919"><path d="M 39.234375 2.148438 L 105.933594 2.148438 L 105.933594 147.648438 L 39.234375 147.648438 Z M 39.234375 2.148438 " clip-rule="nonzero"/></clipPath><clipPath id="7de65177ca"><path d="M 22.417969 43 L 50 43 L 50 49 L 22.417969 49 Z M 22.417969 43 " clip-rule="nonzero"/></clipPath></defs><rect x="-15" width="180" fill="#ffffff" y="-15" height="179.999997" fill-opacity="1"/><rect x="-15" width="180" fill="#ffffff" y="-15" height="179.999997" fill-opacity="1"/><path fill="#000000" d="M 114.90625 108.578125 C 114.214844 107.3125 114.679688 105.726562 115.941406 105.03125 C 121.734375 101.855469 126.371094 96.726562 128.992188 90.589844 C 129.5625 89.261719 131.09375 88.648438 132.421875 89.214844 C 133.746094 89.78125 134.359375 91.316406 133.792969 92.644531 C 130.710938 99.851562 125.261719 105.878906 118.449219 109.613281 C 117.179688 110.308594 115.597656 109.839844 114.90625 108.578125 " fill-opacity="1" fill-rule="nonzero"/><g clip-path="url(#7b8686ae53)"><path fill="#000000" d="M 113.855469 123.859375 C 112.53125 123.859375 111.394531 122.847656 111.261719 121.496094 C 111.125 120.0625 112.175781 118.785156 113.609375 118.644531 C 128.542969 117.195312 140.175781 104.28125 140.175781 88.703125 C 140.175781 75.617188 120.605469 46.183594 110.792969 32.777344 C 108.691406 35.675781 105.203125 40.574219 101.347656 46.382812 C 100.550781 47.582031 98.929688 47.910156 97.730469 47.113281 C 96.53125 46.3125 96.203125 44.691406 97 43.488281 C 103.304688 33.996094 108.636719 26.882812 108.691406 26.8125 C 109.746094 25.410156 111.828125 25.445312 112.859375 26.804688 C 122.109375 39.015625 145.394531 72.664062 145.394531 88.703125 C 145.394531 106.859375 131.835938 122.128906 114.113281 123.847656 C 114.027344 123.855469 113.941406 123.859375 113.855469 123.859375 " fill-opacity="1" fill-rule="nonzero"/></g><g clip-path="url(#1ad7649919)"><path fill="#000000" d="M 72.582031 7.375 C 65.53125 7.375 59.800781 13.050781 59.800781 20.03125 L 59.808594 88.382812 C 59.808594 89.316406 59.3125 90.179688 58.503906 90.644531 C 49.550781 95.816406 44.21875 105.40625 44.589844 115.671875 C 45.117188 130.3125 57.105469 142.058594 71.882812 142.414062 C 87.710938 142.800781 100.589844 130.234375 100.589844 114.652344 C 100.589844 104.8125 95.253906 95.617188 86.664062 90.652344 C 85.859375 90.183594 85.359375 89.324219 85.359375 88.390625 L 85.359375 20.03125 C 85.359375 13.050781 79.625 7.375 72.582031 7.375 Z M 72.597656 147.648438 C 54.546875 147.652344 40.007812 133.410156 39.375 115.859375 C 38.953125 104.164062 44.746094 93.210938 54.589844 86.914062 L 54.578125 20.03125 C 54.578125 10.171875 62.652344 2.148438 72.582031 2.148438 C 82.503906 2.148438 90.582031 10.171875 90.582031 20.03125 L 90.582031 86.921875 C 100.011719 92.972656 105.808594 103.460938 105.808594 114.652344 C 105.808594 133.023438 90.835938 147.648438 72.597656 147.648438 " fill-opacity="1" fill-rule="nonzero"/></g><path fill="#000000" d="M 72.367188 131.953125 L 72.589844 131.953125 C 82.25 131.953125 90.113281 124.191406 90.113281 114.652344 C 90.113281 104.179688 81.910156 99.824219 77.964844 97.734375 C 76.378906 96.890625 74.886719 96.226562 74.886719 94.433594 L 74.886719 20.03125 C 74.886719 18.828125 73.851562 17.84375 72.578125 17.84375 C 71.308594 17.84375 70.273438 18.828125 70.273438 20.03125 L 70.285156 94.425781 C 70.285156 96.242188 68.730469 96.933594 67.050781 97.816406 C 62.722656 100.097656 54.660156 104.339844 55.058594 115.296875 C 55.386719 124.402344 62.984375 131.710938 72.367188 131.953125 Z M 56.636719 130.695312 C 52.460938 126.652344 50.046875 121.253906 49.839844 115.488281 C 49.328125 101.246094 60.046875 95.601562 64.621094 93.191406 C 64.765625 93.117188 64.914062 93.039062 65.066406 92.957031 L 65.054688 20.035156 C 65.054688 15.945312 68.429688 12.621094 72.578125 12.621094 C 76.730469 12.621094 80.105469 15.945312 80.105469 20.03125 L 80.105469 92.953125 C 80.207031 93.011719 80.3125 93.066406 80.410156 93.117188 C 84.492188 95.28125 95.332031 101.035156 95.332031 114.652344 C 95.332031 134.632812 71.039062 144.632812 56.636719 130.695312 " fill-opacity="1" fill-rule="nonzero"/><g clip-path="url(#7de65177ca)"><path fill="#000000" d="M 47.339844 48.5 L 25.054688 48.5 C 23.613281 48.5 22.441406 47.332031 22.441406 45.890625 C 22.441406 44.445312 23.613281 43.277344 25.054688 43.277344 L 47.339844 43.277344 C 48.78125 43.277344 49.949219 44.445312 49.949219 45.890625 C 49.949219 47.332031 48.78125 48.5 47.339844 48.5 " fill-opacity="1" fill-rule="nonzero"/></g><path fill="#000000" d="M 47.339844 59.722656 L 36.195312 59.722656 C 34.753906 59.722656 33.585938 58.554688 33.585938 57.109375 C 33.585938 55.667969 34.753906 54.496094 36.195312 54.496094 L 47.339844 54.496094 C 48.78125 54.496094 49.949219 55.667969 49.949219 57.109375 C 49.949219 58.554688 48.78125 59.722656 47.339844 59.722656 " fill-opacity="1" fill-rule="nonzero"/><path fill="#000000" d="M 47.339844 37.28125 L 36.195312 37.28125 C 34.753906 37.28125 33.585938 36.109375 33.585938 34.667969 C 33.585938 33.222656 34.753906 32.054688 36.195312 32.054688 L 47.339844 32.054688 C 48.78125 32.054688 49.949219 33.222656 49.949219 34.667969 C 49.949219 36.109375 48.78125 37.28125 47.339844 37.28125 " fill-opacity="1" fill-rule="nonzero"/></svg>