<svg xmlns="http://www.w3.org/2000/svg" xmlns:xlink="http://www.w3.org/1999/xlink" width="80" zoomAndPan="magnify" viewBox="0 0 60 67.92" height="80" preserveAspectRatio="xMidYMid meet" version="1.0"><defs><clipPath id="3c77714354"><path d="M 0.0351562 0 L 59.964844 0 L 59.964844 59.929688 L 0.0351562 59.929688 Z M 0.0351562 0 " clip-rule="nonzero"/></clipPath><clipPath id="37c7dac55a"><path d="M 3.234375 2.019531 L 56.421875 2.019531 L 56.421875 55.207031 L 3.234375 55.207031 Z M 3.234375 2.019531 " clip-rule="nonzero"/></clipPath></defs><g clip-path="url(#3c77714354)"><path fill="#ffffff" d="M 0.0351562 0 L 59.964844 0 L 59.964844 59.929688 L 0.0351562 59.929688 Z M 0.0351562 0 " fill-opacity="1" fill-rule="nonzero"/><path fill="#ffffff" d="M 0.0351562 0 L 59.964844 0 L 59.964844 59.929688 L 0.0351562 59.929688 Z M 0.0351562 0 " fill-opacity="1" fill-rule="nonzero"/></g><g clip-path="url(#37c7dac55a)"><path fill="#1b447a" d="M 12.15625 41.527344 C 12.160156 40.964844 12.253906 40.414062 12.4375 39.882812 C 12.621094 39.351562 12.886719 38.863281 13.230469 38.417969 C 13.578125 37.972656 13.984375 37.59375 14.457031 37.285156 C 14.925781 36.976562 15.433594 36.75 15.980469 36.609375 L 15.980469 10.941406 C 15.980469 10.773438 16.011719 10.609375 16.078125 10.453125 C 16.140625 10.296875 16.234375 10.160156 16.355469 10.039062 C 16.472656 9.921875 16.609375 9.828125 16.765625 9.761719 C 16.921875 9.699219 17.085938 9.667969 17.253906 9.667969 C 17.425781 9.667969 17.585938 9.699219 17.742188 9.761719 C 17.898438 9.828125 18.035156 9.921875 18.15625 10.039062 C 18.277344 10.160156 18.367188 10.296875 18.433594 10.453125 C 18.496094 10.609375 18.53125 10.773438 18.53125 10.941406 L 18.53125 36.609375 C 18.835938 36.691406 19.132812 36.796875 19.421875 36.929688 C 19.707031 37.066406 19.980469 37.226562 20.238281 37.410156 C 20.492188 37.597656 20.730469 37.804688 20.949219 38.035156 C 21.167969 38.261719 21.363281 38.511719 21.535156 38.777344 C 21.707031 39.042969 21.855469 39.324219 21.972656 39.617188 C 22.09375 39.910156 22.183594 40.210938 22.25 40.523438 C 22.3125 40.832031 22.347656 41.148438 22.351562 41.464844 C 22.355469 41.78125 22.332031 42.09375 22.28125 42.40625 C 22.226562 42.71875 22.144531 43.023438 22.035156 43.320312 C 21.921875 43.617188 21.785156 43.902344 21.625 44.175781 C 21.460938 44.445312 21.273438 44.699219 21.0625 44.9375 C 20.851562 45.171875 20.621094 45.390625 20.371094 45.582031 C 20.117188 45.777344 19.851562 45.945312 19.570312 46.089844 C 19.285156 46.234375 18.992188 46.347656 18.691406 46.4375 C 18.386719 46.527344 18.074219 46.585938 17.761719 46.621094 C 17.445312 46.652344 17.128906 46.652344 16.8125 46.625 C 16.496094 46.597656 16.1875 46.542969 15.882812 46.457031 C 15.578125 46.371094 15.28125 46.257812 14.996094 46.117188 C 14.714844 45.976562 14.445312 45.8125 14.191406 45.621094 C 13.9375 45.429688 13.703125 45.21875 13.492188 44.984375 C 13.277344 44.75 13.085938 44.5 12.921875 44.230469 C 12.753906 43.960938 12.613281 43.675781 12.5 43.382812 C 12.386719 43.085938 12.300781 42.78125 12.242188 42.46875 C 12.183594 42.160156 12.15625 41.84375 12.15625 41.527344 Z M 3.234375 41.527344 C 3.234375 40.5 3.347656 39.480469 3.574219 38.476562 C 3.800781 37.472656 4.132812 36.503906 4.574219 35.574219 C 5.015625 34.644531 5.550781 33.773438 6.1875 32.964844 C 6.820312 32.152344 7.535156 31.421875 8.335938 30.769531 L 8.335938 10.941406 C 8.335938 10.355469 8.390625 9.773438 8.503906 9.199219 C 8.621094 8.625 8.789062 8.066406 9.011719 7.527344 C 9.238281 6.984375 9.511719 6.472656 9.835938 5.984375 C 10.164062 5.496094 10.53125 5.046875 10.945312 4.632812 C 11.359375 4.21875 11.8125 3.847656 12.300781 3.523438 C 12.785156 3.199219 13.300781 2.921875 13.839844 2.699219 C 14.382812 2.472656 14.941406 2.304688 15.515625 2.191406 C 16.089844 2.078125 16.667969 2.019531 17.253906 2.019531 C 17.839844 2.019531 18.421875 2.078125 18.996094 2.191406 C 19.570312 2.304688 20.128906 2.472656 20.667969 2.699219 C 21.210938 2.921875 21.722656 3.199219 22.210938 3.523438 C 22.699219 3.847656 23.148438 4.21875 23.5625 4.632812 C 23.976562 5.046875 24.347656 5.496094 24.671875 5.984375 C 25 6.472656 25.273438 6.984375 25.496094 7.527344 C 25.722656 8.066406 25.890625 8.625 26.003906 9.199219 C 26.121094 9.773438 26.175781 10.355469 26.175781 10.941406 L 26.175781 30.769531 C 26.972656 31.421875 27.6875 32.152344 28.324219 32.964844 C 28.957031 33.773438 29.496094 34.644531 29.9375 35.574219 C 30.378906 36.503906 30.710938 37.472656 30.9375 38.476562 C 31.164062 39.480469 31.273438 40.5 31.273438 41.527344 C 31.273438 42.449219 31.183594 43.359375 31.003906 44.261719 C 30.824219 45.164062 30.558594 46.042969 30.207031 46.890625 C 29.855469 47.742188 29.421875 48.550781 28.910156 49.316406 C 28.398438 50.082031 27.820312 50.789062 27.167969 51.441406 C 26.515625 52.089844 25.808594 52.671875 25.042969 53.183594 C 24.277344 53.695312 23.46875 54.128906 22.621094 54.480469 C 21.769531 54.832031 20.894531 55.097656 19.988281 55.277344 C 19.085938 55.457031 18.175781 55.546875 17.253906 55.546875 C 16.335938 55.546875 15.421875 55.457031 14.519531 55.277344 C 13.617188 55.097656 12.742188 54.832031 11.890625 54.480469 C 11.039062 54.128906 10.230469 53.695312 9.464844 53.183594 C 8.703125 52.671875 7.992188 52.089844 7.34375 51.441406 C 6.691406 50.789062 6.109375 50.082031 5.597656 49.316406 C 5.085938 48.550781 4.65625 47.742188 4.304688 46.890625 C 3.949219 46.042969 3.683594 45.164062 3.503906 44.261719 C 3.324219 43.359375 3.234375 42.449219 3.234375 41.527344 Z M 5.785156 41.527344 C 5.78125 42.015625 5.8125 42.5 5.871094 42.984375 C 5.929688 43.46875 6.019531 43.945312 6.140625 44.417969 C 6.261719 44.890625 6.410156 45.351562 6.589844 45.804688 C 6.769531 46.257812 6.980469 46.699219 7.214844 47.125 C 7.449219 47.550781 7.710938 47.960938 8 48.355469 C 8.289062 48.75 8.597656 49.121094 8.933594 49.476562 C 9.269531 49.828125 9.625 50.160156 10.003906 50.46875 C 10.382812 50.777344 10.777344 51.058594 11.191406 51.316406 C 11.605469 51.574219 12.03125 51.804688 12.476562 52.007812 C 12.917969 52.210938 13.375 52.386719 13.839844 52.53125 C 14.304688 52.675781 14.777344 52.789062 15.257812 52.875 C 15.734375 52.960938 16.21875 53.015625 16.707031 53.039062 C 17.191406 53.0625 17.679688 53.054688 18.164062 53.015625 C 18.652344 52.976562 19.132812 52.90625 19.609375 52.808594 C 20.085938 52.707031 20.554688 52.578125 21.015625 52.417969 C 21.476562 52.257812 21.925781 52.070312 22.359375 51.851562 C 22.796875 51.636719 23.21875 51.390625 23.625 51.121094 C 24.027344 50.851562 24.414062 50.554688 24.78125 50.234375 C 25.152344 49.914062 25.496094 49.574219 25.820312 49.210938 C 26.144531 48.84375 26.445312 48.460938 26.71875 48.058594 C 26.996094 47.65625 27.242188 47.238281 27.464844 46.804688 C 27.6875 46.371094 27.882812 45.925781 28.046875 45.46875 C 28.210938 45.007812 28.347656 44.542969 28.453125 44.066406 C 28.558594 43.589844 28.632812 43.109375 28.675781 42.625 C 28.722656 42.140625 28.734375 41.652344 28.71875 41.164062 C 28.699219 40.679688 28.652344 40.195312 28.570312 39.714844 C 28.492188 39.234375 28.382812 38.757812 28.242188 38.292969 C 28.105469 37.824219 27.933594 37.371094 27.738281 36.925781 C 27.539062 36.480469 27.3125 36.046875 27.0625 35.628906 C 26.808594 35.214844 26.53125 34.816406 26.226562 34.433594 C 25.921875 34.054688 25.597656 33.691406 25.246094 33.351562 C 24.898438 33.011719 24.527344 32.699219 24.136719 32.40625 C 23.796875 32.148438 23.628906 31.808594 23.628906 31.386719 L 23.628906 10.941406 C 23.628906 10.523438 23.585938 10.109375 23.503906 9.699219 C 23.421875 9.289062 23.300781 8.890625 23.140625 8.503906 C 22.980469 8.117188 22.785156 7.75 22.550781 7.402344 C 22.320312 7.054688 22.054688 6.730469 21.761719 6.4375 C 21.464844 6.140625 21.140625 5.875 20.792969 5.644531 C 20.445312 5.410156 20.078125 5.214844 19.691406 5.054688 C 19.308594 4.894531 18.910156 4.773438 18.496094 4.691406 C 18.085938 4.613281 17.671875 4.570312 17.253906 4.570312 C 16.835938 4.570312 16.421875 4.613281 16.011719 4.691406 C 15.601562 4.773438 15.203125 4.894531 14.816406 5.054688 C 14.429688 5.214844 14.0625 5.410156 13.714844 5.644531 C 13.367188 5.875 13.046875 6.140625 12.75 6.4375 C 12.453125 6.730469 12.191406 7.054688 11.957031 7.402344 C 11.726562 7.75 11.527344 8.117188 11.367188 8.503906 C 11.207031 8.890625 11.085938 9.289062 11.003906 9.699219 C 10.925781 10.109375 10.882812 10.523438 10.882812 10.941406 L 10.882812 31.386719 C 10.882812 31.8125 10.714844 32.152344 10.375 32.40625 C 9.660156 32.9375 9.019531 33.539062 8.453125 34.21875 C 7.882812 34.898438 7.398438 35.632812 7 36.425781 C 6.601562 37.214844 6.300781 38.042969 6.09375 38.90625 C 5.890625 39.765625 5.785156 40.640625 5.785156 41.527344 Z M 56.6875 33.660156 C 56.769531 33.429688 56.785156 33.191406 56.730469 32.953125 C 56.679688 32.710938 56.566406 32.503906 56.390625 32.328125 C 56.214844 32.15625 56.007812 32.039062 55.765625 31.984375 C 55.523438 31.933594 55.289062 31.945312 55.054688 32.027344 C 53.703125 32.519531 52.308594 32.8125 50.875 32.90625 C 49.4375 33.003906 48.019531 32.894531 46.613281 32.582031 C 45.210938 32.269531 43.875 31.769531 42.617188 31.078125 C 41.355469 30.386719 40.214844 29.53125 39.199219 28.515625 C 38.179688 27.496094 37.324219 26.355469 36.632812 25.097656 C 35.941406 23.835938 35.441406 22.5 35.128906 21.097656 C 34.816406 19.691406 34.710938 18.273438 34.804688 16.835938 C 34.898438 15.402344 35.191406 14.007812 35.683594 12.65625 C 35.769531 12.421875 35.785156 12.1875 35.730469 11.945312 C 35.675781 11.703125 35.5625 11.492188 35.386719 11.320312 C 35.210938 11.144531 35.003906 11.027344 34.761719 10.976562 C 34.519531 10.921875 34.28125 10.9375 34.050781 11.023438 C 32.609375 11.546875 31.257812 12.25 30 13.128906 L 30 16.386719 C 30.777344 15.679688 31.617188 15.054688 32.523438 14.519531 C 32.3125 15.601562 32.210938 16.691406 32.210938 17.792969 C 32.210938 18.371094 32.238281 18.949219 32.296875 19.527344 C 32.355469 20.101562 32.4375 20.675781 32.550781 21.246094 C 32.667969 21.8125 32.808594 22.375 32.976562 22.929688 C 33.144531 23.484375 33.339844 24.027344 33.5625 24.5625 C 33.785156 25.097656 34.03125 25.621094 34.304688 26.132812 C 34.578125 26.644531 34.875 27.140625 35.199219 27.621094 C 35.519531 28.105469 35.867188 28.570312 36.234375 29.015625 C 36.601562 29.464844 36.988281 29.894531 37.398438 30.304688 C 37.808594 30.714844 38.238281 31.101562 38.6875 31.46875 C 39.132812 31.839844 39.597656 32.183594 40.082031 32.503906 C 40.5625 32.828125 41.058594 33.125 41.570312 33.398438 C 42.082031 33.671875 42.605469 33.917969 43.140625 34.140625 C 43.675781 34.363281 44.21875 34.558594 44.773438 34.726562 C 45.328125 34.898438 45.890625 35.039062 46.460938 35.152344 C 47.027344 35.265625 47.601562 35.351562 48.175781 35.40625 C 48.753906 35.464844 49.332031 35.492188 49.910156 35.496094 C 51.015625 35.496094 52.109375 35.390625 53.195312 35.179688 C 52.757812 35.941406 52.261719 36.65625 51.703125 37.332031 C 51.144531 38.003906 50.53125 38.625 49.863281 39.191406 C 49.195312 39.757812 48.484375 40.265625 47.730469 40.707031 C 46.976562 41.152344 46.1875 41.527344 45.367188 41.835938 C 44.550781 42.140625 43.707031 42.375 42.847656 42.539062 C 41.988281 42.699219 41.121094 42.785156 40.246094 42.796875 C 39.367188 42.808594 38.5 42.742188 37.632812 42.601562 C 36.769531 42.464844 35.925781 42.25 35.097656 41.964844 C 35.074219 42.828125 34.988281 43.683594 34.84375 44.535156 C 35.378906 44.703125 35.921875 44.847656 36.472656 44.964844 C 37.023438 45.082031 37.578125 45.171875 38.136719 45.238281 C 38.695312 45.300781 39.257812 45.335938 39.820312 45.347656 C 40.382812 45.359375 40.945312 45.339844 41.503906 45.296875 C 42.066406 45.253906 42.625 45.183594 43.175781 45.085938 C 43.730469 44.988281 44.28125 44.863281 44.820312 44.714844 C 45.363281 44.566406 45.898438 44.390625 46.425781 44.1875 C 46.949219 43.988281 47.464844 43.761719 47.96875 43.511719 C 48.472656 43.257812 48.960938 42.984375 49.441406 42.6875 C 49.917969 42.390625 50.378906 42.070312 50.828125 41.726562 C 51.273438 41.386719 51.703125 41.023438 52.113281 40.640625 C 52.527344 40.257812 52.917969 39.855469 53.292969 39.433594 C 53.664062 39.011719 54.019531 38.574219 54.347656 38.121094 C 54.679688 37.664062 54.988281 37.195312 55.277344 36.710938 C 55.5625 36.226562 55.824219 35.730469 56.0625 35.222656 C 56.300781 34.710938 56.515625 34.191406 56.703125 33.660156 Z M 56.6875 33.660156 " fill-opacity="1" fill-rule="nonzero"/></g></svg>