<svg xmlns="http://www.w3.org/2000/svg" xmlns:xlink="http://www.w3.org/1999/xlink" width="200" zoomAndPan="magnify" viewBox="0 0 150 149.999998" height="200" preserveAspectRatio="xMidYMid meet" version="1.0"><defs><clipPath id="cbe460450c"><path d="M 15 3.316406 L 134.25 3.316406 L 134.25 146.566406 L 15 146.566406 Z M 15 3.316406 " clip-rule="nonzero"/></clipPath></defs><rect x="-15" width="180" fill="#ffffff" y="-15" height="179.999997" fill-opacity="1"/><rect x="-15" width="180" fill="#ffffff" y="-15" height="179.999997" fill-opacity="1"/><g clip-path="url(#cbe460450c)"><path fill="#008037" d="M 74.765625 146.671875 C 74.507812 146.671875 74.25 146.644531 74.007812 146.570312 C 73.414062 146.421875 15.035156 130.425781 15.035156 76.0625 L 15.035156 27.210938 C 15.035156 25.960938 15.816406 24.839844 16.988281 24.410156 L 73.730469 3.503906 C 74.394531 3.257812 75.128906 3.257812 75.800781 3.503906 L 132.542969 24.410156 C 133.714844 24.839844 134.496094 25.960938 134.496094 27.210938 L 134.496094 76.0625 C 134.496094 130.429688 76.117188 146.421875 75.523438 146.578125 C 75.28125 146.644531 75.023438 146.671875 74.765625 146.671875 Z M 21.007812 29.292969 L 21.007812 76.0625 C 21.007812 123.144531 67.898438 138.578125 74.765625 140.585938 C 81.632812 138.578125 128.523438 123.144531 128.523438 76.0625 L 128.523438 29.292969 L 74.765625 9.488281 Z M 21.007812 29.292969 " fill-opacity="1" fill-rule="nonzero"/></g><path fill="#008037" d="M 92.683594 92.914062 C 91.363281 92.914062 90.207031 92.046875 89.824219 90.789062 L 80.863281 60.921875 C 80.386719 59.34375 81.28125 57.679688 82.863281 57.199219 C 84.441406 56.734375 86.109375 57.617188 86.582031 59.203125 L 92.683594 79.535156 L 98.785156 59.207031 C 99.253906 57.625 100.933594 56.742188 102.5 57.207031 C 104.082031 57.683594 104.976562 59.34375 104.5 60.929688 L 95.539062 90.792969 C 95.164062 92.046875 94.003906 92.914062 92.683594 92.914062 Z M 92.683594 92.914062 " fill-opacity="1" fill-rule="nonzero"/><path fill="#008037" d="M 59.832031 92.914062 L 53.859375 92.914062 C 48.917969 92.914062 44.898438 88.894531 44.898438 83.953125 L 44.898438 60.0625 C 44.898438 58.414062 46.238281 57.074219 47.886719 57.074219 C 49.535156 57.074219 50.871094 58.414062 50.871094 60.0625 L 50.871094 83.953125 C 50.871094 85.601562 52.21875 86.941406 53.859375 86.941406 L 59.832031 86.941406 C 61.476562 86.941406 62.820312 85.601562 62.820312 83.953125 L 62.820312 60.0625 C 62.820312 58.414062 64.15625 57.074219 65.804688 57.074219 C 67.453125 57.074219 68.792969 58.414062 68.792969 60.0625 L 68.792969 83.953125 C 68.792969 88.894531 64.773438 92.914062 59.832031 92.914062 Z M 59.832031 92.914062 " fill-opacity="1" fill-rule="nonzero"/></svg>